{"glyphs":{"0":{"ha":407,"x_min":46,"x_max":389,"o":"m 107 165 q 65 190 78 165 q 56 281 46 235 q 83 364 67 328 q 126 433 101 399 q 179 494 151 467 q 235 540 207 521 q 288 565 263 558 q 294 561 294 565 q 290 554 297 554 q 240 530 267 549 q 185 485 213 511 q 135 426 158 458 q 94 358 111 393 q 78 322 86 342 q 67 280 71 301 q 65 237 64 258 q 76 194 67 215 q 101 177 83 178 q 136 182 119 176 q 218 230 174 194 q 299 315 263 265 q 357 424 336 365 q 365 543 378 483 q 297 608 354 601 q 235 600 268 611 q 170 568 201 589 q 113 518 139 547 q 72 458 86 489 q 65 456 69 453 q 63 463 60 458 q 104 526 76 496 q 165 578 132 557 q 233 612 197 600 q 299 619 268 624 q 376 544 364 613 q 368 422 389 483 q 309 310 347 361 q 224 222 271 258 q 139 172 178 185 q 107 165 121 165 z "},"1":{"ha":186,"x_min":81,"x_max":114,"o":"m 107 172 q 101 178 104 172 q 97 227 99 192 q 92 308 94 263 q 88 406 90 354 q 83 506 85 458 q 81 592 82 554 q 82 650 81 631 q 88 656 82 656 q 93 650 93 656 q 92 592 92 631 q 95 506 93 554 q 99 407 97 458 q 103 309 101 356 q 108 228 106 263 q 114 179 111 193 q 108 174 114 174 q 107 172 108 172 z "},"2":{"ha":342,"x_min":21,"x_max":339,"o":"m 28 163 q 24 165 26 163 q 24 172 21 168 q 47 202 24 172 q 99 283 69 232 q 156 401 128 333 q 197 544 185 468 q 185 650 213 628 q 169 655 178 656 q 154 651 161 654 q 120 626 138 644 q 87 580 103 608 q 59 515 71 551 q 42 433 47 478 q 35 428 42 428 q 31 433 31 428 q 49 518 36 479 q 78 587 61 557 q 113 636 94 617 q 150 663 132 656 q 192 658 176 671 q 210 625 203 650 q 208 543 218 600 q 178 426 199 482 q 133 324 157 371 q 87 242 110 278 q 50 188 64 207 q 102 210 69 197 q 174 230 135 224 q 255 231 213 236 q 335 199 297 225 q 336 190 339 194 q 328 189 332 186 q 263 217 297 210 q 197 221 229 224 q 134 209 164 218 q 82 190 104 200 q 46 172 60 181 q 32 164 32 164 q 28 163 31 163 z "},"3":{"ha":285,"x_min":10,"x_max":258,"o":"m 40 149 q 35 154 35 149 q 39 161 33 158 q 57 163 39 161 q 99 172 75 165 q 151 189 124 178 q 197 217 178 200 q 225 269 232 246 q 206 294 221 283 q 171 313 190 304 q 132 326 151 321 q 100 333 113 331 l 96 338 q 97 343 96 342 q 111 358 97 343 q 145 396 125 372 q 187 451 165 419 q 225 517 208 482 q 244 575 240 550 q 238 614 249 600 q 220 627 231 625 q 200 628 210 629 q 109 580 160 624 q 22 457 58 536 q 15 454 19 451 q 13 461 10 457 q 54 535 31 503 q 103 589 78 567 q 153 624 128 611 q 199 639 178 636 q 247 621 232 643 q 257 584 256 610 q 236 511 258 558 q 204 456 222 482 q 169 407 186 429 q 136 368 151 385 q 113 343 121 351 q 143 335 124 340 q 181 321 163 329 q 215 301 200 313 q 235 272 231 289 q 206 208 243 242 q 157 179 185 190 q 103 161 129 168 q 60 151 78 154 q 40 149 42 149 z "},"4":{"ha":303,"x_min":11,"x_max":268,"o":"m 265 350 q 265 342 268 347 q 263 341 264 342 q 261 340 263 340 q 259 341 260 340 q 257 342 258 342 q 238 348 253 346 q 200 353 222 350 q 194 253 196 300 q 196 192 192 206 q 193 183 197 186 l 192 183 q 186 188 186 183 q 182 213 183 196 q 181 253 181 231 q 184 302 182 276 q 189 353 186 328 q 103 356 150 356 q 17 354 56 356 q 14 354 15 353 q 13 357 13 356 q 13 363 11 361 q 66 431 39 392 q 117 511 93 471 q 163 590 142 551 q 196 654 183 628 q 204 657 199 660 q 207 649 210 654 q 175 588 194 624 q 131 512 156 551 q 81 434 107 472 q 29 365 54 396 q 101 367 54 367 q 189 364 147 367 q 195 430 192 403 q 199 460 199 457 q 206 465 199 465 q 210 460 210 465 q 205 417 207 443 q 200 364 203 392 q 242 358 225 361 q 265 350 260 356 z "},"5":{"ha":306,"x_min":31,"x_max":288,"o":"m 168 181 q 102 212 139 181 q 33 322 65 243 q 36 331 31 328 q 44 326 42 331 q 113 218 75 249 q 178 193 150 188 q 203 210 193 196 q 213 244 213 225 q 184 324 211 293 q 124 373 157 356 q 65 398 92 390 q 38 406 38 406 q 35 407 35 406 q 33 411 33 408 q 44 485 39 444 q 54 560 50 525 q 61 619 58 596 q 64 643 64 643 q 67 647 64 646 q 71 647 68 649 q 124 631 89 640 q 194 612 160 621 q 256 596 229 603 q 282 589 282 589 q 286 582 288 586 q 279 578 286 578 q 255 584 279 578 q 197 599 231 590 q 129 618 164 608 q 74 635 94 628 q 70 599 72 624 q 64 544 68 575 q 56 478 60 513 q 46 415 51 444 q 86 403 57 413 q 145 374 115 394 q 199 323 175 354 q 224 244 222 292 q 213 203 225 221 q 179 182 200 186 q 174 181 176 182 q 168 181 171 181 z "},"6":{"ha":369,"x_min":31,"x_max":322,"o":"m 88 124 l 86 124 q 82 131 82 125 q 89 151 83 138 q 43 204 54 163 q 42 306 31 246 q 86 426 53 365 q 173 541 119 488 q 297 624 226 594 q 304 619 301 624 q 301 613 307 615 q 181 533 233 585 q 97 423 129 482 q 52 306 64 364 q 53 208 40 249 q 92 163 65 171 q 122 231 104 196 q 159 297 139 267 q 200 351 179 328 q 240 383 221 374 q 278 393 264 394 q 300 386 293 392 q 311 319 322 368 q 289 266 304 293 q 251 215 274 239 q 201 174 229 192 q 139 149 172 156 q 100 149 117 144 q 93 128 94 135 q 88 124 90 124 m 103 160 q 118 158 110 157 q 136 160 126 158 q 195 183 168 167 q 244 223 222 200 q 279 272 265 246 q 300 322 293 297 q 293 378 308 363 q 244 372 278 389 q 209 343 228 364 q 171 293 190 322 q 133 229 151 264 q 103 160 115 194 z "},"7":{"ha":289,"x_min":-1,"x_max":268,"o":"m 263 622 q 265 615 268 619 q 257 594 265 615 q 236 535 249 572 q 208 451 224 499 q 178 351 193 404 q 212 351 197 351 q 233 347 226 350 q 236 339 239 344 q 228 336 233 335 q 208 340 222 339 q 175 340 194 340 q 149 242 161 292 q 128 146 136 192 q 122 140 125 140 q 121 142 122 140 q 117 147 114 142 q 137 242 125 193 q 163 339 149 290 q 92 333 129 336 q 33 326 54 329 l 32 326 q 26 332 26 326 q 32 338 26 338 q 50 340 36 338 q 83 344 64 342 q 124 348 101 346 q 167 350 146 350 q 214 502 190 433 q 249 601 238 571 q 190 572 228 589 q 115 540 153 556 q 46 513 76 525 q 7 499 15 501 q 0 503 3 497 q 4 510 -1 507 q 67 533 28 518 q 147 565 107 549 q 217 597 186 582 q 256 621 249 613 q 263 622 257 625 z "},"8":{"ha":325,"x_min":22,"x_max":289,"o":"m 64 154 q 29 172 38 154 q 28 212 22 188 q 51 265 35 236 q 90 324 67 293 q 139 382 114 354 q 77 424 104 401 q 57 481 50 446 q 79 528 63 506 q 118 567 96 550 q 166 597 140 585 q 215 615 192 610 q 275 604 260 624 q 271 551 289 586 q 251 520 263 535 q 228 494 239 506 q 208 476 217 483 q 200 469 200 469 q 192 469 196 465 q 193 478 189 474 q 219 501 207 488 q 242 527 231 513 q 261 557 253 542 q 267 597 275 583 q 218 604 257 611 q 171 587 194 599 q 126 558 147 575 q 90 521 106 542 q 68 478 74 500 q 71 452 65 464 q 88 430 76 440 q 113 410 99 419 q 144 390 128 400 l 146 390 q 167 411 157 401 q 188 431 176 421 q 194 431 190 433 q 194 422 200 425 q 175 403 185 413 q 156 385 165 394 q 204 350 183 368 q 228 307 225 332 q 218 268 229 292 q 188 221 207 244 q 140 179 168 197 q 78 156 111 161 q 71 155 75 156 q 64 154 67 154 m 149 375 q 99 315 121 346 q 61 258 76 285 q 40 210 46 231 q 39 178 33 189 q 76 167 47 163 q 133 188 107 171 q 178 226 158 206 q 208 269 197 247 q 217 307 218 292 q 194 344 214 328 q 149 375 174 360 z "},"9":{"ha":322,"x_min":6,"x_max":296,"o":"m 107 156 q 103 157 104 156 q 103 165 99 161 q 190 285 156 221 q 243 410 224 350 q 271 519 263 469 q 282 594 279 568 q 256 556 272 579 q 219 506 240 532 q 176 453 199 479 q 128 407 153 426 q 81 377 104 388 q 38 371 58 367 q 10 413 6 378 q 42 480 14 440 q 109 555 69 519 q 193 615 149 590 q 276 640 238 640 q 281 640 279 640 q 285 639 282 639 q 290 633 290 639 q 283 628 288 628 q 203 608 247 631 q 119 550 158 585 q 53 477 81 515 q 21 411 25 439 q 39 382 19 386 q 88 392 61 376 q 142 434 115 408 q 195 492 169 460 q 240 552 221 524 q 272 599 260 581 q 285 619 285 618 q 292 622 286 622 q 294 617 296 618 q 293 594 294 615 q 285 537 292 572 q 267 455 279 501 q 235 357 256 408 q 185 254 215 306 q 111 157 154 203 q 109 156 110 157 q 107 156 108 156 z "},"\u0000":{"ha":0,"x_min":0,"x_max":0,"o":""},"\r":{"ha":303,"x_min":0,"x_max":0,"o":""}," ":{"ha":303,"x_min":0,"x_max":0,"o":""},"e":{"ha":208,"x_min":0,"x_max":219,"o":"m 85 157 q 35 179 56 157 q 19 198 28 185 q 6 233 11 211 q 0 284 0 254 q 10 356 0 314 q 64 426 25 424 q 92 408 83 429 q 95 371 99 392 q 81 331 92 350 q 11 282 54 289 q 43 188 11 219 q 94 169 65 163 q 140 194 119 175 q 176 233 161 213 q 208 286 193 258 q 215 289 211 292 q 219 282 219 288 q 209 263 218 281 q 185 224 200 246 q 147 183 169 203 q 97 158 125 164 q 85 157 93 157 m 65 415 l 64 415 q 42 400 54 414 q 21 353 29 386 q 13 294 13 321 q 71 336 49 301 q 85 371 82 353 q 81 404 88 389 q 65 415 76 415 z "},"f":{"ha":407,"x_min":0,"x_max":419,"o":"m 417 293 q 417 286 419 289 q 354 260 397 267 q 258 254 311 254 l 224 254 q 228 196 226 225 q 233 139 231 167 q 245 -22 240 46 q 247 -111 250 -89 q 242 -117 247 -117 q 236 -111 236 -117 q 233 -19 238 -89 q 221 139 228 50 q 213 256 217 194 q 139 260 175 257 q 74 267 103 264 q 26 274 44 271 q 4 276 7 276 q 0 283 0 276 q 7 288 0 288 q 25 285 7 288 q 72 278 43 282 q 137 272 100 275 q 211 267 174 268 q 203 407 207 338 q 197 537 199 476 q 195 644 194 597 q 201 715 196 690 q 229 767 211 756 q 263 779 247 779 q 299 770 281 779 q 332 748 317 761 q 358 719 347 735 q 372 689 368 703 q 368 682 374 685 q 361 686 363 682 q 348 713 358 699 q 324 739 338 726 q 295 760 311 751 q 264 768 279 768 l 263 768 q 213 713 228 768 q 206 642 207 689 q 208 535 206 596 q 214 405 210 475 q 224 267 218 335 q 335 269 283 264 q 408 294 388 275 q 417 293 413 297 z "},"g":{"ha":308,"x_min":-4,"x_max":322,"o":"m 150 -453 l 146 -453 q 117 -417 126 -449 q 110 -336 107 -385 q 119 -249 111 -300 q 139 -137 126 -197 q 169 -12 151 -76 q 211 113 188 51 q 209 224 211 171 q 204 319 207 278 q 197 385 201 360 q 189 414 193 410 l 186 414 l 185 414 q 171 394 178 411 q 156 354 164 376 q 128 287 144 325 q 89 213 113 249 q 56 176 72 188 q 25 172 39 165 q 0 219 4 182 q 11 310 -4 257 q 28 354 18 338 q 50 380 39 371 q 71 392 61 389 q 88 396 81 396 q 118 388 104 397 q 138 364 132 379 q 135 357 140 360 q 128 360 131 354 q 88 385 118 385 q 49 363 67 382 q 22 307 32 343 q 11 222 7 254 q 29 183 15 189 q 79 218 50 174 q 118 292 103 254 q 144 358 133 329 q 163 405 156 388 q 181 425 171 422 q 194 424 188 428 q 206 395 201 419 q 215 333 211 371 q 219 244 218 294 q 221 139 221 194 q 263 222 240 183 q 310 293 285 261 q 318 294 314 297 q 319 286 322 290 q 266 205 290 250 q 222 110 242 160 q 220 -55 222 29 q 215 -210 218 -139 q 206 -333 211 -282 q 197 -399 201 -385 q 150 -453 181 -453 m 211 81 q 174 -37 190 22 q 147 -152 158 -97 q 129 -255 136 -207 q 121 -336 122 -303 q 127 -413 118 -387 q 147 -442 136 -439 q 167 -433 156 -444 q 186 -394 178 -422 q 197 -326 192 -375 q 205 -212 201 -278 q 210 -70 208 -146 q 211 81 211 6 z "},"h":{"ha":310,"x_min":-57,"x_max":318,"o":"m 21 125 q 14 140 15 125 q 7 222 13 164 q -7 352 1 279 q -24 503 -15 425 q -40 647 -32 582 q -52 756 -47 713 q -57 800 -57 799 q -53 807 -57 804 q -46 801 -46 807 q -42 767 -46 800 q -33 681 -39 733 q -19 563 -26 628 q -3 431 -11 497 q 10 303 4 364 q 21 199 17 242 q 29 333 25 267 q 41 456 33 400 q 58 548 49 511 q 82 593 68 585 q 99 592 90 597 q 130 538 118 581 q 153 440 142 496 q 168 373 160 407 q 186 310 176 339 q 208 263 196 282 q 236 240 219 244 q 307 283 264 232 q 314 285 310 289 q 315 276 318 281 q 233 229 268 219 q 201 253 214 233 q 177 301 188 272 q 158 366 167 331 q 142 438 150 401 q 132 486 138 463 q 120 530 126 510 q 108 564 114 550 q 93 582 101 578 q 88 583 92 583 q 72 554 79 578 q 59 496 65 531 q 49 419 53 461 q 41 336 44 378 q 35 258 38 294 q 32 196 33 221 q 29 155 31 169 q 27 134 28 140 q 25 126 26 128 q 21 125 24 125 z "},"i":{"ha":156,"x_min":-8,"x_max":167,"o":"m 69 113 q 44 124 56 113 q 19 172 28 139 q 4 246 10 206 q -3 328 -1 286 q -4 403 -4 369 q 1 408 -4 408 q 7 403 7 408 q 19 224 7 294 q 51 132 31 153 q 69 124 60 124 q 99 142 85 124 q 124 187 113 161 q 143 239 135 213 q 156 282 151 265 q 163 286 156 286 q 167 279 167 283 q 158 246 165 272 q 138 190 150 219 q 108 137 125 161 q 69 113 90 113 m 1 501 q -4 507 -4 501 q -6 524 -4 510 q -4 547 -8 538 q 4 550 -1 553 q 7 542 10 547 q 5 526 4 536 q 7 508 6 515 q 3 501 8 504 l 1 501 z "},"j":{"ha":81,"x_min":-42,"x_max":94,"o":"m 57 -542 q 36 -531 47 -542 q 5 -474 19 -515 q -15 -360 -10 -432 q -11 -182 -19 -287 q 26 67 -3 -76 q 12 195 19 133 q -3 307 4 257 q -15 392 -10 357 q -25 443 -21 428 q -21 450 -26 447 q -14 446 -17 451 q -5 400 -10 432 q 6 322 0 368 q 20 219 13 276 q 35 100 28 163 q 81 288 53 188 q 88 292 82 292 q 92 285 94 292 q 62 169 75 224 q 38 65 49 115 q 58 -124 49 -28 q 74 -300 68 -219 q 83 -439 81 -381 q 81 -515 85 -497 q 63 -540 76 -537 q 57 -542 61 -542 m 31 31 q -1 -199 6 -101 q -3 -365 -8 -297 q 15 -471 1 -432 q 43 -524 28 -510 q 60 -531 54 -532 q 69 -514 67 -528 q 72 -442 74 -496 q 64 -314 69 -389 q 49 -149 58 -239 q 31 31 40 -60 m -36 543 q -42 549 -42 543 l -42 582 q -36 588 -42 588 q -31 582 -31 588 l -31 549 q -36 543 -31 543 z "},"k":{"ha":269,"x_min":-37,"x_max":282,"o":"m 6 132 q 0 139 0 132 q 1 153 0 146 q 1 168 1 160 q 1 267 3 206 q -6 397 -1 328 q -15 535 -10 465 q -26 662 -21 606 q -34 754 -31 718 q -37 792 -37 790 q -32 799 -37 799 q -26 793 -26 799 q -24 767 -26 792 q -17 702 -21 743 q -10 608 -14 661 q -1 499 -6 556 q 6 385 3 442 q 11 278 10 328 q 13 292 13 285 q 14 306 14 299 q 13 319 13 311 q 14 324 13 322 q 17 326 14 324 q 63 515 38 494 q 90 510 76 524 q 106 483 103 496 q 92 409 113 451 q 28 321 72 367 q 27 313 28 317 q 26 306 26 310 q 42 269 31 290 q 71 226 54 247 q 108 189 88 206 q 150 168 128 172 q 269 288 221 156 q 276 290 269 293 q 279 283 282 288 q 247 213 264 239 q 212 174 229 188 q 178 157 194 160 q 149 157 163 154 q 108 174 128 161 q 73 206 89 188 q 44 244 57 224 q 24 281 32 264 q 18 220 21 253 q 13 150 15 188 q 13 140 13 147 q 6 132 13 132 m 68 507 q 62 497 65 504 q 53 472 58 490 q 42 422 49 454 q 31 340 36 390 q 87 424 74 388 q 94 481 100 460 q 85 499 92 490 q 68 507 78 507 z "},"l":{"ha":146,"x_min":-6,"x_max":157,"o":"m 44 60 q 15 140 25 74 q -1 307 4 207 q -6 533 -6 407 q -4 793 -6 658 q -3 843 -3 821 q -3 881 -3 865 q 3 886 -3 886 q 8 881 8 886 l 8 792 q 6 670 7 740 q 6 523 6 600 q 9 369 7 446 q 16 230 11 293 q 30 123 21 167 q 51 69 39 79 q 58 68 54 67 q 146 288 106 81 q 153 292 146 292 q 157 285 157 289 q 113 121 136 176 q 61 57 90 65 q 44 60 50 54 z "},"m":{"ha":525,"x_min":-25,"x_max":536,"o":"m 240 81 l 239 81 q 227 101 232 82 q 211 183 222 119 q 196 268 204 221 q 176 358 188 315 q 151 433 165 400 q 119 474 138 465 q 114 474 115 475 q 97 440 104 468 q 84 374 90 413 q 74 294 78 336 q 67 218 69 251 q 60 157 63 181 q 56 121 58 133 q 51 104 54 108 q 46 100 49 100 q 38 106 40 100 q 26 143 32 115 q 13 208 19 171 q 0 287 7 246 q -12 363 -7 328 q -20 423 -17 399 q -24 450 -24 447 q -19 457 -25 454 q -12 451 -15 457 q -1 365 -8 415 q 15 267 7 315 q 30 178 22 218 q 44 119 38 138 q 50 161 47 133 q 56 219 53 189 q 76 398 65 325 q 108 483 88 471 q 124 483 115 488 q 158 443 143 475 q 185 369 174 411 q 206 277 197 326 q 222 185 215 228 q 232 133 228 157 q 240 97 236 108 q 247 129 243 108 q 253 175 250 150 q 263 245 257 208 q 276 315 268 282 q 296 372 285 347 q 322 407 307 397 q 350 411 335 415 q 377 387 367 406 q 394 341 388 368 q 406 283 401 314 q 413 221 410 251 q 424 144 418 179 q 440 103 429 108 q 447 103 442 101 q 481 144 467 114 q 505 205 496 174 q 519 261 514 236 q 525 286 525 286 q 531 292 525 292 q 536 285 536 290 q 531 256 536 282 q 515 199 525 231 q 490 136 504 167 q 454 93 475 106 q 435 92 444 89 q 414 132 419 99 q 401 219 408 165 q 394 277 399 247 q 385 333 390 307 q 370 377 379 358 q 347 400 361 396 q 328 397 338 404 q 304 364 314 389 q 287 307 294 339 q 274 240 279 275 q 264 174 268 204 q 256 119 260 142 q 247 86 253 96 q 240 81 246 81 z "},"n":{"ha":293,"x_min":-10,"x_max":304,"o":"m 21 192 q 8 230 14 196 q -3 305 1 264 q -8 381 -7 346 q -10 419 -10 415 q -4 425 -10 425 q 1 419 1 425 q 2 379 0 408 q 8 316 4 350 q 15 251 11 282 q 24 207 19 219 q 28 221 26 213 q 32 239 29 229 q 43 287 36 260 q 60 336 50 314 q 85 372 71 358 q 119 382 100 386 q 151 353 138 378 q 178 296 164 328 q 205 240 190 267 q 236 213 219 213 q 256 221 247 213 q 273 241 265 229 q 285 265 281 253 q 293 285 290 278 q 300 289 294 289 q 304 282 304 286 q 299 267 304 281 q 286 240 294 254 q 265 213 278 225 q 238 200 253 200 l 236 200 q 198 228 214 200 q 167 292 182 256 q 143 344 156 319 q 117 371 131 368 q 90 360 101 374 q 69 326 78 347 q 53 281 60 306 q 43 236 47 257 q 35 203 38 213 q 28 190 32 193 q 21 192 22 190 z "},"o":{"ha":240,"x_min":-11,"x_max":254,"o":"m 64 129 q 36 149 47 132 q 19 190 25 167 q 13 240 14 214 q 13 288 11 267 q 8 292 10 290 q 3 296 6 293 q -7 326 -11 310 q 17 344 0 344 q 57 324 35 344 q 93 279 79 303 q 162 283 124 276 q 244 304 200 289 q 251 301 251 307 q 249 294 254 297 q 169 273 208 279 q 99 268 131 267 q 108 237 104 254 q 111 201 111 219 q 108 167 111 183 q 96 142 104 151 q 81 131 89 133 q 64 129 72 129 m 24 282 q 25 237 24 261 q 31 192 26 213 q 45 158 36 172 q 67 140 54 143 q 86 149 78 139 q 97 172 93 157 q 100 203 100 186 q 97 236 100 219 q 88 265 93 253 q 87 267 88 267 q 86 268 86 267 q 51 273 67 269 q 24 282 36 276 m 24 294 q 79 279 46 283 q 47 318 65 301 q 15 333 28 335 q 4 324 7 333 q 6 309 1 317 q 17 299 11 301 q 19 300 17 300 q 24 294 24 297 z "},"p":{"ha":319,"x_min":-14,"x_max":333,"o":"m 86 -285 q 82 -283 83 -285 q 77 -265 81 -282 q 70 -220 74 -247 q 63 -157 67 -193 q 56 -79 58 -121 q 36 53 46 -15 q 17 181 26 121 q 1 285 8 240 q -11 347 -7 331 q -7 354 -14 351 q 0 350 -3 354 q 8 308 3 338 q 19 238 13 278 q 33 150 25 199 q 47 51 40 101 q 48 159 46 103 q 57 268 50 215 q 77 366 64 321 q 113 443 90 411 q 160 481 139 478 q 193 479 182 485 q 237 419 221 467 q 243 310 253 372 q 326 289 293 313 q 328 281 333 286 q 321 279 325 278 q 242 299 289 301 q 238 283 239 288 q 208 211 228 244 q 166 154 189 178 q 121 118 143 131 q 85 110 99 106 q 68 122 76 111 q 68 168 60 133 q 108 245 78 211 q 183 296 139 279 q 232 308 208 307 q 227 413 242 367 q 188 469 213 458 q 122 436 157 483 q 81 338 94 399 q 61 208 67 278 q 58 64 56 138 q 65 -75 60 -10 q 80 -176 74 -128 q 90 -257 86 -224 q 92 -279 93 -275 q 89 -285 92 -283 l 86 -285 m 229 297 q 208 292 218 294 q 188 286 199 290 q 117 238 146 269 q 79 165 89 206 q 76 139 76 154 q 88 121 76 124 q 118 130 99 118 q 159 164 138 142 q 199 217 181 186 q 226 286 218 249 q 229 297 229 292 z "},"q":{"ha":315,"x_min":-10,"x_max":325,"o":"m 200 -306 q 183 -244 185 -300 q 185 -60 181 -189 q 185 30 188 -15 q 181 118 183 75 l 181 121 q 160 264 174 204 q 131 335 147 324 q 103 321 119 340 q 71 281 86 301 q 42 244 56 260 q 17 226 29 228 q 1 233 8 226 q -6 276 -10 249 q 6 308 -1 292 q 24 338 14 324 q 44 363 33 353 q 64 378 56 374 q 82 381 74 383 q 95 370 90 378 q 102 353 100 363 q 103 336 104 344 q 138 344 122 354 q 154 321 146 339 q 169 276 163 303 q 181 214 176 249 q 190 142 186 179 q 209 174 197 154 q 237 216 221 194 q 272 258 253 238 q 315 294 292 279 q 324 292 321 297 q 322 285 325 288 q 272 241 294 267 q 233 190 250 215 q 206 145 217 165 q 193 119 196 125 q 235 -26 222 43 q 250 -149 249 -94 q 243 -243 251 -204 q 221 -297 235 -282 q 210 -305 214 -304 q 200 -306 207 -306 m 194 81 q 198 9 197 44 q 196 -61 199 -26 q 194 -142 194 -101 q 193 -215 193 -182 q 196 -271 193 -249 q 204 -294 199 -293 q 213 -289 204 -297 q 231 -244 224 -276 q 239 -162 239 -211 q 228 -52 239 -114 q 194 81 218 10 m 68 368 q 52 356 61 365 q 33 333 43 346 q 16 304 24 319 q 6 275 8 289 q 5 252 3 265 q 15 239 7 239 q 37 254 24 239 q 63 288 50 269 q 77 308 69 299 q 92 325 85 318 l 92 329 q 90 358 93 342 q 68 368 86 375 z "},"r":{"ha":190,"x_min":-26,"x_max":200,"o":"m 33 79 q 23 147 29 106 q 10 236 17 189 q -2 331 4 283 q -14 418 -8 379 q -23 482 -19 457 q -26 507 -26 507 q -21 514 -26 514 q -15 508 -15 514 q -12 484 -15 507 q -3 425 -8 461 q 8 343 1 389 q 20 251 14 297 q 33 163 26 204 q 43 92 39 121 q 45 114 44 101 q 49 139 46 126 q 60 240 53 182 q 78 353 67 297 q 107 452 89 408 q 150 511 125 496 q 194 514 169 522 q 197 506 200 511 q 190 503 197 499 q 156 501 174 510 q 116 444 132 488 q 89 345 100 400 q 71 233 78 290 q 60 138 64 176 q 56 94 57 110 q 52 72 54 79 q 48 63 50 65 q 43 61 46 61 q 35 69 36 63 q 33 79 35 75 z "},"s":{"ha":228,"x_min":-11,"x_max":236,"o":"m 64 -171 q 56 -169 58 -171 q 35 -154 46 -167 q 19 -110 25 -142 q 25 6 11 -58 q 65 129 39 69 q 56 151 60 140 q 46 171 51 161 q 3 274 18 231 q 6 360 -11 317 q 13 364 7 364 q 17 356 17 361 q 15 276 1 317 q 56 176 28 236 l 72 143 q 154 264 108 221 q 232 299 197 304 q 236 292 236 296 q 229 288 233 286 q 161 256 197 292 q 117 201 139 233 q 78 129 96 169 q 119 32 100 86 q 131 -77 140 -26 q 99 -154 122 -128 q 64 -171 82 -171 m 72 115 q 35 0 47 60 q 31 -108 22 -60 q 58 -160 38 -153 q 90 -146 72 -164 q 121 -74 113 -122 q 108 28 129 -26 q 90 74 99 53 q 72 115 81 96 z "},"t":{"ha":122,"x_min":-310,"x_max":143,"o":"m 136 617 q 140 610 143 617 q 135 606 140 606 q 76 607 110 608 q 6 600 43 606 q 7 440 6 526 q 13 271 8 354 q 23 113 17 188 q 40 -15 29 38 q 36 -21 40 -21 q 35 -22 35 -21 q 29 -17 29 -22 q 12 111 18 36 q 1 269 6 186 q -4 438 -3 353 q -6 599 -6 524 q -109 582 -57 592 q -204 563 -161 572 q -274 547 -247 554 q -303 540 -301 540 l -304 540 q -310 544 -308 540 q -306 551 -310 549 q -274 558 -301 551 q -203 575 -246 565 q -108 594 -160 585 q -6 611 -56 604 q -5 744 -6 688 q -1 819 -4 800 q 4 825 -1 825 q 10 818 10 822 q 7 744 8 799 q 6 613 6 689 q 77 618 43 617 q 136 617 111 619 z "},"u":{"ha":361,"x_min":0,"x_max":340,"o":"m 85 133 q 64 138 72 133 q 30 170 44 146 q 8 229 15 194 q 0 307 0 264 q 13 394 0 350 q 19 399 15 400 q 24 392 24 399 q 12 309 13 350 q 18 235 11 268 q 39 178 25 201 q 69 147 53 156 q 146 190 106 131 q 186 284 175 235 q 201 363 197 333 q 206 389 204 382 q 214 397 207 396 q 222 391 219 397 q 232 363 225 385 l 239 342 q 256 284 247 314 q 276 229 265 254 q 297 186 286 204 q 318 164 307 168 q 331 164 322 161 q 338 163 336 167 q 336 154 340 157 q 313 153 325 149 q 289 176 300 158 q 267 219 278 193 q 247 276 257 244 q 228 339 238 307 l 222 358 q 218 370 219 365 q 215 378 217 375 q 214 370 214 375 q 213 361 214 365 q 197 280 208 331 q 154 183 185 229 q 117 143 135 153 q 85 133 99 133 z "},"v":{"ha":175,"x_min":-26,"x_max":156,"o":"m 94 26 q 85 30 89 26 q 81 36 82 33 q 56 87 68 53 q 31 163 43 121 q 8 249 18 204 q -10 335 -1 294 q -22 410 -18 376 q -26 460 -26 443 q -21 465 -26 465 q -15 460 -15 465 q -11 410 -15 443 q 1 338 -7 378 q 19 252 8 297 q 41 167 29 207 q 65 93 53 126 q 90 43 78 60 q 93 39 92 40 q 94 38 93 38 q 101 53 99 39 q 104 89 103 68 q 107 134 106 110 q 108 179 108 158 q 118 333 111 275 q 150 390 125 390 q 156 385 156 390 q 150 379 156 379 q 136 359 142 379 q 127 309 131 339 q 122 244 124 279 q 119 179 121 208 q 113 65 117 100 q 99 28 110 31 q 94 26 97 26 z "},"w":{"ha":407,"x_min":-12,"x_max":318,"o":"m 63 96 l 60 96 q 39 119 49 97 q 22 174 29 142 q 7 242 14 206 q -4 311 0 279 q -10 364 -8 343 q -12 386 -12 385 q -7 393 -12 392 q -1 388 -1 393 q 8 311 1 358 q 23 219 14 264 q 42 141 32 174 q 63 107 51 108 l 64 108 q 74 128 69 113 q 83 166 79 144 q 92 213 88 188 q 99 260 96 238 q 106 314 103 293 q 113 347 110 335 q 119 365 117 360 q 126 371 122 369 q 138 367 132 374 q 148 340 142 358 q 163 294 154 321 q 178 241 169 269 q 198 187 188 213 q 220 142 208 161 q 244 119 232 124 q 265 124 254 117 q 290 167 281 136 q 303 236 299 197 q 307 317 307 275 q 306 394 307 358 q 302 452 304 429 q 300 476 300 475 q 304 482 297 482 q 311 476 311 482 q 313 449 311 474 q 317 389 315 425 q 318 310 318 353 q 314 229 318 268 q 299 159 310 190 q 272 115 289 128 q 242 110 254 104 q 214 133 226 114 q 190 177 201 151 q 169 233 179 203 q 151 292 160 264 q 139 332 144 314 q 129 358 133 350 q 119 318 124 349 q 110 258 114 288 q 92 150 100 192 q 71 99 83 108 q 63 96 63 96 z "},"x":{"ha":236,"x_min":-112,"x_max":290,"o":"m 288 586 q 285 579 290 582 q 253 550 272 572 q 213 496 235 528 q 167 425 192 464 q 118 347 143 386 q 98 315 107 331 q 79 283 89 299 q 118 222 97 247 q 167 193 139 196 l 169 193 q 199 206 186 193 q 219 236 211 219 q 236 281 229 256 q 243 285 239 286 q 247 278 250 285 q 242 261 247 276 q 228 228 238 246 q 204 197 218 211 q 169 182 190 182 l 165 182 q 113 210 135 185 q 72 272 92 236 q -30 126 13 181 q -97 72 -72 72 q -106 74 -103 72 q -108 81 -112 74 q -101 83 -106 86 q -74 95 -92 79 q -33 140 -56 111 q 15 207 -11 169 q 65 285 40 244 q 42 335 54 307 q 29 360 35 347 q 18 385 24 372 q 19 392 15 390 q 28 389 25 394 q 40 365 35 378 q 51 339 46 353 q 62 317 57 328 q 72 296 67 307 q 91 324 82 311 q 108 353 100 338 q 160 434 135 394 q 207 506 185 474 q 248 560 229 539 q 281 589 267 582 q 288 586 285 592 z "},"y":{"ha":317,"x_min":-3,"x_max":326,"o":"m 133 -524 q 126 -522 128 -524 q 95 -496 107 -519 q 78 -441 83 -472 q 71 -377 72 -410 q 69 -322 69 -344 q 78 -196 71 -262 q 101 -62 86 -129 q 136 66 115 4 q 185 176 157 128 q 167 290 175 240 q 153 364 158 339 q 61 176 106 200 q 35 174 47 169 q 10 199 18 178 q 0 238 3 215 q -1 283 -3 260 q 6 329 1 307 q 19 368 11 351 q 26 371 22 374 q 29 364 32 368 q 11 279 14 328 q 19 203 8 231 q 38 185 29 186 q 56 186 44 181 q 72 202 63 190 q 94 237 82 214 q 119 297 106 260 q 147 389 132 333 q 153 393 149 393 q 158 389 158 393 q 170 333 160 388 q 193 193 181 278 q 252 265 221 238 q 319 297 283 292 q 326 292 326 297 q 321 285 326 286 q 253 251 285 281 q 196 176 222 222 q 215 15 207 101 q 224 -154 224 -71 q 208 -397 224 -310 q 163 -512 193 -485 q 133 -524 147 -524 m 188 160 q 143 51 163 111 q 110 -72 124 -8 q 90 -201 97 -136 q 82 -322 82 -265 q 92 -458 79 -407 q 128 -511 104 -508 q 154 -503 146 -514 q 213 -154 213 -456 q 205 6 213 -75 q 188 160 197 88 z "},"z":{"ha":447,"x_min":-3,"x_max":464,"o":"m 313 132 q 215 137 265 132 q 124 149 165 142 q 54 161 82 156 q 24 169 26 167 q 21 176 18 172 q 28 181 21 181 q 50 194 33 181 q 89 232 67 208 q 136 286 111 256 q 183 349 161 317 q 209 391 200 374 q 222 419 218 408 q 226 435 226 431 q 226 443 226 440 q 214 456 222 453 q 169 450 199 463 q 93 417 139 438 q 53 399 74 408 q 8 379 32 390 q 0 382 3 376 q 3 389 -3 386 q 48 409 26 400 q 88 428 69 418 q 169 463 138 451 q 218 467 200 474 q 236 446 233 460 q 192 342 246 421 q 156 294 176 319 q 115 244 136 268 q 75 202 94 221 q 42 175 56 183 q 90 165 58 171 q 163 153 122 158 q 247 145 203 149 q 331 143 290 142 q 403 151 371 144 q 453 172 436 157 q 461 172 456 175 q 460 164 464 167 q 401 139 440 146 q 313 132 361 132 z "},"d":{"ha":289,"x_min":-3,"x_max":301,"o":"m 293 -190 q 289 -189 290 -190 q 249 -108 267 -164 q 220 20 232 -53 q 200 178 208 93 q 186 345 192 263 q 178 503 181 428 q 175 631 176 578 q 160 522 169 582 q 139 404 151 461 q 112 302 126 347 q 79 240 97 257 q 45 221 60 221 q 24 225 31 221 q 0 276 3 238 q 14 364 -3 314 q 47 414 26 404 q 79 424 68 424 q 107 416 94 424 q 126 397 119 408 q 147 508 138 450 q 162 613 156 565 q 171 692 168 661 q 174 725 174 724 q 181 731 175 729 q 186 724 186 728 q 186 688 186 722 q 188 596 186 653 q 192 466 189 539 q 200 314 194 393 q 213 156 206 235 q 233 10 221 78 q 260 -108 244 -57 q 297 -181 276 -158 q 297 -189 301 -185 q 293 -190 296 -190 m 78 413 q 24 360 42 413 q 12 276 8 310 q 31 235 15 243 q 72 247 46 224 q 99 297 86 263 q 122 379 111 332 q 121 381 121 379 q 106 403 118 394 q 79 413 94 413 l 78 413 z "},"A":{"ha":1244,"x_min":-6,"x_max":1281,"o":"m 1278 -218 q 1275 -225 1281 -222 q 1206 -239 1239 -239 q 1121 -208 1158 -239 q 1057 -108 1081 -174 q 1023 44 1033 -42 q 1012 231 1013 131 q 1018 431 1011 331 q 893 441 960 438 q 756 446 826 444 q 658 303 710 376 q 549 149 607 229 q 413 -17 481 56 q 283 -138 346 -90 q 167 -207 221 -186 q 71 -218 113 -228 q 3 -133 14 -206 q 10 -26 -6 -83 q 54 84 25 32 q 121 176 83 136 q 196 231 158 217 q 300 193 263 254 q 299 185 303 188 q 290 186 296 183 q 200 219 257 240 q 129 168 165 207 q 65 78 93 129 q 22 -29 36 26 q 14 -132 7 -85 q 74 -207 25 -196 q 154 -199 106 -215 q 263 -138 203 -182 q 394 -22 324 -94 q 539 156 464 51 q 647 307 596 235 q 742 446 697 379 q 549 444 644 447 q 378 439 454 442 q 256 433 303 436 q 207 431 208 431 q 201 435 201 428 q 206 442 199 442 q 256 444 207 442 q 381 450 304 447 q 554 456 458 453 q 749 457 650 458 q 899 690 835 586 q 1007 868 964 794 q 1072 982 1050 942 q 1094 1024 1094 1022 q 1101 1026 1097 1029 q 1106 1021 1106 1026 q 1097 969 1106 1018 q 1076 838 1088 919 q 1051 653 1064 757 q 1032 440 1039 550 q 1033 438 1032 439 q 1033 435 1033 438 q 1031 432 1033 432 q 1024 233 1024 332 q 1034 49 1024 133 q 1067 -101 1044 -36 q 1128 -199 1089 -165 q 1271 -214 1185 -247 q 1278 -218 1275 -214 m 763 457 q 898 453 833 456 q 1019 443 963 450 q 1034 614 1025 531 q 1053 769 1043 697 q 1073 898 1064 842 q 1088 986 1082 954 q 978 794 1058 932 q 763 457 897 657 z "},"Z":{"ha":764,"x_min":-1,"x_max":824,"o":"m 821 -221 q 821 -229 824 -224 q 817 -231 819 -231 q 813 -229 814 -231 q 726 -169 781 -200 q 603 -111 672 -137 q 456 -67 535 -85 q 294 -49 376 -50 q 242 -119 269 -87 q 122 -212 176 -193 q 38 -218 68 -231 q 8 -196 18 -211 q 0 -161 -1 -181 q 26 -106 1 -135 q 110 -60 51 -78 q 288 -37 194 -37 q 385 131 336 33 q 476 336 433 228 q 399 322 439 329 q 324 306 360 314 q 258 292 288 299 q 213 279 229 285 l 210 279 q 206 283 206 279 q 208 290 203 288 q 255 302 225 294 q 322 317 285 310 q 401 333 360 325 q 482 349 443 342 q 544 525 517 436 q 589 695 572 614 q 610 846 606 776 q 601 964 614 915 q 529 1033 585 1033 l 528 1033 q 460 1014 497 1033 q 383 961 422 994 q 304 885 343 928 q 232 797 265 843 q 174 705 199 751 q 140 619 150 658 q 133 615 138 615 q 129 622 128 618 q 165 710 140 663 q 222 805 189 758 q 295 895 256 851 q 376 972 335 939 q 456 1026 417 1006 q 528 1046 494 1046 l 529 1046 q 576 1031 551 1046 q 613 967 600 1015 q 621 849 625 918 q 600 698 617 779 q 556 527 583 617 q 494 350 528 438 q 572 361 539 357 q 617 363 604 365 q 621 356 621 363 q 614 351 618 351 q 568 350 603 354 q 489 339 533 346 q 398 133 446 231 q 301 -37 350 35 q 463 -58 383 -40 q 612 -102 543 -75 q 735 -160 681 -129 q 821 -221 789 -192 m 232 -111 q 256 -82 244 -97 q 281 -49 268 -67 q 114 -71 193 -49 q 35 -112 58 -86 q 11 -161 13 -139 q 18 -189 10 -176 q 42 -208 26 -201 q 120 -201 69 -219 q 232 -111 171 -182 z "},"Y":{"ha":785,"x_min":-6,"x_max":724,"o":"m 719 971 q 724 965 724 971 q 722 917 724 964 q 715 794 721 871 q 699 617 710 717 q 672 407 689 517 q 631 186 656 297 q 571 -24 606 75 q 526 -126 549 -86 q 481 -188 503 -165 q 437 -220 458 -211 q 397 -229 415 -229 q 381 -228 386 -229 q 306 -184 340 -221 q 247 -95 272 -147 q 208 19 222 -43 q 196 139 194 81 q 201 144 196 144 q 207 139 207 144 q 220 17 206 78 q 260 -93 235 -43 q 317 -177 285 -143 q 383 -217 349 -211 q 478 -176 433 -226 q 560 -19 524 -126 q 627 227 600 96 q 672 483 654 358 q 697 715 689 608 q 710 886 706 821 q 684 763 700 836 q 647 608 668 690 q 599 444 625 526 q 542 292 572 361 q 479 174 513 222 q 410 113 446 125 q 365 117 385 101 q 333 171 344 131 q 317 268 322 211 q 311 394 311 325 q 311 538 311 464 q 310 671 311 604 q 306 796 310 738 q 294 901 303 854 q 269 978 286 949 q 192 1014 240 1033 q 142 975 168 1004 q 92 901 115 946 q 49 797 68 856 q 20 670 31 738 q 11 528 10 603 q 31 378 13 454 q 26 371 31 371 q 19 375 19 371 q 1 596 -6 486 q 35 795 8 706 q 104 947 63 885 q 189 1025 146 1008 q 279 983 244 1046 q 305 906 296 954 q 317 799 314 858 q 322 672 321 739 q 322 538 322 606 q 323 400 322 468 q 328 276 324 332 q 342 179 332 219 q 372 126 353 139 q 406 124 388 115 q 467 177 438 135 q 525 280 497 219 q 577 415 553 340 q 622 565 601 489 q 660 712 643 640 q 688 840 676 783 q 706 931 700 896 q 713 967 713 965 q 719 971 713 971 z "},"X":{"ha":906,"x_min":-3,"x_max":967,"o":"m 964 1026 q 961 1019 967 1022 q 885 949 929 1003 q 786 817 840 896 q 670 642 732 739 q 544 442 608 544 q 526 411 535 426 q 507 381 517 396 q 587 187 546 281 q 667 19 628 93 q 744 -100 707 -54 q 811 -149 781 -146 q 815 -156 817 -151 q 810 -161 815 -161 l 810 -160 q 740 -112 776 -157 q 663 6 703 -67 q 582 173 624 79 q 500 369 540 267 q 354 141 425 250 q 221 -51 283 32 q 107 -184 158 -135 q 19 -233 56 -233 q 4 -232 8 -233 q 0 -224 -3 -229 q 7 -221 3 -218 q 92 -184 39 -233 q 210 -48 144 -135 q 348 152 275 39 q 494 382 421 265 q 442 515 468 449 q 393 646 417 582 q 321 834 353 750 q 265 963 289 918 q 268 969 263 967 q 275 968 274 972 q 331 839 299 924 q 403 650 364 754 q 451 525 426 589 q 501 394 475 461 l 535 449 q 660 649 599 551 q 777 825 722 746 q 878 958 832 904 q 957 1029 924 1013 q 964 1026 961 1032 z "},"W":{"ha":808,"x_min":-3,"x_max":703,"o":"m 696 1015 q 700 1008 703 1013 q 690 878 693 971 q 685 669 686 786 q 681 501 683 589 q 676 324 679 413 q 666 153 672 236 q 649 -1 660 69 q 624 -126 639 -72 q 589 -210 610 -181 q 554 -233 574 -233 l 547 -233 q 500 -176 522 -228 q 458 -42 478 -125 q 419 151 439 42 q 382 385 400 261 q 358 532 369 467 q 339 621 347 597 q 336 626 336 626 q 324 588 331 619 q 308 510 317 556 q 292 408 300 464 q 276 297 285 351 q 250 117 263 199 q 226 -24 238 36 q 204 -119 215 -83 q 181 -162 193 -154 q 169 -164 175 -167 q 147 -139 160 -162 q 107 -24 129 -104 q 65 163 85 57 q 28 389 44 268 q 4 626 11 510 q 2 842 -3 742 q 29 1010 7 943 q 36 1014 29 1017 q 39 1007 42 1011 q 14 842 18 943 q 17 626 10 742 q 40 391 24 511 q 77 165 57 271 q 119 -20 97 60 q 158 -133 140 -100 q 168 -149 165 -146 q 172 -153 171 -153 l 175 -153 q 198 -101 186 -146 q 222 8 210 -57 q 244 149 233 72 q 265 299 256 226 q 290 461 279 396 q 308 565 300 526 q 322 621 315 604 q 336 639 329 638 q 346 633 343 639 q 350 625 349 628 q 369 537 358 600 q 393 386 379 474 q 413 260 401 328 q 435 127 424 193 q 460 -1 447 61 q 488 -110 474 -62 q 518 -188 503 -158 q 550 -222 533 -218 q 581 -203 564 -226 q 615 -121 600 -175 q 639 3 629 -67 q 655 156 649 74 q 665 326 661 239 q 670 501 668 414 q 674 669 672 589 q 679 882 676 792 q 689 1011 682 972 q 696 1015 690 1015 z "},"V":{"ha":771,"x_min":0,"x_max":775,"o":"m 340 -228 q 323 -176 340 -226 q 277 -39 306 -125 q 213 163 249 47 q 140 411 178 279 q 65 685 101 543 q 0 964 29 826 q 4 971 0 968 q 11 967 11 971 q 69 714 38 842 q 135 465 101 586 q 203 235 169 344 q 265 36 236 125 q 314 -115 293 -53 q 344 -206 335 -178 q 364 -117 350 -178 q 398 24 378 -57 q 444 201 418 106 q 499 395 469 296 q 560 592 528 494 q 626 772 592 689 q 695 917 660 854 q 765 1013 731 981 q 774 1013 769 1014 q 774 1004 775 1008 q 700 900 738 971 q 626 737 663 829 q 556 538 590 644 q 490 324 521 431 q 435 119 460 218 q 391 -56 410 21 q 362 -179 372 -132 q 351 -228 351 -226 q 346 -232 351 -232 q 340 -228 342 -232 z "},"U":{"ha":990,"x_min":-6,"x_max":954,"o":"m 950 -219 q 954 -226 954 -222 q 949 -231 951 -231 l 947 -231 q 890 -151 913 -221 q 856 22 868 -82 q 840 251 844 126 q 836 499 836 376 q 840 726 836 621 q 846 894 843 831 q 818 772 835 846 q 779 609 801 697 q 729 424 757 521 q 671 235 701 328 q 607 57 640 142 q 539 -92 574 -28 q 468 -193 504 -156 q 396 -231 432 -231 q 346 -208 367 -231 q 303 -110 317 -178 q 285 49 289 -42 q 283 245 281 139 q 290 460 286 351 q 297 627 294 546 q 299 777 300 708 q 291 898 297 846 q 269 978 285 950 q 192 1014 240 1033 q 142 975 168 1004 q 92 901 115 946 q 49 797 68 856 q 20 670 31 738 q 11 528 10 603 q 31 378 13 454 q 26 371 31 371 q 19 375 19 371 q 1 596 -6 486 q 35 795 8 706 q 104 947 63 885 q 189 1025 146 1008 q 279 983 244 1046 q 301 903 294 956 q 310 780 308 850 q 309 628 311 710 q 303 460 307 546 q 295 252 299 357 q 295 57 292 147 q 312 -102 299 -33 q 354 -200 325 -171 q 396 -219 371 -219 q 475 -169 435 -219 q 555 -35 515 -118 q 631 153 594 47 q 701 369 668 258 q 760 585 733 479 q 808 776 788 692 q 839 912 828 860 q 850 967 850 964 q 856 971 850 971 q 861 965 861 971 q 851 742 856 867 q 847 490 847 618 q 851 238 847 361 q 867 15 856 114 q 899 -148 879 -85 q 950 -219 919 -211 z "},"T":{"ha":811,"x_min":-1,"x_max":1307,"o":"m 1301 963 q 1307 957 1307 963 q 1300 951 1307 951 q 849 953 1060 967 q 469 914 638 939 q 469 737 467 831 q 476 546 471 643 q 490 352 482 449 q 508 167 499 256 q 525 4 517 79 q 540 -125 533 -71 q 549 -206 546 -175 q 544 -211 551 -211 l 543 -211 q 538 -207 538 -211 q 529 -126 535 -176 q 514 3 522 -72 q 497 165 506 78 q 479 349 488 253 q 465 544 471 446 q 458 735 460 642 q 458 913 456 829 q 272 880 356 897 q 131 848 189 863 q 40 824 72 833 q 7 814 8 814 l 6 813 q 0 817 4 813 q 0 822 -1 819 q 4 824 1 824 q 38 834 6 824 q 128 859 69 844 q 271 891 188 874 q 458 924 354 908 q 460 953 460 939 q 463 981 461 967 q 468 986 463 986 q 474 979 474 986 q 472 953 472 967 q 471 926 471 940 q 849 965 639 951 q 1301 963 1060 978 z "},"S":{"ha":628,"x_min":-4,"x_max":508,"o":"m 204 -231 q 155 -224 174 -231 q 124 -209 136 -218 q 108 -190 113 -200 q 101 -171 103 -179 q 110 -123 99 -149 q 142 -74 121 -97 q 192 -34 164 -51 q 250 -10 219 -17 q 257 -15 257 -10 q 253 -21 257 -21 q 194 -44 221 -28 q 149 -83 168 -61 q 119 -127 129 -104 q 113 -169 110 -150 q 148 -210 117 -197 q 232 -218 179 -222 q 306 -203 264 -215 q 386 -167 347 -192 q 453 -106 425 -143 q 489 -14 482 -68 q 481 83 496 40 q 435 163 465 126 q 363 231 404 199 q 278 297 322 264 q 182 370 231 332 q 94 455 133 408 q 28 560 54 501 q 0 692 3 618 q 37 877 -4 799 q 156 990 78 956 q 296 1006 224 1019 q 421 939 368 992 q 476 856 458 901 q 497 762 493 810 q 494 668 500 714 q 478 586 488 622 q 461 528 469 550 q 453 506 453 506 q 444 503 450 501 q 442 510 439 506 q 450 532 442 510 q 467 589 458 554 q 481 668 475 624 q 484 759 488 713 q 465 851 481 806 q 413 931 449 896 q 293 994 361 982 q 161 979 225 1007 q 47 872 86 947 q 11 692 8 796 q 38 564 14 619 q 101 463 63 508 q 188 379 140 417 q 285 306 236 342 q 372 239 331 272 q 445 168 414 206 q 492 85 476 131 q 501 -15 508 40 q 469 -103 494 -65 q 406 -168 443 -142 q 324 -210 368 -194 q 233 -229 279 -225 q 218 -231 225 -231 q 204 -231 211 -231 z "},"R":{"ha":892,"x_min":-3,"x_max":819,"o":"m 588 149 q 658 83 624 121 q 720 8 693 46 q 765 -62 747 -29 q 788 -114 783 -94 q 783 -121 788 -119 l 782 -121 q 776 -117 776 -121 q 754 -66 772 -99 q 709 3 736 -33 q 649 76 682 40 q 581 140 615 113 q 457 221 507 194 l 438 221 q 436 31 438 132 q 428 -185 435 -69 q 422 -190 428 -190 q 417 -183 417 -190 q 424 31 422 -69 q 426 221 426 132 q 413 221 419 221 q 400 222 407 221 q 351 236 369 228 q 329 254 332 244 q 333 267 326 263 q 365 268 342 271 q 425 250 388 265 q 409 616 422 488 q 396 746 396 744 q 396 751 394 749 q 400 753 397 753 q 407 747 406 753 q 421 617 407 746 q 438 244 435 488 q 448 239 443 242 q 460 233 453 236 q 578 277 519 240 q 685 379 636 314 q 749 487 721 426 q 791 612 776 547 q 803 742 806 676 q 776 864 801 807 q 542 1017 707 1024 q 385 973 465 1013 q 233 867 304 933 q 103 715 161 801 q 11 532 44 629 q 4 528 8 528 q 0 536 -3 531 q 94 724 35 636 q 226 878 153 813 q 381 984 299 944 q 542 1028 463 1024 q 688 990 625 1031 q 786 869 750 950 q 815 754 810 817 q 807 626 819 692 q 765 494 794 560 q 693 372 736 429 q 590 272 646 310 q 476 224 535 235 q 528 192 500 210 q 588 149 556 174 m 401 233 q 414 233 408 233 q 426 232 419 232 l 426 238 q 380 254 399 250 q 350 258 361 258 q 339 257 340 258 q 354 247 340 254 q 401 233 368 239 z "},"Q":{"ha":738,"x_min":-4,"x_max":731,"o":"m 728 -199 q 725 -206 731 -203 q 658 -219 697 -219 q 526 -192 604 -219 q 331 -117 447 -165 q 224 -191 278 -165 q 125 -219 171 -217 q 7 -146 39 -222 q 1 -92 -4 -119 q 26 -44 7 -64 q 83 -18 49 -21 q 158 -32 118 -15 q 213 -54 186 -43 q 264 -76 240 -65 q 296 -90 281 -83 q 326 -103 311 -96 q 455 58 393 -40 q 561 286 517 156 q 607 467 592 378 q 622 635 622 556 q 604 784 621 715 q 554 904 588 853 q 371 1019 488 1007 q 221 971 289 1029 q 111 796 153 913 q 67 606 79 708 q 67 408 56 504 q 113 233 79 313 q 207 114 147 154 q 332 114 274 69 q 383 172 360 135 q 425 255 407 210 q 456 349 443 300 q 475 444 468 399 q 482 526 482 489 q 475 583 482 563 q 478 592 474 589 q 485 588 485 592 q 492 527 492 565 q 487 442 493 489 q 467 346 481 396 q 435 249 454 296 q 392 165 417 203 q 339 104 368 126 q 201 104 274 56 q 104 226 140 146 q 56 405 68 307 q 56 607 44 503 q 100 800 67 711 q 215 981 144 921 q 372 1032 285 1040 q 564 910 494 1017 q 615 788 597 857 q 633 637 632 718 q 618 466 633 556 q 572 283 603 376 q 467 53 528 150 q 340 -108 407 -44 q 578 -197 490 -171 q 719 -196 667 -222 q 728 -199 726 -193 m 125 -207 q 217 -181 167 -206 q 318 -111 267 -157 q 290 -100 304 -106 q 260 -87 275 -94 q 208 -65 235 -76 q 154 -43 182 -54 q 94 -29 125 -29 q 33 -53 60 -29 q 13 -94 17 -69 q 18 -142 8 -118 q 60 -192 32 -175 q 125 -207 88 -210 z "},"P":{"ha":890,"x_min":108,"x_max":801,"o":"m 788 779 q 793 628 801 706 q 757 475 785 550 q 682 331 729 400 q 572 203 635 261 q 360 82 468 107 q 339 -62 351 -4 q 297 -180 324 -135 q 235 -236 271 -225 q 217 -239 229 -239 q 168 -218 189 -239 q 133 -159 147 -197 q 113 -67 118 -121 q 115 56 108 -12 q 146 207 122 125 q 153 211 149 213 q 157 204 157 208 q 124 -64 113 43 q 175 -210 136 -171 q 232 -226 203 -235 q 289 -172 264 -215 q 328 -60 314 -129 q 339 3 335 -32 q 349 79 343 39 q 316 74 332 76 q 285 72 300 72 q 247 75 265 72 q 210 82 228 78 q 206 90 206 83 q 213 93 208 96 q 349 92 281 75 q 362 253 357 165 q 369 434 367 340 q 370 622 371 528 q 365 801 369 715 q 371 807 365 807 q 376 801 376 807 q 381 623 381 717 q 380 437 382 529 q 373 256 378 344 q 361 94 368 168 q 565 211 463 119 q 660 321 615 257 q 737 458 706 385 q 780 614 768 532 q 776 778 792 696 q 706 939 757 879 q 583 1003 656 999 q 482 981 538 1006 q 369 898 426 957 q 256 742 311 839 q 157 503 201 646 q 150 500 154 497 q 146 502 147 500 q 146 507 144 504 q 248 750 192 651 q 363 908 304 849 q 478 992 421 967 q 583 1014 536 1017 q 714 948 660 1010 q 788 779 768 886 z "},"O":{"ha":647,"x_min":-1,"x_max":558,"o":"m 517 861 q 550 711 542 794 q 550 536 558 628 q 519 349 542 444 q 461 162 496 253 q 379 -12 426 71 q 275 -158 332 -94 q 158 -231 210 -231 q 118 -218 136 -231 q 39 -74 67 -186 q 10 203 11 38 q 12 283 10 243 q 17 361 14 322 q 1 487 4 422 q 5 615 -1 551 q 26 738 11 678 q 65 847 42 797 q 176 993 111 946 q 319 1031 242 1040 q 517 861 457 1015 m 265 -150 q 368 -5 321 -86 q 450 167 415 76 q 508 351 485 257 q 538 536 531 446 q 538 709 546 626 q 506 857 531 792 q 318 1019 449 1004 q 182 983 243 1028 q 76 843 121 938 q 40 744 56 797 q 18 633 25 690 q 12 517 11 576 q 21 401 13 458 q 53 605 32 510 q 107 771 75 700 q 158 858 131 825 q 215 910 186 892 q 273 931 244 928 q 326 928 301 935 q 382 897 356 919 q 428 838 408 875 q 456 751 447 801 q 457 639 465 701 q 451 635 457 632 q 446 640 446 635 q 445 749 453 701 q 419 832 438 797 q 376 888 401 867 q 324 917 350 910 q 275 919 301 922 q 221 899 249 915 q 167 850 193 882 q 118 767 140 818 q 60 579 82 685 q 28 363 38 474 q 74 224 43 288 q 154 114 106 160 q 156 106 158 108 q 147 106 150 100 q 73 203 103 147 q 25 325 43 260 q 23 146 19 233 q 39 -14 26 58 q 72 -137 51 -86 q 124 -208 93 -189 q 265 -150 182 -246 z "},"N":{"ha":878,"x_min":-3,"x_max":954,"o":"m 950 -110 q 951 -118 954 -114 q 940 -133 950 -119 q 915 -163 931 -147 q 878 -192 899 -179 q 838 -206 858 -206 q 811 -200 822 -206 q 736 -105 764 -175 q 692 63 708 -35 q 668 273 675 160 q 656 497 661 386 q 647 644 651 572 q 636 773 643 715 q 619 869 629 831 q 592 921 608 908 q 571 924 583 928 q 515 867 543 915 q 459 744 486 818 q 406 578 432 669 q 358 391 381 486 q 317 206 336 296 q 285 44 299 115 q 265 -71 272 -26 q 257 -117 257 -115 q 250 -121 257 -121 q 246 -114 246 -121 q 251 -72 246 -112 q 263 35 256 -32 q 277 188 269 101 q 292 369 285 274 q 303 560 299 464 q 306 744 307 657 q 299 901 306 831 q 278 1013 293 971 q 244 1056 265 1051 q 189 1019 221 1060 q 142 945 165 992 q 96 844 118 899 q 56 733 74 790 q 26 625 38 676 q 12 533 15 574 q 17 474 8 493 q 14 465 18 468 q 6 469 7 463 q 0 532 -3 490 q 15 626 3 574 q 44 735 26 678 q 85 848 63 793 q 131 950 107 903 q 181 1026 156 997 q 246 1067 215 1071 q 289 1017 271 1063 q 311 907 304 975 q 319 755 318 839 q 315 577 319 671 q 305 390 311 483 q 291 210 299 297 q 276 56 283 124 q 309 219 290 128 q 350 404 328 310 q 399 590 372 499 q 453 756 425 682 q 510 878 481 829 q 568 935 539 926 q 599 929 585 939 q 628 877 617 917 q 647 780 640 838 q 658 650 654 722 q 667 497 663 578 q 679 282 672 393 q 702 74 686 171 q 744 -94 718 -24 q 815 -189 771 -165 q 858 -190 836 -200 q 900 -162 881 -181 q 942 -112 922 -143 q 950 -110 944 -107 z "},"M":{"ha":1157,"x_min":-1,"x_max":1211,"o":"m 1206 -211 q 1211 -217 1211 -214 q 1206 -224 1211 -221 l 1200 -224 q 1157 -217 1185 -224 q 1099 -187 1129 -211 q 1038 -116 1068 -162 q 988 10 1008 -69 q 953 202 963 108 q 946 381 944 296 q 954 541 947 467 q 968 676 961 615 q 981 824 978 764 q 957 899 983 883 q 909 905 933 911 q 862 882 885 899 q 819 843 839 865 q 785 801 799 821 q 694 644 736 733 q 629 468 653 556 l 629 399 q 631 265 631 324 q 638 179 632 206 q 635 174 638 176 q 628 174 631 171 q 600 222 608 192 q 591 290 592 251 q 598 374 590 329 q 618 465 606 418 q 614 631 617 544 q 603 794 611 718 q 581 926 596 869 q 540 1001 565 982 q 507 1008 526 1013 q 467 969 485 1003 q 433 879 449 935 q 406 749 418 824 q 385 590 394 675 q 368 414 375 506 q 357 231 361 322 q 355 81 357 151 q 351 -45 353 10 q 347 -135 349 -100 q 344 -176 344 -171 q 339 -182 344 -182 q 333 -176 333 -182 q 334 -137 333 -169 q 335 -53 335 -104 q 338 66 336 -1 q 344 210 340 133 q 344 410 346 307 q 334 605 342 514 q 313 767 326 696 q 279 871 300 838 q 204 897 250 917 q 153 855 179 885 q 102 784 126 825 q 58 695 78 743 q 27 601 39 647 q 12 512 15 554 q 17 439 8 469 q 14 432 19 435 q 7 436 7 432 q 1 510 -1 467 q 17 602 4 554 q 49 699 29 650 q 94 791 69 749 q 147 864 119 833 q 200 907 174 894 q 243 913 219 915 q 289 876 267 911 q 318 800 306 850 q 338 685 331 750 q 350 545 346 621 q 356 390 354 469 q 376 612 364 503 q 407 809 389 721 q 449 954 425 897 q 504 1019 472 1011 q 547 1011 528 1026 q 588 940 572 992 q 613 817 604 888 q 624 665 621 747 q 629 503 628 583 q 694 669 656 588 q 776 808 733 750 q 876 904 828 879 q 963 908 924 929 q 992 831 994 890 q 979 675 990 771 q 965 541 972 615 q 957 382 958 467 q 965 203 956 297 q 999 13 974 110 q 1049 -113 1019 -68 q 1110 -181 1079 -158 q 1167 -208 1140 -203 q 1206 -211 1193 -212 m 618 424 q 601 292 601 351 q 624 197 601 232 q 619 281 621 229 q 618 399 618 332 l 618 424 z "},"B":{"ha":924,"x_min":0,"x_max":821,"o":"m 783 292 q 785 161 821 240 q 713 53 758 104 q 613 -41 668 1 q 495 -118 557 -83 q 372 -177 433 -153 q 253 -215 311 -201 q 151 -228 196 -228 l 147 -228 q 61 -194 79 -228 q 86 -107 44 -162 q 154 -42 111 -74 q 246 18 197 -10 q 246 328 250 193 q 235 557 242 464 q 224 699 229 650 q 218 749 218 747 q 222 756 215 756 q 229 751 226 756 q 240 652 229 749 q 257 372 250 556 q 309 411 271 382 q 394 483 347 440 q 491 580 442 526 q 577 692 540 633 q 631 813 614 751 q 629 933 647 875 q 576 1001 615 978 q 479 1024 538 1025 q 359 996 426 1022 q 225 912 292 969 q 101 764 158 854 q 11 544 44 674 q 4 540 8 539 q 0 547 0 542 q 92 771 33 679 q 219 921 151 863 q 355 1006 286 979 q 478 1035 424 1033 q 583 1011 540 1038 q 639 938 625 985 q 643 819 657 879 q 596 701 629 758 q 516 590 563 643 q 424 493 469 536 q 337 418 378 450 q 275 371 296 386 q 338 376 297 374 q 428 380 379 379 q 532 378 478 381 q 635 365 586 375 q 723 338 683 356 q 783 292 763 321 m 774 165 q 775 285 808 238 q 709 331 753 314 q 611 358 665 349 q 499 368 557 367 q 390 367 440 369 q 303 362 339 365 q 257 357 267 358 q 260 203 260 286 q 258 25 261 121 q 337 61 297 46 q 412 85 376 76 q 474 93 447 93 q 517 82 501 93 q 518 74 521 79 q 510 72 514 69 q 470 81 497 82 q 409 72 443 81 q 335 49 375 64 q 257 13 296 33 q 254 -83 256 -35 q 250 -183 253 -132 q 244 -189 250 -189 q 239 -183 239 -189 q 243 -86 242 -133 q 246 6 244 -39 q 160 -50 200 -19 q 96 -112 119 -81 q 71 -189 58 -162 q 151 -215 86 -218 q 244 -203 190 -215 q 358 -167 299 -190 q 481 -111 418 -144 q 599 -36 543 -78 q 701 56 656 6 q 774 165 746 107 z "},"C":{"ha":747,"x_min":-4,"x_max":747,"o":"m 744 985 q 742 978 747 981 q 677 947 706 967 q 626 904 649 928 q 633 781 642 846 q 592 663 625 715 q 561 642 576 638 q 539 700 542 647 q 555 801 538 744 q 614 906 572 857 q 565 990 599 958 q 476 1017 528 1025 q 361 960 424 1008 q 234 821 292 906 q 132 637 176 736 q 58 430 88 538 q 18 220 29 322 q 14 31 7 118 q 49 -117 21 -57 q 231 -207 106 -235 q 302 -178 264 -200 q 378 -124 340 -157 q 452 -51 417 -92 q 515 35 488 -11 q 576 170 560 106 q 581 285 593 235 q 585 292 581 292 q 592 288 592 294 q 588 168 606 235 q 525 29 571 101 q 460 -58 496 -17 q 385 -133 424 -100 q 307 -189 346 -167 q 233 -218 268 -211 q 188 -224 211 -224 q 39 -121 88 -224 q 3 28 10 -61 q 7 219 -4 117 q 48 431 18 322 q 122 642 78 540 q 225 828 167 743 q 354 969 283 914 q 433 1017 397 1004 q 495 1029 468 1029 q 542 1019 522 1029 q 574 999 561 1010 q 624 917 607 968 q 674 959 646 940 q 738 989 701 978 q 744 985 744 992 m 582 668 q 621 778 613 717 q 617 893 629 839 q 565 794 581 846 q 550 701 550 742 q 556 667 551 679 q 564 653 560 656 q 582 668 572 653 z "},"D":{"ha":951,"x_min":-1,"x_max":840,"o":"m 788 872 q 833 708 825 794 q 824 531 840 621 q 773 351 808 440 q 691 178 738 261 q 590 24 644 96 q 481 -103 535 -49 q 324 -227 400 -185 q 186 -269 249 -269 q 124 -256 150 -269 q 89 -107 56 -221 q 156 31 108 -44 q 265 168 203 106 q 261 415 265 307 q 251 597 257 522 q 240 709 244 671 q 235 749 235 747 q 239 756 235 756 q 246 751 246 756 q 251 712 246 750 q 261 601 256 674 q 272 422 267 528 q 276 179 276 317 q 394 266 335 233 q 506 292 453 299 q 510 286 510 292 q 503 281 510 281 q 393 253 453 288 q 276 164 333 219 q 268 -183 276 8 q 261 -189 267 -187 q 256 -183 256 -189 q 263 -7 261 -90 q 265 153 265 76 q 163 21 207 92 q 99 -111 118 -50 q 90 -149 93 -129 q 90 -187 88 -168 q 101 -221 92 -206 q 129 -246 110 -236 q 281 -235 190 -275 q 472 -94 372 -196 q 581 31 526 -40 q 681 183 635 101 q 763 353 728 265 q 813 531 797 442 q 822 706 829 619 q 778 868 815 792 q 677 985 739 947 q 532 1017 615 1022 q 377 972 456 1013 q 228 867 299 932 q 101 717 157 803 q 11 535 44 631 q 4 531 8 529 q 0 538 -1 533 q 91 723 33 636 q 221 876 149 810 q 374 983 293 943 q 532 1028 454 1024 q 683 994 617 1033 q 788 872 749 954 z "},"E":{"ha":700,"x_min":-18,"x_max":753,"o":"m 710 -107 q 732 -197 753 -164 q 622 -236 710 -236 q 600 -236 611 -236 q 576 -233 589 -236 q 419 -196 506 -225 q 251 -117 332 -167 q 104 2 169 -68 q 11 161 39 72 q 32 319 -18 263 q 113 371 63 354 q 217 392 163 388 q 322 395 271 397 q 401 389 372 393 q 339 433 378 403 q 261 509 300 463 q 190 618 222 556 q 144 763 157 681 q 155 889 133 832 q 225 982 176 946 q 333 1024 272 1018 q 449 1004 394 1031 q 494 976 469 994 q 542 924 519 957 q 582 843 565 892 q 603 726 599 794 q 597 719 603 719 q 592 725 592 719 q 572 839 588 792 q 533 917 556 886 q 487 967 511 949 q 444 994 463 985 q 334 1013 392 1018 q 232 974 276 1007 q 165 884 185 938 q 156 764 144 831 q 215 594 171 665 q 308 476 260 522 q 393 407 356 429 q 432 385 431 385 q 435 378 438 382 q 429 374 432 374 q 405 376 428 374 q 347 382 382 379 q 268 384 311 385 q 182 376 225 383 q 101 354 139 369 q 40 313 64 339 q 22 165 -7 257 q 114 9 49 78 q 260 -108 179 -60 q 425 -186 340 -157 q 578 -222 510 -215 q 673 -221 635 -229 q 722 -192 711 -212 q 700 -112 739 -164 q 606 -29 667 -69 q 482 39 546 11 q 363 77 418 67 q 286 72 307 88 q 278 74 282 69 q 279 82 275 79 q 328 93 296 94 q 401 81 361 92 q 487 49 442 69 q 574 4 532 29 q 652 -49 617 -21 q 710 -107 688 -78 z "},"F":{"ha":618,"x_min":0,"x_max":751,"o":"m 749 1035 q 746 1026 751 1029 q 633 992 711 1010 q 459 960 554 975 q 269 932 364 944 q 106 911 174 919 q 115 837 110 886 q 127 720 121 788 q 140 568 133 653 q 151 388 146 483 q 233 390 189 389 q 324 394 278 392 q 413 399 369 396 q 490 407 456 403 q 496 401 496 407 q 492 394 496 396 q 414 388 457 390 q 325 383 371 385 q 235 379 279 381 q 153 376 190 378 q 162 70 160 232 q 156 -260 164 -92 q 150 -265 156 -265 q 144 -258 144 -265 q 151 70 153 -92 q 140 376 149 232 q 73 375 99 375 q 46 375 47 375 q 40 381 40 375 q 46 386 40 386 q 73 386 47 386 q 140 388 99 386 q 128 567 135 483 q 115 719 122 651 q 103 836 108 788 q 94 910 97 885 q 34 903 57 906 q 7 900 11 901 l 6 900 q 0 906 0 900 q 6 911 0 911 q 30 914 7 911 q 93 921 53 917 q 92 931 92 925 l 92 935 q 96 942 92 939 q 103 936 103 942 l 103 932 q 103 927 103 929 q 104 922 104 925 q 267 943 172 931 q 457 971 363 956 q 629 1003 551 986 q 740 1038 707 1021 q 749 1035 744 1039 z "},"G":{"ha":631,"x_min":3,"x_max":650,"o":"m 650 985 q 646 978 650 979 q 579 945 608 965 q 528 899 550 925 q 535 776 542 840 q 496 663 528 711 q 465 643 482 639 q 450 661 456 646 q 444 700 444 676 q 459 799 443 743 q 515 903 475 854 q 492 961 507 935 q 456 1006 478 988 q 369 1024 418 1036 q 267 960 319 1013 q 173 833 214 907 q 103 675 132 760 q 59 501 75 590 q 40 332 43 413 q 45 184 36 251 q 76 75 54 117 q 171 19 111 10 q 244 52 207 26 q 315 114 281 78 q 380 191 350 150 q 433 270 410 232 q 473 338 457 308 q 493 382 489 368 q 499 386 493 386 q 503 379 506 383 q 497 350 503 378 q 478 277 490 322 q 449 173 467 232 q 407 52 431 114 q 353 -72 383 -10 q 286 -186 322 -135 q 217 -258 254 -233 q 146 -283 181 -283 q 133 -283 139 -283 q 121 -281 128 -283 q 38 -190 68 -265 q 3 13 8 -114 q 8 18 3 18 q 15 13 15 18 q 48 -181 19 -108 q 125 -269 76 -254 q 201 -257 161 -281 q 278 -181 242 -233 q 353 -48 319 -121 q 411 96 386 25 q 453 228 436 167 q 481 331 471 290 q 428 242 461 293 q 355 142 396 190 q 267 56 314 93 q 172 8 219 18 q 67 69 106 -4 q 35 180 44 111 q 29 331 26 249 q 48 503 32 413 q 92 678 64 593 q 163 840 121 764 q 258 968 204 915 q 329 1022 297 1006 q 387 1039 361 1038 q 431 1032 413 1040 q 463 1014 450 1024 q 500 970 485 996 q 524 913 515 944 q 576 956 547 936 q 642 989 606 976 q 650 985 647 989 m 486 668 q 523 774 515 714 q 519 889 531 833 q 469 792 483 843 q 456 701 454 740 q 469 653 456 658 q 486 668 478 653 z "},"H":{"ha":950,"x_min":1,"x_max":851,"o":"m 849 446 q 844 440 851 440 q 820 435 843 439 q 753 424 797 432 q 768 223 760 322 q 783 31 776 124 q 795 -104 790 -40 q 803 -222 800 -168 q 797 -229 803 -229 q 792 -224 792 -229 q 783 -105 789 -169 q 772 31 778 -40 q 756 221 764 122 q 742 421 749 319 q 578 388 676 408 q 354 336 479 367 q 328 94 346 204 q 285 -82 311 -15 q 161 -229 226 -229 l 153 -229 q 94 -190 121 -225 q 49 -107 68 -154 q 17 -9 29 -60 q 1 79 6 42 q 7 85 1 85 q 13 81 13 88 q 30 -13 17 38 q 62 -108 43 -64 q 104 -182 81 -151 q 154 -217 128 -212 q 275 -78 217 -225 q 317 95 300 -12 q 343 333 335 203 q 216 301 281 318 q 81 265 151 285 l 79 265 q 74 269 75 265 q 74 274 72 272 q 78 276 75 276 q 215 313 149 296 q 344 346 282 331 q 352 518 350 429 q 353 693 354 607 q 347 862 351 779 q 335 1015 343 944 q 340 1022 335 1021 q 346 1017 346 1022 q 358 864 354 946 q 364 695 363 782 q 363 520 365 608 q 356 349 361 432 q 578 399 479 378 q 742 432 676 419 q 728 754 731 596 q 742 1043 726 913 q 749 1047 742 1050 q 753 1042 753 1047 q 740 755 739 911 q 753 435 742 599 q 843 451 838 451 q 849 446 849 451 z "},"I":{"ha":932,"x_min":0,"x_max":933,"o":"m 926 935 q 931 928 933 935 q 881 906 928 913 q 758 900 833 900 q 665 902 714 900 q 564 907 617 904 q 570 796 567 865 q 576 638 574 726 q 580 447 579 549 q 578 242 581 346 q 568 35 575 138 q 549 -156 561 -67 q 683 -138 619 -147 q 794 -120 746 -129 q 872 -102 843 -111 q 904 -86 901 -93 q 911 -82 907 -81 q 915 -87 918 -82 q 883 -109 914 -99 q 803 -129 853 -119 q 686 -149 753 -139 q 547 -167 619 -158 q 546 -176 546 -171 q 540 -181 543 -181 l 539 -181 q 533 -174 533 -181 q 535 -168 535 -172 q 405 -181 471 -175 q 277 -192 339 -187 q 159 -199 215 -196 q 60 -201 103 -201 q 31 -201 44 -201 q 6 -200 17 -201 q 0 -194 0 -200 q 6 -189 0 -189 q 110 -190 49 -192 q 242 -183 171 -187 q 388 -172 313 -179 q 536 -157 464 -165 q 557 34 550 -68 q 567 241 564 136 q 569 448 569 346 q 565 638 568 550 q 559 797 563 726 q 553 907 556 867 q 399 917 476 911 q 253 930 321 924 q 131 942 185 936 q 50 950 78 947 q 44 956 44 950 q 50 961 44 961 q 551 919 353 929 q 550 934 550 928 q 550 944 550 940 q 549 954 550 950 q 554 961 549 961 q 561 956 558 961 q 561 945 561 954 q 563 918 561 936 q 826 913 736 908 q 919 931 917 917 q 926 935 922 936 z "},"J":{"ha":651,"x_min":0,"x_max":564,"o":"m 528 415 q 556 369 547 397 q 561 305 564 340 q 544 230 558 269 q 506 150 531 190 q 497 149 501 146 q 496 157 490 151 q 551 303 544 233 q 519 407 557 372 q 447 429 493 432 q 432 281 443 354 q 403 140 421 207 q 364 14 386 72 q 315 -90 342 -44 q 147 -229 242 -218 q 133 -231 142 -231 q 44 -168 71 -231 q 34 -51 26 -121 q 72 94 42 19 q 154 241 103 169 q 275 363 206 313 q 436 440 365 429 q 427 687 443 567 q 369 904 411 807 q 238 1019 315 1032 q 161 973 200 1013 q 91 877 122 933 q 38 755 60 821 q 11 631 15 689 q 6 625 11 625 q 0 632 0 625 q 25 752 4 686 q 78 878 46 818 q 151 981 110 938 q 236 1031 192 1024 q 381 908 322 1046 q 438 689 422 811 q 447 440 454 567 q 528 415 496 444 m 306 -85 q 354 17 332 -40 q 393 142 376 75 q 421 281 410 208 q 436 428 432 353 q 282 354 368 417 q 165 234 215 304 q 83 91 114 164 q 45 -50 53 18 q 56 -164 38 -118 q 146 -218 79 -226 q 230 -180 190 -214 q 306 -85 269 -146 z "},"K":{"ha":846,"x_min":-3,"x_max":981,"o":"m 974 -168 q 974 -175 981 -172 q 861 -231 924 -231 q 847 -231 854 -231 q 833 -228 840 -231 q 733 -181 783 -219 q 635 -90 683 -143 q 542 27 586 -36 q 461 150 497 90 q 399 260 425 210 q 360 338 372 310 q 334 96 353 206 q 285 -79 315 -14 q 244 -150 264 -122 q 207 -194 225 -178 q 173 -216 189 -210 q 143 -222 157 -222 q 125 -219 136 -222 q 69 -178 93 -211 q 28 -100 44 -144 q 4 -6 11 -56 q 1 83 -3 43 q 7 88 1 90 q 13 82 13 88 q 16 -8 8 40 q 40 -98 24 -56 q 78 -171 56 -140 q 128 -208 100 -201 q 201 -185 164 -219 q 274 -74 238 -150 q 313 52 297 -25 q 339 223 329 129 q 352 422 349 317 q 355 631 356 526 q 348 835 354 736 q 333 1018 342 935 q 339 1025 333 1022 q 346 1019 343 1025 q 358 872 353 951 q 365 709 363 793 q 366 538 367 625 q 361 368 365 451 q 476 440 418 388 q 586 562 533 493 q 685 708 639 631 q 766 853 732 785 q 819 974 800 922 q 839 1044 839 1025 q 844 1050 839 1050 q 850 1044 850 1050 q 831 974 850 1026 q 777 853 811 922 q 697 705 743 783 q 597 556 651 626 q 483 431 543 485 q 364 357 424 378 q 396 292 372 339 q 455 183 419 244 q 535 56 490 122 q 630 -68 581 -11 q 732 -166 679 -125 q 836 -217 785 -207 q 965 -168 908 -231 q 974 -168 969 -164 z "},"L":{"ha":632,"x_min":0,"x_max":883,"o":"m 879 -137 q 879 -146 883 -142 q 871 -144 875 -149 q 769 -86 840 -108 q 606 -55 697 -64 q 415 -49 514 -46 q 232 -67 317 -51 q 167 -181 213 -144 q 79 -221 122 -217 q 65 -222 74 -222 q 24 -214 42 -222 q 1 -190 7 -206 q 0 -176 0 -185 q 6 -158 0 -168 q 24 -135 11 -147 q 60 -110 36 -124 q 128 -81 88 -93 q 222 -58 169 -68 q 228 -25 225 -44 q 233 92 233 25 q 229 237 233 160 q 219 397 225 314 q 206 561 213 481 q 204 558 204 561 q 196 556 201 553 q 193 564 190 558 q 198 574 196 569 q 203 585 200 579 l 203 592 q 181 903 186 792 q 194 1031 175 1014 q 226 1031 210 1044 q 256 976 243 1018 q 272 873 269 933 q 263 737 275 813 q 215 582 250 661 q 228 413 222 499 q 239 247 235 328 q 244 96 243 167 q 239 -26 244 25 q 235 -56 236 -43 q 418 -38 319 -42 q 608 -44 517 -35 q 774 -76 700 -54 q 879 -137 847 -99 m 203 1022 q 192 977 194 1015 q 192 881 190 939 q 200 752 194 824 q 213 607 206 681 q 253 751 243 682 q 261 877 264 821 q 247 972 258 933 q 219 1022 235 1010 q 211 1025 214 1025 q 203 1022 208 1025 m 78 -210 q 159 -173 118 -206 q 219 -68 200 -140 q 132 -90 171 -78 q 65 -119 93 -103 q 22 -153 36 -136 q 13 -186 7 -171 q 35 -206 17 -199 q 78 -210 54 -212 z "},"":{"ha":238,"x_min":-11,"x_max":250,"o":"m 167 172 q 165 173 165 172 q 163 174 164 174 q 140 191 147 175 q 129 228 132 207 q 127 272 126 249 q 129 311 128 294 q 106 279 119 297 q 76 245 92 261 q 44 219 60 229 q 18 211 29 208 q -4 239 1 215 q 6 301 -11 272 q 44 349 22 331 q 90 372 67 367 q 129 371 113 378 q 132 363 135 368 q 125 360 132 356 q 90 360 110 367 q 51 339 71 354 q 17 297 32 324 q 7 242 1 271 q 19 222 11 225 q 44 232 29 221 q 74 260 58 243 q 106 298 90 278 q 133 336 122 318 q 140 338 136 339 q 143 332 146 338 q 139 286 140 311 q 140 240 138 261 q 147 202 142 218 q 164 185 153 186 q 192 201 174 182 q 238 288 210 221 q 244 290 240 293 q 247 283 250 288 q 167 172 200 172 z "},"":{"ha":222,"x_min":-14,"x_max":233,"o":"m 226 290 q 231 285 233 290 q 225 279 231 279 q 195 283 215 282 q 151 278 175 283 q 142 240 147 258 q 129 203 136 221 q 90 134 110 158 q 54 110 69 110 q 46 111 49 110 q 29 144 31 118 q 42 207 28 171 q 83 262 56 243 q 142 288 111 281 q 145 357 149 325 q 128 406 142 389 q 96 418 115 422 q 62 385 75 415 q 41 317 49 356 q 31 238 33 278 q 26 174 28 197 q 23 142 24 146 q 17 138 22 138 q 10 150 10 138 q 6 208 8 165 q 0 305 3 250 q -6 423 -3 360 q -10 543 -8 486 q -12 646 -11 600 q -14 713 -14 692 q -7 718 -14 718 q -1 713 -1 718 q 0 622 -1 686 q 4 481 1 557 q 10 328 7 404 q 17 203 14 253 q 25 284 19 244 q 39 355 31 324 q 61 406 47 386 q 94 429 75 426 q 138 413 121 433 q 155 362 151 394 q 153 290 158 329 q 197 294 176 294 q 226 290 217 293 m 118 207 q 139 275 132 239 q 88 251 113 268 q 51 203 64 235 q 41 147 39 168 q 50 122 43 125 q 75 135 57 119 q 118 207 93 150 z "},"":{"ha":142,"x_min":0,"x_max":156,"o":"m 61 197 q 51 199 54 197 q 13 227 26 203 q 0 290 0 251 q 13 347 0 322 q 46 383 25 372 q 106 383 75 400 q 107 375 110 381 q 100 374 104 369 q 51 374 75 386 q 22 340 33 363 q 11 290 11 318 q 22 234 11 256 q 53 210 33 213 q 100 226 74 206 q 142 290 126 246 q 150 293 144 294 q 153 286 156 290 q 113 222 138 246 q 61 197 89 197 z "},"":{"ha":289,"x_min":-11,"x_max":267,"o":"m 256 -54 q 235 92 243 10 q 223 263 228 175 q 216 437 218 350 q 213 597 214 524 q 206 545 210 572 q 194 488 201 518 q 167 385 183 433 q 132 297 151 336 q 91 233 113 258 q 49 200 69 208 q 4 206 22 192 q -11 240 -11 217 q 3 293 -11 263 q 25 333 11 314 q 55 366 39 351 q 88 388 71 381 q 122 393 106 396 q 126 388 129 393 q 121 382 126 382 q 92 377 107 385 q 62 356 76 369 q 34 325 47 343 q 13 288 21 307 q 1 243 1 263 q 11 215 0 224 q 44 211 25 203 q 119 296 79 224 q 183 490 160 368 q 203 619 197 561 q 211 721 210 678 q 212 785 211 761 q 213 810 213 808 q 218 815 213 815 q 224 810 224 815 l 224 786 l 224 721 q 225 556 224 656 q 231 348 226 457 q 243 133 235 239 q 267 -53 251 26 q 261 -60 267 -58 q 258 -58 260 -60 q 256 -54 256 -56 z "},"":{"ha":208,"x_min":-28,"x_max":181,"o":"m 42 167 q 10 226 22 188 q -4 314 -1 265 q -13 313 -8 314 q -22 313 -18 313 q -28 319 -28 314 q -22 325 -28 325 l -4 325 q -3 365 -4 344 q 0 408 -3 386 q 32 497 7 467 q 85 532 57 528 q 142 499 126 536 q 143 451 150 479 q 117 394 136 422 q 71 347 99 369 q 8 317 43 324 q 21 231 11 268 q 50 175 31 194 q 101 160 69 153 q 142 183 125 164 q 169 229 160 201 q 176 233 172 235 q 181 226 181 231 q 149 174 169 194 q 104 149 129 154 q 42 167 67 140 m 88 521 q 40 489 63 517 q 11 407 18 461 q 7 328 7 365 q 65 356 39 335 q 107 401 92 378 q 131 452 125 426 q 131 494 138 478 q 113 515 125 510 q 88 521 101 521 z "},"":{"ha":194,"x_min":-47,"x_max":204,"o":"m 204 288 q 200 281 204 281 q 156 269 179 272 q 110 265 133 265 q 58 269 83 265 q 13 276 33 272 q 17 211 15 243 q 22 147 19 179 q 34 -13 29 54 q 36 -103 39 -81 q 31 -108 36 -108 q 25 -103 25 -108 q 25 -68 26 -92 q 22 -11 24 -44 q 17 62 19 22 q 11 146 14 101 q 6 212 8 178 q 1 279 4 246 q -22 285 -10 282 q -44 293 -33 289 q -47 297 -47 293 q -42 304 -47 304 q -24 306 -35 304 q -1 315 -14 308 q -10 445 -6 382 q -15 563 -14 508 q -15 658 -17 617 q -8 722 -14 700 q 13 768 0 760 q 33 775 26 776 q 63 752 49 772 q 88 700 78 732 q 101 626 97 668 q 101 538 106 583 q 86 446 96 485 q 64 380 76 407 q 38 336 51 353 q 10 310 24 319 q 11 289 11 303 q 100 277 49 281 q 196 290 151 274 q 204 288 201 293 m 3 719 q -4 658 -3 699 q -4 563 -6 617 q 1 448 -3 510 q 10 322 6 386 q 56 391 33 342 q 90 539 79 440 q 91 624 94 585 q 78 694 88 664 q 56 743 68 725 q 32 764 44 761 l 31 764 q 3 719 11 764 m -17 296 q 0 292 -11 293 q -1 303 0 299 q -17 296 -12 297 z "},"":{"ha":308,"x_min":-844,"x_max":490,"o":"m 486 -4 q 490 -11 490 -4 q 483 -14 488 -17 q 344 16 415 6 q 200 32 274 26 q 198 -26 199 4 q 196 -86 197 -56 q 190 -237 192 -171 q 189 -332 188 -304 q 183 -339 189 -339 q 178 -333 178 -339 q 178 -238 175 -306 q 185 -86 181 -171 q 187 -29 186 -58 q 189 32 188 0 q -57 30 67 39 q -293 3 -181 21 q -503 -37 -406 -15 q -674 -80 -601 -60 q -790 -114 -747 -100 q -833 -128 -832 -128 l -835 -128 q -840 -125 -837 -128 q -836 -118 -844 -118 q -792 -103 -835 -117 q -678 -69 -750 -89 q -507 -26 -606 -49 q -295 14 -408 -4 q -58 41 -182 32 q 189 43 65 50 q 192 169 190 106 q 194 284 194 232 q 190 369 193 336 q 181 407 188 403 q 178 408 179 408 q 163 388 171 406 q 147 349 156 371 q 121 281 136 318 q 82 207 106 243 q 18 167 47 153 q -7 214 -3 176 q 4 304 -11 251 q 22 349 11 332 q 43 374 32 365 q 64 386 54 383 q 79 389 74 389 q 110 382 97 390 q 131 358 124 374 q 128 351 133 354 q 119 354 122 349 q 104 372 115 365 q 81 378 93 379 q 41 356 58 376 q 15 301 24 336 q 4 216 0 249 q 22 176 8 183 q 45 182 32 172 q 72 213 58 192 q 111 286 96 249 q 138 351 126 324 q 156 398 149 381 q 174 419 163 415 q 188 417 179 422 q 200 383 196 413 q 205 306 204 354 q 204 190 206 257 q 200 43 203 124 q 347 26 275 38 q 486 -4 418 15 z "},"":{"ha":257,"x_min":0,"x_max":269,"o":"m 265 290 q 267 282 269 286 q 192 219 221 215 q 165 247 174 222 q 147 303 156 271 q 125 370 138 338 q 88 408 113 403 q 74 406 81 410 q 51 365 61 394 q 35 300 42 336 q 25 228 29 264 q 19 168 21 192 q 16 135 17 140 q 10 129 15 129 q 3 150 4 129 q 1 224 1 174 q 0 338 0 275 q 0 466 0 400 q 1 586 0 532 q 1 676 1 640 q 1 713 1 711 q 7 718 1 718 q 13 713 13 718 q 13 685 13 711 q 12 615 13 658 q 11 518 11 572 q 11 408 11 464 q 11 301 11 353 q 13 210 11 249 q 19 269 15 238 q 30 331 24 301 q 45 382 36 360 q 67 414 54 404 q 89 419 76 422 q 115 406 104 417 q 135 378 126 394 q 149 343 143 363 q 158 306 154 324 q 174 256 165 278 q 194 231 182 233 q 257 289 217 228 q 265 290 261 293 z "},"":{"ha":121,"x_min":-1,"x_max":135,"o":"m 128 290 q 132 285 135 290 q 128 265 132 282 q 115 227 124 247 q 90 190 106 207 q 54 172 75 172 l 53 172 q 24 185 36 172 q 8 217 13 197 q 1 260 3 238 q 0 307 -1 283 q 3 350 1 331 q 3 367 3 360 q 4 378 4 374 q 10 383 4 383 q 15 378 15 383 q 15 365 15 372 q 14 350 15 358 q 12 310 13 333 q 12 265 11 288 q 17 222 13 242 q 32 193 22 203 q 53 185 40 185 l 54 185 q 85 201 72 185 q 106 235 97 217 q 117 270 114 254 q 121 286 121 286 q 128 290 124 292 m 17 472 q 11 478 11 472 q 8 494 10 481 q 11 518 7 508 q 19 521 14 524 q 22 513 25 518 q 19 497 19 507 q 22 479 19 486 q 18 474 22 474 l 17 472 z "},"":{"ha":81,"x_min":-1033,"x_max":303,"o":"m 297 -4 q 300 -11 303 -4 q 293 -14 300 -17 q 151 17 224 6 q 3 32 78 28 q 0 -84 1 -26 q -1 -191 -1 -142 q -1 -277 -1 -240 q 0 -332 -1 -314 q -3 -336 0 -333 l -6 -339 q -11 -333 -11 -339 q -12 -280 -12 -317 q -12 -194 -12 -243 q -12 -86 -12 -144 q -10 32 -11 -28 q -254 29 -132 39 q -488 2 -376 19 q -697 -37 -600 -15 q -865 -80 -793 -60 q -979 -114 -937 -100 q -1022 -128 -1021 -128 l -1024 -128 q -1029 -125 -1029 -128 q -1026 -118 -1033 -118 q -983 -103 -1025 -118 q -868 -69 -940 -89 q -699 -27 -796 -50 q -489 14 -601 -4 q -254 41 -376 32 q -8 44 -132 50 q -5 172 -7 110 q 0 285 -3 235 q 6 368 3 335 q 13 408 8 401 q 21 410 15 413 q 24 403 26 407 q 17 363 19 396 q 11 281 14 331 q 6 170 8 232 q 3 43 4 108 q 152 28 78 39 q 297 -4 226 17 m 28 472 q 22 479 22 474 q 23 487 22 482 q 24 496 24 492 l 24 506 q 29 511 24 511 q 35 506 35 511 l 35 496 q 34 486 35 492 q 33 478 33 481 q 28 472 33 472 z "},"":{"ha":242,"x_min":-22,"x_max":257,"o":"m 21 64 l 19 64 q 13 70 14 64 q 10 100 11 76 q 3 209 7 142 q -3 353 0 276 q -10 508 -7 431 q -17 649 -14 586 q -21 752 -19 713 q -22 793 -22 792 q -17 800 -22 800 q -14 799 -15 800 q -11 794 -11 796 q -10 754 -11 793 q -6 653 -8 715 q 1 515 -3 592 q 8 363 4 439 q 15 221 11 288 q 21 110 18 154 q 23 131 22 119 q 25 154 24 143 q 31 215 28 186 q 38 272 35 244 l 38 286 q 40 290 38 288 q 56 375 47 340 q 76 417 64 410 q 103 415 93 426 q 117 393 114 403 q 103 340 122 369 q 51 283 85 310 q 50 272 50 281 q 61 237 53 256 q 89 211 69 218 q 112 207 99 207 q 144 215 125 207 q 187 240 163 222 q 242 289 211 257 q 250 289 247 294 q 250 282 257 285 q 192 230 218 249 q 145 203 165 211 q 110 195 125 194 q 85 200 94 196 q 46 242 57 211 q 41 195 43 218 q 36 153 39 172 q 31 103 33 121 q 28 76 29 85 q 24 66 26 68 q 21 64 22 64 m 83 408 q 66 372 72 403 q 53 300 60 340 q 96 349 82 324 q 106 390 110 375 q 97 406 103 399 q 83 408 92 413 z "},"":{"ha":131,"x_min":-3,"x_max":69,"o":"m 58 -12 q 47 -8 53 -12 q 17 72 28 6 q 2 239 7 139 q -3 465 -3 339 q -1 724 -3 590 q 0 774 0 751 q 0 811 0 796 q 6 818 0 818 q 11 811 11 818 q 11 774 11 796 q 10 724 11 751 q 8 602 8 672 q 8 455 8 532 q 11 301 8 378 q 19 160 14 224 q 33 53 24 97 q 54 0 42 10 q 61 -1 57 -1 q 68 -6 65 1 q 64 -12 69 -10 l 58 -12 z "},"":{"ha":447,"x_min":-15,"x_max":461,"o":"m 456 290 q 458 283 461 288 q 406 198 435 229 q 350 167 376 167 q 344 168 346 167 q 319 182 332 169 q 300 231 307 194 l 296 272 q 285 342 292 311 q 258 372 278 372 q 230 361 242 372 q 209 333 218 350 q 194 295 200 315 q 182 257 188 275 q 175 230 179 242 q 168 210 171 218 q 165 206 167 208 q 157 203 163 203 q 150 216 151 206 q 146 261 149 226 q 142 313 144 283 q 135 369 140 342 q 120 417 129 396 q 97 442 111 438 q 81 440 88 446 q 63 411 69 432 q 51 364 56 390 q 46 309 47 338 q 43 258 44 281 q 39 208 40 218 q 31 196 38 197 q 22 203 24 196 q 9 245 15 217 q -2 302 3 274 q -10 353 -7 331 q -12 378 -12 375 q -8 383 -15 383 q -1 379 -1 386 q 1 360 -1 379 q 7 314 3 340 q 16 260 11 288 q 28 215 21 232 q 30 235 29 224 q 31 258 31 247 q 34 315 32 285 q 41 372 36 344 q 53 419 46 399 q 74 449 61 440 q 100 453 86 457 q 128 427 118 447 q 144 378 139 407 q 153 319 150 350 q 157 261 156 288 q 159 240 158 250 q 160 222 160 229 q 171 260 167 240 q 183 301 176 279 q 201 342 190 324 q 225 372 211 360 q 258 383 239 383 q 293 350 285 383 q 307 274 301 317 q 309 253 308 263 q 313 232 310 243 q 346 179 319 182 q 397 206 368 176 q 447 288 425 236 q 456 290 450 293 z "},"":{"ha":290,"x_min":-17,"x_max":303,"o":"m 25 125 l 24 125 q 18 128 19 125 q 17 133 17 131 q 13 169 15 143 q 7 229 11 196 q -1 299 3 263 q -9 366 -6 336 q -15 415 -12 396 q -17 436 -17 435 q -12 443 -17 440 q -6 438 -6 443 q -2 408 -6 438 q 6 335 1 378 q 16 248 11 293 q 25 171 21 203 q 26 181 25 178 q 39 270 32 225 q 54 351 46 315 q 72 413 63 388 q 94 443 82 438 q 113 442 103 449 q 138 402 128 431 q 160 340 149 374 q 172 301 165 321 q 185 266 178 282 q 200 239 192 250 q 219 226 208 228 q 290 289 246 222 q 299 290 294 293 q 300 282 303 288 q 218 215 253 210 q 176 256 192 219 q 149 336 161 293 q 129 396 139 368 q 107 432 119 424 q 99 433 103 435 q 78 398 88 428 q 60 328 68 368 q 47 247 53 289 q 38 179 42 206 q 31 133 32 140 q 25 125 29 125 z "},"":{"ha":225,"x_min":-1,"x_max":239,"o":"m 100 96 q 61 111 81 96 q 32 149 44 125 q 13 200 19 174 q 2 252 6 226 q 1 297 -1 278 q 7 301 1 304 q 13 296 13 301 q 13 251 10 276 q 24 200 17 225 q 43 153 32 175 q 68 119 54 132 q 111 108 89 103 q 133 121 124 113 q 147 140 142 129 q 156 162 153 150 q 161 182 160 174 q 163 244 165 208 q 143 241 153 242 q 124 239 133 240 q 80 244 104 239 q 40 269 56 250 q 18 326 17 299 q 33 368 19 353 q 67 385 46 381 q 115 369 88 389 q 152 324 139 354 q 172 258 165 294 q 206 273 192 265 q 225 289 219 281 q 232 290 226 293 q 233 282 239 288 q 210 263 226 271 q 174 247 194 254 q 172 181 176 208 q 114 97 160 110 q 100 96 110 96 m 72 374 q 42 361 54 374 q 30 324 31 347 q 49 278 29 301 q 85 255 64 260 q 124 251 106 250 q 160 256 143 251 q 142 317 156 289 q 110 360 129 346 q 72 374 89 374 z "},"":{"ha":422,"x_min":-14,"x_max":433,"o":"m 38 -279 q 32 -276 35 -279 q 27 -247 29 -272 q 23 -181 25 -222 q 20 -88 21 -140 q 19 21 19 -36 q 10 157 15 89 q 1 283 6 225 q -8 384 -4 342 q -14 443 -12 426 q -10 449 -14 449 q -3 444 -3 451 q 1 401 -1 432 q 8 328 4 371 q 15 235 11 286 q 24 129 19 183 q 33 242 26 185 q 50 351 39 300 q 77 443 61 401 q 115 510 93 485 q 159 539 140 536 q 190 536 178 542 q 222 503 208 528 q 244 447 236 479 q 254 376 251 414 q 253 303 257 338 q 358 308 308 314 q 432 282 407 303 q 432 274 433 278 q 424 274 428 269 q 352 297 400 293 q 251 290 304 301 q 213 151 240 207 q 147 81 185 96 q 93 89 115 69 q 75 171 61 115 q 119 242 83 211 q 214 292 156 274 q 227 296 221 294 q 240 300 233 297 q 242 375 244 338 q 233 443 240 413 q 213 496 225 474 q 185 525 200 518 q 124 501 157 538 q 80 422 97 474 q 52 306 63 371 q 37 169 42 242 q 31 28 32 97 q 41 -133 38 -58 q 44 -253 44 -208 q 43 -273 44 -268 q 39 -279 42 -278 l 38 -279 m 239 288 q 228 285 233 286 q 217 282 224 283 q 128 234 163 264 q 86 168 94 204 q 100 97 75 119 q 143 92 118 83 q 162 103 149 94 q 190 134 175 113 q 217 192 204 156 q 239 288 231 229 z "},"":{"ha":315,"x_min":-15,"x_max":519,"o":"m 206 -315 q 197 -312 200 -315 q 180 -259 182 -303 q 181 -124 178 -215 q 179 -120 179 -121 q 178 -117 179 -119 q 181 -110 178 -111 q 181 -90 181 -99 q 182 -74 182 -82 q 180 59 183 -8 q 169 182 176 126 q 151 276 163 238 q 128 322 140 314 q 100 308 117 328 q 68 268 83 289 q 39 230 53 246 q 13 214 25 214 q -1 221 6 214 q -8 264 -15 236 q 3 295 -6 279 q 21 326 11 311 q 41 351 31 340 q 60 365 51 361 q 86 365 78 374 q 97 347 94 358 q 100 324 100 335 q 133 332 121 339 q 161 281 149 322 q 181 182 174 240 q 192 56 189 124 q 193 -74 194 -11 q 193 -94 193 -85 q 192 -115 193 -104 q 222 -142 200 -124 q 274 -182 244 -160 q 338 -226 304 -204 q 404 -265 372 -249 q 465 -286 436 -281 q 510 -281 493 -292 q 517 -282 513 -275 q 515 -289 519 -287 q 444 -291 489 -306 q 351 -247 399 -276 q 260 -185 303 -218 q 196 -133 218 -153 q 211 -181 203 -153 q 224 -235 219 -208 q 228 -285 229 -262 q 215 -312 226 -307 q 206 -315 210 -315 m 190 -153 q 191 -256 189 -215 q 203 -303 193 -296 q 206 -303 204 -303 q 211 -301 207 -304 q 217 -284 217 -299 q 215 -248 218 -269 q 205 -201 211 -226 q 190 -153 199 -176 m 74 358 q 65 356 74 358 q 49 342 58 351 q 31 319 40 332 q 13 290 21 306 q 3 261 6 275 q 7 228 -1 240 q 13 225 10 225 q 34 241 21 225 q 60 275 47 257 q 74 294 67 285 q 89 313 82 304 q 89 315 89 315 q 88 339 90 326 q 79 356 86 351 q 74 358 79 358 z "},"":{"ha":219,"x_min":-24,"x_max":192,"o":"m 43 14 q 40 17 40 14 q 36 31 39 19 q 26 99 32 57 q 13 189 19 142 q 1 284 7 236 q -11 371 -6 332 q -20 435 -17 410 q -24 460 -24 460 q -18 467 -24 464 q -11 461 -14 467 q -7 430 -11 460 q 3 354 -3 400 q 17 253 10 308 q 31 147 24 197 q 86 407 24 381 q 186 358 124 425 q 186 350 192 353 q 178 350 182 346 q 90 397 122 410 q 69 376 81 393 q 51 320 58 360 q 42 213 43 281 q 49 36 40 144 q 51 18 51 21 q 46 14 50 15 l 43 14 z "},"":{"ha":326,"x_min":33,"x_max":299,"o":"m 154 43 q 149 49 149 43 q 153 56 149 53 q 186 62 165 57 q 227 74 207 67 q 263 90 247 81 q 282 110 279 99 q 264 140 286 122 q 225 167 246 154 q 182 193 204 181 q 130 226 156 210 q 83 260 104 242 q 49 299 63 279 q 35 344 36 319 q 54 406 33 378 q 102 454 75 435 q 152 485 129 474 q 178 497 175 497 q 185 494 182 500 q 182 488 188 490 q 160 476 182 488 q 112 447 138 465 q 65 401 86 428 q 46 344 44 375 q 60 303 47 322 q 92 267 72 285 q 138 234 113 250 q 188 203 163 218 q 231 177 210 190 q 271 149 253 164 q 293 107 299 126 q 269 80 289 92 q 225 60 249 68 q 181 49 201 53 q 156 43 160 44 l 154 43 z "},"":{"ha":122,"x_min":-392,"x_max":489,"o":"m 482 683 q 486 678 489 683 q 481 672 486 672 q 238 686 357 683 q 11 682 119 689 q 10 578 10 639 q 10 447 10 517 q 13 303 11 378 q 19 160 15 229 q 28 28 22 90 q 44 -78 35 -33 q 39 -85 44 -83 q 33 -79 33 -85 q 18 27 25 -35 q 8 158 11 89 q 1 302 4 228 q -2 446 -1 376 q -3 576 -3 515 q -1 682 -3 638 q -210 659 -114 675 q -383 618 -307 643 l -385 618 q -390 622 -389 618 q -386 629 -392 626 q -212 670 -310 654 q 0 693 -114 686 q 1 733 0 717 q 3 758 1 749 q 8 763 3 765 q 14 757 14 763 q 12 733 13 749 q 11 694 11 717 q 238 698 119 701 q 482 683 357 694 z "},"":{"ha":328,"x_min":-10,"x_max":339,"o":"m 31 186 q 6 238 13 201 q -4 319 0 275 q -6 349 -6 335 q -10 378 -7 363 q -4 383 -10 383 q 1 379 1 383 q 5 350 4 364 q 8 321 6 336 q 17 244 11 281 q 38 196 22 207 q 54 192 46 189 q 80 206 67 193 q 106 238 93 219 q 130 276 118 256 q 150 315 142 297 q 175 359 167 347 q 190 369 183 371 q 200 339 200 367 q 201 310 200 328 q 205 274 201 292 q 214 240 208 256 q 229 215 219 224 q 253 210 239 208 q 283 226 269 214 q 307 253 297 239 q 328 288 318 268 q 335 290 331 293 q 339 283 339 288 q 333 271 339 282 q 316 245 326 260 q 290 217 306 231 q 254 199 274 203 q 222 206 238 194 q 204 231 211 214 q 194 267 197 247 q 189 305 190 286 q 188 339 188 324 l 188 357 q 175 338 182 351 q 160 310 168 325 q 138 269 150 290 q 113 228 126 247 q 86 197 100 210 q 57 181 72 183 q 31 186 38 181 z "},"":{"ha":219,"x_min":0,"x_max":182,"o":"m 104 171 q 93 175 97 171 q 86 182 89 179 q 51 243 67 208 q 24 313 35 278 q 6 382 13 349 q 0 440 0 415 q 6 446 0 446 q 11 440 11 446 q 17 383 11 415 q 35 316 24 350 q 61 249 46 282 q 96 189 76 215 q 101 183 99 183 q 104 182 103 182 q 111 193 108 183 q 117 217 114 203 q 122 249 119 232 q 125 281 124 265 q 132 334 128 307 q 142 382 136 361 q 156 416 147 403 q 176 429 164 429 q 182 422 182 429 q 176 417 182 417 q 161 403 168 417 q 150 370 154 390 q 142 326 146 350 q 136 279 139 301 q 125 201 131 229 q 107 171 119 174 l 104 171 z "},"":{"ha":426,"x_min":0,"x_max":360,"o":"m 354 453 q 360 447 360 453 q 358 405 360 446 q 351 313 357 364 q 337 219 346 263 q 311 171 328 176 q 288 182 300 167 q 239 278 260 222 q 208 382 218 333 q 197 293 204 344 q 181 194 190 242 q 160 110 172 146 q 131 69 147 75 q 121 68 128 67 q 108 74 114 69 q 68 139 88 92 q 34 247 49 186 q 10 375 19 308 q 0 499 1 442 q 3 503 0 500 q 6 504 4 504 q 11 499 11 504 q 22 371 13 438 q 47 245 32 304 q 79 142 61 186 q 115 82 97 99 q 122 79 119 79 q 126 79 124 79 q 152 123 140 85 q 174 214 164 161 q 190 328 183 267 q 201 440 197 389 q 208 446 204 446 q 214 440 214 446 q 220 383 214 415 q 237 316 226 350 q 263 249 247 282 q 297 189 278 215 q 303 183 300 186 q 308 182 306 181 q 326 217 318 185 q 338 293 333 250 q 346 379 343 336 q 349 447 349 422 q 354 453 349 453 z "},"":{"ha":276,"x_min":-10,"x_max":288,"o":"m 283 290 q 288 283 288 290 q 283 267 288 282 q 268 234 278 251 q 244 202 258 217 q 210 188 231 188 l 204 188 q 154 215 176 190 q 113 276 132 240 q 60 220 85 243 q 11 197 35 197 q -3 200 3 197 q -6 207 -10 200 q 1 210 -3 213 q 50 226 22 203 q 107 286 78 250 q 94 313 100 300 q 81 340 88 326 q 57 390 68 368 q 60 399 56 394 q 67 396 64 401 l 92 346 q 103 321 97 333 q 115 296 108 308 q 139 328 125 313 q 197 399 169 367 q 250 444 225 432 q 258 442 256 447 q 256 435 261 438 q 204 390 232 422 q 149 321 176 357 q 135 303 142 311 q 121 285 128 294 q 159 226 139 251 q 206 199 179 201 q 238 210 224 196 q 260 240 251 224 q 276 286 269 260 q 283 290 276 293 z "},"":{"ha":257,"x_min":-775,"x_max":558,"o":"m 551 -4 q 556 -11 558 -4 q 549 -14 553 -17 q 363 22 458 11 q 171 35 268 33 q 174 -98 172 -32 q 176 -219 175 -164 q 176 -312 176 -274 q 175 -364 176 -351 q 169 -368 175 -368 q 164 -362 164 -368 q 165 -311 165 -350 q 165 -218 165 -272 q 162 -98 164 -164 q 158 35 160 -32 q -70 23 43 35 q -285 -7 -183 11 q -475 -46 -387 -25 q -627 -85 -562 -67 q -728 -115 -692 -103 q -767 -128 -765 -128 l -769 -128 q -775 -125 -772 -128 q -771 -118 -775 -118 q -733 -105 -769 -118 q -631 -74 -696 -92 q -478 -35 -567 -56 q -287 4 -390 -14 q -72 34 -185 22 q 158 46 42 46 q 153 224 156 142 q 150 351 151 307 q 63 176 104 200 q 35 174 47 169 q 10 199 19 179 q 1 238 3 215 q 1 283 -1 260 q 8 330 3 307 q 21 369 13 353 q 28 372 21 375 q 31 364 33 369 q 17 325 22 347 q 11 281 13 303 q 12 238 10 258 q 21 204 14 218 q 39 185 26 189 q 57 188 49 182 q 74 203 64 192 q 95 237 83 214 q 120 297 107 260 q 149 390 133 335 q 154 394 150 394 q 160 389 160 394 q 160 353 160 383 q 163 276 161 322 q 166 169 164 229 q 169 46 168 110 q 364 33 268 44 q 551 -4 460 22 z "},"":{"ha":292,"x_min":-3,"x_max":303,"o":"m 201 179 q 139 183 171 179 q 80 190 107 186 q 35 199 53 194 q 15 204 17 203 q 14 210 11 207 q 19 215 14 215 q 38 228 24 215 q 68 259 51 240 q 101 299 85 278 q 131 342 118 321 q 144 370 143 363 q 146 381 146 378 q 139 388 142 388 q 110 384 131 392 q 63 363 90 376 q 38 351 51 357 q 8 339 24 346 q 0 342 3 336 q 3 349 -3 346 q 58 374 31 360 q 110 396 90 389 q 143 399 131 403 q 156 385 151 394 q 156 379 156 383 q 155 367 157 375 q 147 347 153 360 q 128 315 140 335 q 81 256 108 288 q 33 210 53 224 q 88 200 51 206 q 165 192 125 194 q 241 192 206 189 q 292 208 276 194 q 300 208 296 213 q 299 200 303 204 q 259 184 285 189 q 201 179 233 179 z "},"":{"ha":333,"x_min":-1,"x_max":296,"o":"m 290 185 q 293 176 296 182 q 263 143 282 157 q 221 129 243 129 q 207 131 211 129 q 188 139 199 132 q 169 160 178 146 q 152 197 160 174 q 143 258 144 221 q 121 209 132 228 q 99 180 110 190 q 80 166 89 169 q 64 163 71 163 l 58 163 q 15 203 32 167 q 0 292 -1 240 q 2 328 0 307 q 10 368 4 349 q 26 404 17 388 q 50 428 35 421 q 107 419 74 442 q 108 411 114 417 q 101 410 106 406 q 56 418 74 428 q 24 369 35 407 q 11 292 13 331 q 25 212 11 246 q 60 174 39 178 q 74 176 65 174 q 93 190 82 178 q 117 225 104 201 q 142 290 129 249 q 151 367 142 333 q 176 422 161 400 q 210 456 192 444 q 243 469 228 468 q 276 460 263 471 q 293 426 289 449 q 289 419 296 419 q 282 424 283 419 q 243 458 275 461 q 213 446 229 457 q 184 413 197 435 q 162 361 171 392 q 153 289 153 331 q 159 217 153 244 q 174 174 165 190 q 192 150 182 157 q 210 142 201 143 q 252 149 232 136 q 283 182 272 163 q 290 185 286 188 z "},"":{"ha":629,"x_min":0,"x_max":642,"o":"m 638 289 q 642 282 642 286 q 633 249 640 275 q 613 193 625 222 q 583 140 600 164 q 543 115 565 115 q 519 126 531 115 q 493 176 503 142 q 478 250 483 210 q 470 330 472 290 q 468 397 468 369 q 449 373 461 386 q 417 348 438 360 q 368 326 397 336 q 299 311 339 315 q 309 140 301 235 q 331 -72 317 46 q 326 -78 333 -78 l 325 -78 q 319 -74 321 -78 q 298 139 306 44 q 288 310 290 233 q 222 303 263 307 q 139 293 181 299 q 55 285 94 289 q 8 281 15 282 q 3 280 6 278 q 0 285 0 282 q 8 290 0 288 q 47 296 18 293 q 138 306 75 299 q 222 314 181 310 q 288 321 263 318 q 288 488 285 419 q 300 602 292 556 q 320 676 308 649 q 343 722 332 704 q 397 744 365 753 q 442 716 421 739 q 465 668 463 693 q 460 663 465 663 q 454 667 454 660 q 433 708 451 688 q 394 733 414 729 q 353 715 369 740 q 331 672 342 699 q 311 599 319 644 q 299 487 303 554 q 299 322 296 419 q 348 332 321 325 q 400 351 375 339 q 443 381 425 363 q 467 426 461 400 q 472 431 468 431 q 478 425 478 431 q 481 338 478 383 q 489 251 483 292 q 504 178 494 210 q 526 135 514 147 q 563 134 544 117 q 595 182 581 151 q 619 244 610 213 q 631 285 628 275 q 638 289 631 289 m 475 504 q 469 508 471 504 q 467 525 469 511 q 471 550 465 539 q 478 553 474 556 q 481 544 482 549 q 478 528 478 539 q 481 511 479 518 q 475 504 483 507 z "},"":{"ha":461,"x_min":0,"x_max":476,"o":"m 469 431 q 474 424 476 431 q 469 408 474 422 q 446 374 464 393 q 392 336 428 354 q 296 310 357 318 q 305 122 297 228 q 328 -122 313 17 q 324 -128 331 -128 l 322 -128 q 317 -124 317 -128 q 294 121 301 15 q 283 308 286 226 q 219 301 260 306 q 139 293 179 297 l 133 293 q 139 215 136 253 q 144 142 142 178 q 156 -19 151 49 q 160 -110 161 -86 q 154 -114 160 -114 q 149 -108 149 -114 q 145 -17 150 -86 q 133 140 140 51 q 128 215 131 176 q 122 292 125 253 q 49 284 82 288 q 8 279 15 281 q 3 280 6 279 q 0 285 0 281 q 3 288 0 288 q 8 290 6 289 q 43 295 18 293 q 122 303 68 297 q 114 434 118 369 q 108 554 110 499 q 108 652 107 610 q 114 717 108 694 q 142 769 124 757 q 175 782 160 781 l 176 782 q 212 773 194 782 q 244 750 229 764 q 270 721 260 736 q 285 692 281 706 q 281 685 285 686 q 274 689 276 683 q 260 714 271 700 q 237 740 250 728 q 208 761 224 753 q 176 769 192 769 l 175 769 q 125 714 138 769 q 119 649 121 692 q 119 552 118 607 q 125 433 121 497 q 133 304 129 369 l 138 304 q 219 313 178 308 q 283 319 260 317 q 287 464 282 404 q 300 565 292 524 q 319 631 308 606 q 340 674 329 657 q 393 696 363 704 q 438 667 417 690 q 461 619 458 644 q 456 613 461 614 q 450 618 450 613 q 429 660 447 639 q 390 685 411 681 q 350 667 367 690 q 329 626 339 651 q 311 561 319 601 q 298 463 303 521 q 294 321 293 404 q 386 345 353 328 q 436 381 419 363 q 458 413 453 399 q 463 426 463 426 q 469 431 464 431 z "},"":{"ha":515,"x_min":-72,"x_max":532,"o":"m 526 383 q 526 375 532 381 q 519 375 522 371 q 483 382 504 388 q 405 334 449 375 q 322 239 361 293 q 389 172 361 208 q 411 89 417 136 q 388 26 407 53 q 338 -11 368 0 q 322 -15 331 -14 q 307 -17 314 -17 q 250 6 275 -17 q 240 19 246 11 q 232 40 235 28 q 230 70 229 53 q 238 108 231 88 q 266 173 249 140 q 306 238 283 206 q 297 245 301 242 q 286 253 292 249 q 238 290 261 271 q 197 331 214 310 q 169 377 179 353 q 164 431 160 401 q 165 435 165 433 q 167 440 165 438 q 100 408 138 444 q 56 354 78 386 q 17 282 35 322 q 58 185 39 239 q 70 76 79 126 q 38 -1 61 25 q 3 -19 19 -19 q -6 -18 -3 -19 q -26 -3 -15 -15 q -42 42 -36 10 q -37 158 -51 94 q 4 282 -24 222 q -6 303 -1 293 q -15 324 -11 314 q -58 427 -43 383 q -56 513 -72 471 q -49 517 -53 519 q -46 508 -44 514 q -47 429 -61 469 q -6 329 -33 389 l 11 296 q 93 417 47 374 q 168 451 135 458 q 187 501 175 482 q 212 530 199 519 q 238 545 225 540 q 258 551 250 550 q 310 545 286 556 q 342 515 333 535 q 339 508 344 511 q 332 511 335 506 q 304 535 325 526 q 260 540 283 543 q 239 534 251 539 q 214 517 226 529 q 191 484 201 506 q 176 429 181 463 q 181 379 172 401 q 207 337 190 357 q 246 298 224 317 q 293 261 268 279 q 303 254 299 258 q 313 247 307 250 q 399 344 353 303 q 481 393 444 385 q 526 383 508 401 m 47 181 q 28 227 38 206 q 11 268 19 249 q -26 152 -14 211 q -31 44 -39 93 q -3 -7 -24 0 q 29 7 13 -11 q 60 78 51 31 q 47 181 68 126 m 400 90 q 380 167 406 133 q 315 231 354 200 q 249 104 269 165 q 258 14 228 47 q 292 -3 272 0 q 333 0 313 -7 q 378 33 361 10 q 400 90 396 57 z "},"":{"ha":733,"x_min":-11,"x_max":754,"o":"m 750 286 q 750 279 754 282 q 742 278 747 275 q 691 299 724 293 q 618 303 658 306 q 594 205 610 244 q 561 142 579 165 q 526 106 543 118 q 497 90 508 94 q 414 100 447 71 q 393 176 382 128 q 438 247 401 215 q 532 297 474 278 q 607 314 569 310 q 604 381 610 347 q 587 444 599 415 q 558 496 575 474 q 519 528 540 518 q 442 507 479 547 q 398 428 415 479 q 370 311 381 376 q 355 174 360 246 q 349 32 350 101 q 359 -129 356 -54 q 363 -249 363 -204 q 361 -268 363 -264 q 357 -274 360 -272 l 356 -274 q 350 -271 353 -274 q 345 -242 347 -268 q 341 -176 343 -217 q 338 -84 339 -136 q 338 25 338 -32 q 328 157 333 92 q 319 279 324 222 q 243 296 288 300 q 239 281 242 292 q 210 208 229 242 q 167 151 190 175 q 122 115 144 128 q 85 107 100 103 q 69 121 78 110 q 69 165 61 132 q 110 243 79 210 q 185 294 140 276 q 233 307 211 303 q 228 411 243 365 q 189 468 214 457 q 124 435 156 482 q 82 337 96 397 q 63 206 68 276 q 59 61 57 135 q 67 -78 61 -12 q 81 -178 74 -131 q 92 -260 88 -226 q 94 -283 94 -279 q 90 -287 93 -286 q 89 -288 89 -287 q 88 -289 89 -289 q 83 -286 86 -289 q 78 -267 82 -285 q 72 -223 75 -250 q 64 -160 68 -196 q 56 -82 60 -124 q 37 51 47 -18 q 17 179 26 119 q 1 283 8 239 q -11 344 -7 328 q -7 351 -11 351 q 0 347 0 354 q 8 306 3 335 q 20 236 14 276 q 34 148 26 196 q 49 49 42 100 q 49 158 47 101 q 58 267 51 214 q 78 365 65 319 q 114 442 92 410 q 161 480 140 476 q 193 478 182 483 q 238 417 221 465 q 244 307 254 369 q 318 293 288 310 q 310 391 313 350 q 304 449 307 432 q 308 454 304 454 q 315 450 315 454 q 322 390 318 433 q 331 285 325 346 l 331 281 q 336 210 333 247 q 342 135 339 174 q 351 247 344 190 q 368 356 357 304 q 395 449 379 407 q 433 515 411 490 q 485 544 461 543 q 525 539 508 546 q 565 505 547 528 q 597 451 583 482 q 615 385 610 421 q 618 314 621 349 q 696 310 661 317 q 750 286 731 303 m 228 283 q 231 294 231 292 q 189 283 213 293 q 119 235 147 268 q 81 163 90 203 q 77 136 78 151 q 88 118 76 121 q 119 127 99 115 q 160 161 139 139 q 199 215 181 183 q 228 283 218 246 m 493 101 q 566 170 536 118 q 606 301 596 222 q 570 296 588 299 q 536 286 553 293 q 447 239 481 268 q 404 174 413 210 q 421 110 393 132 q 493 101 449 83 z "},"":{"ha":404,"x_min":-31,"x_max":396,"o":"m 392 408 q 392 400 396 404 q 383 401 388 397 q 296 447 326 461 q 275 426 286 443 q 256 370 264 410 q 247 263 249 331 q 254 86 246 194 q 256 68 257 71 q 251 64 256 65 l 249 64 q 242 81 246 64 q 232 144 238 106 q 220 228 226 183 q 208 319 214 274 q 197 403 203 364 q 188 471 192 443 q 183 507 185 499 q 151 504 167 513 q 111 447 128 490 q 83 348 94 403 q 66 236 72 293 q 56 140 60 179 q 51 97 53 113 q 47 75 49 82 q 44 66 46 68 q 39 64 42 64 l 39 63 q 32 68 33 63 q 29 81 31 74 q 19 149 25 107 q 6 239 13 192 q -7 334 0 286 q -19 421 -14 382 q -27 485 -24 460 q -31 511 -31 510 q -26 517 -31 517 q -19 513 -19 517 q -17 488 -19 511 q -8 428 -14 465 q 3 346 -3 392 q 16 254 10 300 q 28 166 22 208 q 39 94 35 124 q 41 116 40 104 q 43 142 42 128 q 55 243 47 185 q 74 356 63 301 q 103 455 85 411 q 146 514 121 499 q 190 517 168 526 q 193 514 193 514 l 193 513 l 194 513 q 199 481 194 511 q 209 404 203 450 q 222 303 215 358 q 236 197 229 247 q 292 458 229 432 q 392 408 329 475 z "},"":{"ha":576,"x_min":-24,"x_max":589,"o":"m 585 292 q 589 285 589 289 q 584 270 589 283 q 571 242 579 257 q 550 215 563 228 q 521 203 538 203 q 483 231 499 203 q 451 294 467 258 q 428 347 440 322 q 401 374 415 371 q 373 365 385 378 q 352 331 361 351 q 337 285 343 310 q 326 239 331 260 q 325 229 326 236 q 322 214 324 222 q 316 199 319 206 q 308 193 313 193 q 304 194 306 193 q 294 219 299 197 q 286 271 290 240 q 214 217 246 213 q 190 231 200 218 q 172 264 181 244 q 157 307 164 283 q 144 356 150 331 q 139 378 143 360 q 128 415 135 396 q 113 450 122 435 q 94 465 104 465 q 74 429 83 460 q 56 359 64 399 q 42 278 47 319 q 33 210 36 236 q 26 163 28 171 q 19 156 24 156 q 14 160 15 157 q 13 164 13 163 q 10 201 13 174 q 3 261 7 228 q -6 331 -1 294 q -13 397 -10 367 q -19 447 -17 428 q -21 468 -21 467 q -17 474 -24 474 q -10 469 -10 474 q -6 438 -10 468 q 2 367 -3 408 q 12 279 7 325 q 21 203 17 233 q 22 211 21 208 q 35 301 28 256 q 50 383 42 346 q 68 444 58 419 q 90 475 78 469 q 117 467 106 481 q 135 432 128 453 q 148 390 143 411 q 156 358 153 368 q 167 314 161 336 q 181 273 174 292 q 196 242 188 254 q 215 228 204 229 q 282 286 242 224 q 285 288 283 286 q 280 333 282 310 q 276 375 278 356 q 274 407 275 394 q 274 422 274 419 q 279 428 274 431 q 285 422 285 428 q 287 383 285 413 q 292 319 289 353 q 300 253 296 285 q 308 210 304 222 q 315 242 313 221 q 328 290 321 263 q 345 339 335 317 q 369 375 356 361 q 404 385 383 389 q 435 356 421 381 q 463 299 449 331 q 490 242 475 269 q 521 215 504 215 q 540 224 531 215 q 557 244 550 232 q 569 268 564 256 q 578 288 575 281 q 585 292 578 294 z "},"":{"ha":603,"x_min":-25,"x_max":606,"o":"m 600 -181 q 600 -189 606 -183 q 598 -190 599 -189 q 596 -190 597 -190 q 592 -187 594 -190 q 551 -107 568 -162 q 522 22 535 -51 q 502 179 510 94 q 489 347 494 264 q 481 503 483 429 q 478 632 479 578 q 463 523 472 583 q 442 406 454 463 q 415 303 429 349 q 382 240 400 257 q 348 221 363 221 q 326 226 333 221 q 303 277 306 239 q 315 364 300 315 q 350 415 329 406 q 382 425 371 425 q 409 417 397 425 q 429 399 421 410 q 449 509 440 451 q 463 615 457 567 q 473 694 469 663 q 476 726 476 725 q 483 732 476 732 q 488 726 488 729 q 488 690 488 725 q 489 599 488 656 q 494 468 490 542 q 502 315 497 394 q 515 158 507 236 q 535 11 524 79 q 563 -108 547 -57 q 600 -181 579 -158 m 374 249 q 401 298 389 263 q 425 379 414 333 l 424 381 q 408 403 421 394 q 382 414 396 413 l 381 414 q 326 361 344 414 q 315 278 311 311 q 332 236 318 244 q 374 249 350 225 m 224 721 q 225 556 224 656 q 231 348 226 457 q 243 132 235 239 q 267 -54 251 25 q 261 -60 267 -60 q 256 -56 256 -60 q 235 91 243 8 q 223 262 228 174 q 216 438 218 350 q 213 599 214 525 q 206 545 210 572 q 194 488 201 518 q 167 385 183 433 q 132 297 151 336 q 91 233 113 258 q 49 200 69 208 q 4 206 25 190 q 1 293 -25 229 q 25 333 11 314 q 55 366 39 351 q 88 389 71 381 q 122 394 106 397 q 126 388 128 392 q 121 382 126 382 q 92 377 107 385 q 62 356 76 369 q 34 325 47 343 q 13 288 21 307 q 1 243 1 263 q 11 215 0 224 q 44 210 25 203 q 119 296 79 224 q 183 490 160 368 q 203 621 197 563 q 211 721 210 679 q 212 786 211 763 q 213 811 213 810 q 218 817 213 817 q 224 811 224 817 l 224 788 l 224 721 z "},"":{"ha":433,"x_min":-6,"x_max":578,"o":"m 572 619 q 578 613 578 619 q 571 608 578 608 q 517 610 547 611 q 451 604 486 608 q 378 594 415 600 q 307 581 342 588 q 308 424 307 507 q 314 260 310 340 q 324 108 318 181 q 342 -14 331 36 q 338 -21 342 -21 l 336 -21 q 331 -17 331 -21 q 313 106 319 35 q 303 258 307 178 q 297 422 299 339 q 294 579 294 506 q 281 576 286 576 q 259 440 271 510 q 234 310 247 369 q 206 210 221 251 q 178 160 192 169 q 170 157 174 157 q 164 157 167 157 q 147 182 151 161 q 142 230 142 203 q 147 286 143 257 q 154 336 150 315 q 126 297 143 319 q 90 253 108 274 q 54 219 72 233 q 22 208 36 206 q 0 233 7 210 q -3 274 -6 254 q 9 312 0 294 q 31 342 18 329 q 60 364 44 356 q 117 360 97 383 q 115 351 119 356 q 108 353 111 347 q 65 354 96 368 q 19 307 38 339 q 11 236 1 275 q 18 223 14 225 q 24 219 22 221 q 52 233 35 218 q 89 269 69 247 q 128 317 108 292 q 161 365 147 343 q 168 368 164 371 q 171 361 171 365 q 160 301 165 333 q 154 240 156 268 q 156 191 153 211 q 167 168 158 171 q 172 169 169 168 q 197 216 185 178 q 222 310 210 254 q 247 435 235 367 q 268 574 258 504 q 172 552 210 561 q 133 542 135 543 l 132 542 q 126 546 126 542 q 131 553 124 553 q 174 564 135 554 q 269 586 213 574 q 288 717 281 656 q 300 822 294 779 q 306 828 300 828 q 311 822 311 828 q 308 738 308 800 q 307 593 307 676 q 378 606 342 600 q 451 617 415 613 q 517 622 486 621 q 572 619 549 622 m 282 588 q 294 590 290 590 q 295 644 294 618 q 296 693 296 669 q 290 642 293 669 q 282 588 286 615 z "},"":{"ha":411,"x_min":-19,"x_max":557,"o":"m 551 619 q 557 613 557 619 q 550 608 554 608 q 438 606 506 614 q 301 585 369 597 q 303 427 301 511 q 308 263 304 343 q 319 110 313 182 q 336 -14 325 38 q 332 -21 336 -21 l 331 -21 q 325 -17 325 -21 q 308 107 314 35 q 297 260 301 179 q 292 424 293 340 q 290 582 290 508 q 279 579 285 582 q 253 482 268 529 q 215 400 239 435 q 147 324 183 351 q 78 288 110 297 q 92 264 86 275 q 101 232 97 250 q 104 196 104 214 q 101 161 104 178 q 89 135 97 144 q 57 122 76 118 q 28 143 39 125 q 13 186 18 161 q 6 239 7 211 q 6 288 4 267 l 4 288 q -14 319 -19 301 q 7 338 -7 338 q 39 327 22 339 q 69 297 56 315 q 136 329 100 304 q 207 407 172 354 q 242 484 228 439 q 267 578 256 529 q 158 553 203 564 q 111 542 113 543 l 110 542 q 104 546 106 542 q 108 553 104 553 q 159 565 114 554 q 268 590 204 576 q 285 702 279 649 q 293 788 290 756 q 293 808 293 799 q 294 822 293 817 q 300 828 294 828 q 306 822 306 828 q 306 809 306 819 q 304 782 306 799 q 302 702 303 750 q 301 596 301 654 q 370 607 335 601 q 438 616 406 613 q 500 621 471 619 q 551 619 529 622 m -3 317 q -1 306 -6 310 q 10 299 4 301 q 57 294 25 290 q 32 317 44 308 q 10 326 19 326 l 8 326 q 3 325 6 326 q -3 317 0 324 m 81 258 q 74 272 78 265 q 65 285 69 278 q 18 283 39 279 q 18 236 17 261 q 24 189 19 211 q 38 151 29 167 q 60 133 46 136 q 81 142 72 131 q 90 165 86 150 q 93 196 93 179 q 90 229 93 213 q 81 258 86 246 m 281 592 q 290 593 283 593 l 290 646 q 285 619 288 632 q 281 592 283 606 z "},"":{"ha":442,"x_min":-32,"x_max":560,"o":"m 553 619 q 557 613 560 619 q 551 608 557 608 q 500 610 529 611 q 438 605 471 608 q 371 596 406 601 q 303 585 336 590 q 304 427 303 511 q 310 263 306 343 q 320 110 314 182 q 338 -14 326 38 q 335 -18 338 -15 l 332 -21 q 326 -17 326 -21 q 309 107 315 35 q 299 260 303 179 q 292 424 294 340 q 290 582 290 508 q 279 580 285 581 q 268 578 274 579 q 239 442 256 511 q 201 313 222 372 q 153 212 179 254 q 97 157 128 169 q 40 168 68 143 q 24 188 32 176 q 11 214 17 199 q -6 210 3 211 q -25 207 -15 208 q -32 213 -29 207 q -26 219 -32 217 q -8 221 -17 219 q 7 224 0 222 q -1 281 0 249 q 8 354 -1 314 q 54 426 26 418 q 83 417 69 431 q 103 372 97 403 q 97 297 108 340 q 22 217 79 235 q 47 178 32 190 q 93 167 71 158 q 145 219 121 178 q 190 317 169 260 q 226 442 210 375 q 256 575 243 510 q 155 553 196 563 q 113 542 114 543 l 111 542 q 106 546 107 542 q 110 553 106 553 q 156 565 114 554 q 258 588 199 575 q 274 677 267 635 q 285 751 281 719 q 293 803 290 783 q 296 822 296 822 q 301 828 296 828 q 307 822 307 828 q 303 740 304 800 q 303 596 303 679 q 371 607 336 601 q 439 616 406 613 q 501 621 472 619 q 553 619 531 622 m 19 351 q 10 282 10 313 q 18 228 11 251 q 86 300 69 244 q 92 369 97 340 q 75 408 86 397 q 61 415 71 415 l 57 415 q 40 401 51 413 q 19 351 29 390 m 271 590 q 281 592 276 592 q 290 594 285 593 q 291 658 290 628 q 292 714 292 688 q 283 655 288 686 q 271 590 278 624 z "},"":{"ha":556,"x_min":-6,"x_max":678,"o":"m 671 619 q 675 613 678 619 q 669 608 675 608 q 615 610 646 611 q 549 604 583 608 q 477 594 514 600 q 406 582 440 589 q 407 425 406 508 q 413 261 408 342 q 424 108 417 181 q 440 -14 431 36 q 436 -21 443 -21 l 435 -21 q 429 -17 429 -21 q 413 106 419 35 q 401 258 406 178 q 396 422 397 339 q 394 579 394 506 q 390 578 392 579 q 385 578 388 578 q 365 440 376 510 q 340 313 354 369 q 310 218 326 256 q 274 178 293 181 q 242 186 254 175 q 216 242 222 201 q 207 332 210 282 q 205 347 206 339 q 204 363 204 354 q 200 385 201 381 q 197 390 199 390 q 176 355 190 388 q 146 286 161 322 q 119 226 133 258 q 90 163 106 194 q 46 121 67 117 q 25 145 33 124 q 10 197 17 167 q 1 263 4 228 q -3 326 -1 297 q -6 375 -6 356 q -6 396 -6 394 q 0 401 -6 401 q 6 396 6 401 q 8 310 6 356 q 17 226 11 265 q 30 161 22 188 q 49 132 38 135 q 59 137 51 132 q 79 168 67 142 q 109 231 94 200 q 136 290 124 263 q 175 378 161 351 q 200 401 189 404 q 215 363 211 400 q 217 347 217 356 q 218 332 217 339 q 226 247 221 286 q 249 194 232 208 q 272 189 261 188 q 301 224 288 190 q 328 310 315 257 q 353 433 342 364 q 374 575 364 501 q 273 553 314 563 q 231 542 232 543 l 229 542 q 224 546 225 542 q 228 553 221 553 q 274 565 232 554 q 375 588 315 575 q 388 708 382 649 q 399 822 394 768 q 404 828 399 828 q 410 822 410 828 q 407 739 408 800 q 406 593 406 678 q 477 606 440 600 q 549 617 514 613 q 616 622 585 621 q 671 619 647 622 m 386 589 q 394 590 389 590 l 394 658 q 390 626 392 643 q 386 589 389 608 z "},"":{"ha":471,"x_min":-8,"x_max":619,"o":"m 614 619 q 619 613 619 619 q 613 608 617 608 q 550 609 586 611 q 473 602 514 607 q 390 590 432 597 q 311 574 349 582 q 313 418 311 500 q 318 257 314 336 q 329 107 322 178 q 346 -14 336 36 q 342 -21 346 -21 q 335 -17 335 -21 q 317 104 324 33 q 307 254 311 175 q 301 415 303 333 q 300 571 300 497 q 235 557 264 564 q 190 546 206 550 q 135 410 163 479 q 83 276 107 342 q 103 233 93 256 q 122 183 113 210 q 135 74 144 125 q 101 -3 125 22 q 68 -21 85 -21 q 58 -19 61 -21 q 38 -4 49 -17 q 22 40 28 8 q 30 138 15 75 q 71 276 44 200 q 60 301 65 289 q 49 324 54 313 q 6 426 21 383 q 8 513 -8 469 q 15 515 11 518 q 19 508 21 513 q 17 428 4 468 q 60 328 31 388 q 68 310 64 319 q 76 292 72 301 q 124 417 99 353 q 175 543 149 481 q 174 542 175 543 l 172 542 q 167 546 168 542 q 171 553 167 553 q 182 556 171 553 q 226 656 204 608 q 264 739 247 703 q 291 798 281 775 q 304 825 301 821 q 311 828 307 828 q 315 822 315 825 q 312 736 313 800 q 311 585 311 672 q 390 601 349 593 q 473 613 432 608 q 550 620 514 618 q 614 619 586 622 m 111 179 q 78 260 96 222 q 41 131 54 189 q 33 42 28 74 q 61 -8 40 -1 q 93 4 76 -12 q 124 76 117 28 q 111 179 132 125 m 196 560 q 240 570 213 564 q 300 583 267 576 q 299 707 299 651 q 303 794 300 763 q 258 700 288 763 q 196 560 229 638 z "},"":{"ha":515,"x_min":-3,"x_max":526,"o":"m 524 253 q 521 246 526 249 q 481 233 503 236 q 435 229 458 229 q 383 233 408 229 q 336 240 357 236 q 301 249 315 244 q 285 256 288 253 q 283 263 282 258 q 290 265 283 265 q 308 279 294 267 q 338 310 321 292 q 372 351 354 329 q 401 393 389 372 q 415 422 414 414 q 415 432 417 429 q 410 439 414 439 q 381 435 400 443 q 333 414 361 428 q 307 403 321 408 q 278 390 293 397 q 271 393 274 388 q 274 400 268 397 q 303 413 289 407 q 328 425 317 418 q 381 448 360 440 q 414 450 401 456 q 426 436 422 446 q 426 419 428 433 q 397 367 424 406 q 375 337 388 353 q 350 306 363 321 q 325 279 338 292 q 303 260 313 267 q 343 251 317 256 q 400 243 369 246 q 461 242 431 240 q 515 256 492 244 q 524 253 521 258 m 454 188 q 461 186 458 192 q 461 178 465 182 q 401 153 440 160 q 313 146 361 146 q 215 151 265 146 q 124 163 165 156 q 54 175 82 169 q 24 183 26 181 q 21 190 18 186 q 28 194 21 194 q 50 208 33 194 q 89 246 67 222 q 136 300 111 269 q 183 364 161 331 q 223 435 218 415 q 226 457 228 454 q 214 471 222 467 q 169 465 200 478 q 93 432 139 453 q 53 414 74 424 q 8 393 32 404 q 0 397 1 393 q 3 404 -3 401 q 48 424 26 415 q 88 442 69 433 q 169 477 138 465 q 219 482 200 489 q 238 461 232 475 q 193 357 246 438 q 157 309 178 335 q 115 260 136 283 q 75 217 94 236 q 42 189 56 197 q 90 179 58 185 q 163 168 122 174 q 247 160 203 163 q 331 158 290 157 q 403 165 371 158 q 454 188 436 172 z "},"":{"ha":486,"x_min":-17,"x_max":501,"o":"m 499 294 q 494 289 501 289 q 392 276 439 282 q 304 267 344 271 q 309 204 307 235 q 314 143 311 174 q 326 -17 321 51 q 328 -107 331 -85 q 322 -112 328 -112 q 317 -107 317 -112 q 315 -15 319 -85 q 303 143 310 54 q 298 203 300 172 q 293 267 296 235 q 174 261 224 261 q 89 265 124 261 q 98 234 94 251 q 101 199 101 217 q 98 164 101 181 q 86 138 94 147 q 61 125 75 125 l 54 125 q 26 147 36 129 q 10 190 15 165 q 3 241 4 214 q 3 289 1 268 q -2 293 0 292 q -6 296 -4 294 q -15 311 -14 304 q -17 322 -17 318 q -10 337 -15 333 q 0 340 -4 340 q 42 324 15 343 q 83 278 68 304 q 167 273 117 274 q 292 278 217 272 q 283 417 288 349 q 277 545 279 486 q 276 650 275 604 q 283 719 278 696 q 310 772 293 760 q 343 785 328 783 l 344 785 q 381 776 363 785 q 413 753 399 767 q 439 724 428 739 q 453 694 450 708 q 450 688 456 688 q 443 692 443 685 q 430 717 440 703 q 406 743 419 731 q 376 764 392 756 q 344 772 360 772 q 294 717 307 772 q 288 648 289 693 q 288 543 286 603 q 294 415 290 483 q 304 279 299 347 q 493 300 382 285 q 499 294 499 300 m 1 304 q 24 291 8 297 q 68 279 39 285 q 34 315 53 300 q 3 329 15 329 l 1 329 q -2 328 0 329 q -6 321 -4 328 q 1 304 -6 313 m 78 144 q 87 167 83 153 q 90 199 90 182 q 87 232 90 215 q 78 263 83 249 q 77 265 78 264 q 76 267 76 265 q 14 283 35 272 q 15 237 14 261 q 22 191 17 213 q 35 154 26 169 q 57 136 43 139 q 78 144 69 133 z "},"":{"ha":386,"x_min":-31,"x_max":351,"o":"m 346 235 q 349 228 351 232 q 318 176 338 196 q 272 150 299 156 q 265 148 268 149 q 257 147 261 147 q 210 168 231 147 q 171 263 181 201 q 160 233 167 250 q 145 201 154 217 q 124 174 136 186 q 97 158 113 163 q 82 156 89 156 q 36 176 57 156 q 22 194 28 183 q 11 215 17 204 q -6 211 3 213 q -25 208 -14 210 q -31 214 -31 208 q -25 221 -31 219 q -8 222 -17 221 q 8 225 0 224 q 10 356 -8 281 q 54 428 25 419 q 85 418 69 432 q 103 373 97 404 q 97 299 110 342 q 22 218 79 236 q 44 185 31 196 q 94 169 67 160 q 126 193 113 174 q 148 233 139 213 q 161 272 157 254 q 165 289 165 289 l 167 290 q 165 348 164 318 q 168 410 165 378 q 201 499 175 469 q 254 533 226 529 q 289 527 274 536 q 311 500 304 518 q 311 453 318 481 q 283 397 304 426 q 235 343 264 368 q 176 315 206 318 q 190 232 179 268 q 218 176 200 196 q 271 161 239 154 q 311 184 293 165 q 338 231 329 203 q 346 235 339 236 m 21 353 q 11 285 11 317 q 18 229 11 253 q 86 301 69 246 q 92 370 97 342 q 76 410 88 399 q 63 417 69 417 l 58 417 q 42 403 53 414 q 21 353 31 392 m 179 410 q 176 367 176 388 q 176 326 175 346 q 226 350 199 329 q 274 403 253 371 q 300 496 313 461 q 263 522 289 522 l 256 522 q 209 491 232 519 q 179 410 186 463 z "},"":{"ha":292,"x_min":-6,"x_max":283,"o":"m 279 7 q 281 -1 283 4 q 276 -4 281 -4 l 274 -4 q 192 92 221 24 q 150 251 163 161 q 61 53 113 67 l 56 53 q 44 57 49 53 q 15 137 25 71 q -1 303 4 203 q -6 529 -6 403 q -4 789 -6 656 q -3 840 -4 817 q -3 878 -3 863 q 3 883 -3 883 q 8 878 8 883 q 8 840 8 863 q 7 789 8 817 q 6 667 7 738 q 6 520 6 597 q 8 366 6 443 q 16 226 11 289 q 29 119 21 163 q 51 65 38 75 q 58 64 54 63 q 146 283 106 78 l 146 286 q 139 401 140 342 q 138 517 138 460 q 141 627 139 574 q 146 725 143 681 q 150 786 149 760 q 151 832 151 813 q 157 838 151 838 q 163 832 163 838 q 161 786 163 813 q 157 724 160 760 q 151 599 154 668 q 149 456 149 529 q 156 310 150 382 q 176 178 161 239 q 215 72 190 117 q 279 7 240 26 z "},"":{"ha":283,"x_min":-136,"x_max":315,"o":"m 310 621 q 315 614 315 619 q 308 608 315 608 q 251 610 285 611 q 179 604 217 608 q 181 444 179 529 q 186 274 182 358 q 197 115 190 190 q 214 -12 203 40 q 210 -19 215 -17 l 208 -19 q 203 -15 204 -19 q 185 113 192 38 q 175 273 179 189 q 169 442 171 357 q 168 603 168 528 l 164 603 q 148 434 157 522 q 126 271 139 346 q 96 144 113 196 q 58 83 79 92 q 49 82 54 82 q 35 86 40 82 q 0 227 7 107 q 8 575 -7 347 q -89 553 -50 563 q -129 543 -128 543 l -131 543 q -136 547 -135 543 q -132 554 -136 551 q -88 565 -128 556 q 10 586 -49 575 q 15 666 13 625 q 21 751 18 707 q 23 767 22 761 q 24 779 24 774 q 29 783 24 786 q 35 778 35 783 q 34 767 35 774 q 33 751 33 760 q 26 667 29 707 q 21 589 24 626 q 86 601 53 596 q 154 613 119 607 q 163 735 160 678 q 168 832 165 792 q 174 838 168 838 q 179 832 179 838 l 179 828 q 183 822 183 828 q 181 747 182 803 q 179 615 179 692 q 251 622 218 621 q 310 621 285 624 m 54 94 q 86 150 71 101 q 114 271 101 199 q 136 430 126 343 q 153 600 146 517 q 85 590 119 596 q 19 578 51 585 q 10 351 11 442 q 14 206 10 261 q 26 126 18 151 q 42 96 33 101 q 54 94 49 92 m 168 614 l 168 653 q 167 634 168 643 q 165 614 167 625 l 168 614 z "},"":{"ha":704,"x_min":-8,"x_max":718,"o":"m 718 382 q 713 376 718 376 q 659 342 689 372 q 597 260 629 313 q 546 165 571 217 q 557 56 553 117 q 564 -83 561 -6 q 539 -383 569 -283 q 469 -489 508 -483 l 464 -489 q 399 -404 424 -489 q 393 -295 386 -362 q 419 -149 400 -228 q 469 12 439 -71 q 533 167 499 94 q 504 309 519 264 q 482 368 489 354 q 390 265 431 297 q 325 243 349 232 q 306 276 307 251 q 258 199 279 242 q 217 110 236 157 q 215 -55 217 29 q 209 -210 213 -139 q 201 -333 206 -282 q 192 -399 196 -383 q 146 -453 175 -453 l 140 -453 q 111 -417 121 -449 q 104 -336 101 -385 q 114 -248 107 -300 q 133 -136 121 -196 q 164 -12 146 -76 q 206 113 182 51 q 203 226 206 172 q 199 320 201 279 q 192 386 196 361 q 183 415 189 411 l 179 415 q 165 395 172 413 q 150 356 158 378 q 124 288 139 325 q 83 213 108 250 q 19 174 50 160 q -5 219 -1 182 q 6 311 -8 257 q 23 356 13 339 q 44 381 33 372 q 65 394 56 390 q 82 397 75 397 q 113 389 99 397 q 133 365 126 381 q 129 358 136 361 q 122 361 125 356 q 107 379 118 372 q 83 385 96 386 q 44 363 61 383 q 17 308 26 343 q 7 223 3 256 q 24 183 11 190 q 75 219 44 175 q 113 293 99 256 q 139 358 128 331 q 158 406 150 389 q 176 426 165 424 q 189 425 181 429 q 201 397 196 421 q 210 333 207 372 q 215 244 213 294 q 217 139 217 194 q 255 219 233 179 q 306 294 276 258 q 308 311 306 300 q 338 378 317 351 q 386 407 360 404 q 450 363 426 411 q 447 356 453 358 q 439 358 442 353 q 388 394 419 399 q 345 368 364 392 q 319 308 326 344 q 317 272 314 288 q 329 253 319 257 q 382 273 344 246 q 478 382 419 300 q 483 384 479 383 q 486 382 486 385 q 493 372 488 381 q 507 340 499 363 q 525 281 515 318 q 543 185 535 243 q 588 265 564 229 q 615 305 600 285 q 645 342 629 325 q 678 372 661 360 q 711 388 694 385 q 718 382 717 388 m 181 -394 q 192 -326 188 -375 q 200 -212 197 -278 q 204 -70 203 -146 q 206 81 206 6 q 169 -36 185 24 q 142 -151 153 -96 q 124 -255 131 -207 q 115 -336 117 -303 q 122 -413 113 -387 q 143 -442 131 -439 q 162 -433 151 -443 q 181 -394 172 -422 m 553 -83 q 536 146 549 54 q 475 -4 503 75 q 428 -158 447 -83 q 404 -297 410 -233 q 410 -400 399 -361 q 436 -460 421 -439 q 468 -478 451 -481 q 498 -453 482 -476 q 527 -382 514 -429 q 548 -261 540 -335 q 553 -83 556 -187 z "},"":{"ha":333,"x_min":-8,"x_max":449,"o":"m 443 619 q 449 613 449 619 q 442 608 446 608 q 329 606 397 614 q 193 585 261 597 q 194 427 193 511 q 200 263 196 343 q 210 110 204 182 q 228 -14 217 38 q 224 -21 228 -21 l 222 -21 q 217 -17 217 -21 q 199 107 206 35 q 189 260 193 179 q 183 424 185 340 q 182 582 182 508 l 179 582 q 164 436 172 511 q 144 296 156 361 q 119 183 133 231 q 88 121 104 136 q 69 113 79 113 q 31 144 46 114 q 9 219 17 175 q -1 313 1 264 q -4 403 -4 363 q 1 410 -4 410 q 7 403 7 410 q 24 199 7 272 q 71 125 40 126 q 81 129 75 124 q 109 189 96 143 q 133 299 122 235 q 153 436 144 363 q 168 579 161 510 q 63 557 108 568 q 7 543 18 546 q 5 527 4 538 q 7 510 6 517 q 3 503 8 506 l 1 503 q -4 507 -3 503 q -6 523 -4 510 q -4 547 -8 536 q 0 553 -4 553 q 54 566 6 554 q 169 592 103 578 q 180 722 176 664 q 185 806 183 779 q 185 815 185 811 q 186 822 186 819 q 192 828 186 828 q 197 822 197 828 q 197 815 197 819 q 196 803 197 810 q 194 719 194 772 q 193 596 193 665 q 262 607 226 601 q 330 616 297 613 q 392 621 363 619 q 443 619 421 622 m 182 601 q 181 597 182 599 q 181 593 181 596 l 182 593 l 182 601 z "},".":{"ha":126,"x_min":44,"x_max":61,"o":"m 50 207 q 49 208 50 208 q 44 215 44 208 l 49 231 q 56 235 50 235 q 60 228 61 232 l 56 213 q 50 207 56 207 z "},",":{"ha":106,"x_min":25,"x_max":57,"o":"m 33 186 q 28 189 31 186 q 31 197 25 194 q 44 213 42 203 q 40 225 46 219 q 40 233 38 229 q 49 233 46 236 q 56 211 57 225 q 51 199 54 206 q 36 188 47 193 q 33 186 35 186 z "},"/":{"ha":438,"x_min":46,"x_max":379,"o":"m 372 649 q 374 642 379 644 q 353 613 374 640 q 303 541 333 585 q 235 444 272 497 q 164 342 199 392 q 101 251 129 292 q 60 189 72 210 q 56 186 57 186 q 53 188 53 186 q 50 194 46 190 q 91 257 63 215 q 154 349 119 299 q 226 451 189 399 q 294 547 264 504 q 344 618 325 590 q 365 647 364 646 q 372 649 368 653 z "},"(":{"ha":213,"x_min":67,"x_max":150,"o":"m 138 204 q 133 206 133 204 q 94 272 108 235 q 73 349 79 310 q 68 427 67 388 q 75 500 69 467 q 101 585 85 550 q 139 632 118 619 q 147 629 143 633 q 144 622 150 625 q 110 578 125 611 q 86 497 94 544 q 80 428 81 465 q 85 353 79 392 q 104 278 90 314 q 142 213 118 242 q 140 206 146 208 q 138 204 140 204 z "},")":{"ha":208,"x_min":60,"x_max":142,"o":"m 72 204 q 68 206 69 204 q 67 213 63 208 q 106 278 92 242 q 125 353 119 314 q 129 428 131 392 q 122 497 128 465 q 99 578 114 544 q 64 622 83 611 q 63 629 60 624 q 69 632 65 635 q 108 585 92 619 q 133 500 125 550 q 140 427 139 467 q 135 349 142 388 q 115 272 129 310 q 76 206 101 235 q 72 204 75 204 z "},"'":{"ha":164,"x_min":61,"x_max":93,"o":"m 69 467 q 64 469 67 467 q 67 478 61 475 q 81 493 79 483 q 76 506 81 501 q 76 514 71 508 q 85 514 81 515 q 90 504 88 511 q 92 490 93 497 q 86 480 90 486 q 71 467 82 474 l 69 467 z "},"&":{"ha":553,"x_min":24,"x_max":510,"o":"m 504 596 q 488 554 510 583 q 413 467 465 525 q 396 447 404 457 q 378 426 388 438 q 382 278 397 344 q 319 169 367 213 q 247 126 286 139 q 172 114 208 114 q 113 122 139 114 q 32 204 46 144 q 43 283 24 246 q 92 348 63 319 q 151 395 121 376 q 194 421 182 414 q 88 554 121 497 q 67 643 56 611 q 104 668 76 665 q 141 665 121 669 q 183 647 161 660 q 224 617 204 635 q 257 576 243 599 q 256 569 260 571 q 247 571 251 567 q 178 637 221 614 q 106 657 136 660 q 78 639 83 654 q 76 617 75 632 q 90 578 78 603 q 128 515 101 553 q 207 424 156 476 q 208 418 210 421 q 206 415 208 415 q 192 408 206 415 q 158 386 178 400 q 115 353 138 372 q 74 312 92 335 q 47 262 57 289 q 43 207 38 235 q 117 133 54 153 q 219 130 165 118 q 311 178 272 142 q 341 213 326 192 q 365 263 356 233 q 376 330 375 292 q 368 417 378 368 q 299 335 335 378 q 228 243 264 292 q 224 240 228 240 q 221 242 222 240 q 219 250 214 244 q 316 373 268 317 q 404 474 364 429 q 440 514 422 494 q 469 549 457 533 q 489 576 482 565 q 494 592 496 588 q 497 599 490 599 q 504 596 504 601 z "},"#":{"ha":538,"x_min":101,"x_max":478,"o":"m 474 388 q 478 381 478 385 q 472 376 475 376 l 471 376 q 427 381 460 379 q 353 383 394 382 l 324 333 q 388 337 358 336 q 439 338 418 338 q 446 332 446 338 q 440 326 446 326 l 439 326 q 385 326 417 326 q 317 322 353 325 q 277 253 293 282 q 261 222 261 224 q 256 219 258 219 q 254 220 254 219 q 253 221 254 221 q 251 228 247 224 q 266 256 251 229 q 304 321 281 282 q 267 320 285 321 q 233 318 250 319 q 203 272 214 290 q 190 253 192 254 q 186 251 190 251 l 183 251 q 182 260 176 254 q 193 278 183 263 q 218 317 203 293 q 149 312 176 314 q 119 310 121 310 q 114 315 114 310 q 118 322 113 319 q 151 324 119 322 q 226 329 182 326 q 244 356 235 342 q 264 385 253 369 q 205 385 233 385 q 155 385 176 385 q 120 385 133 385 q 107 385 107 385 q 101 392 101 385 q 107 397 101 397 q 123 397 108 397 q 160 397 138 397 q 212 397 183 397 q 271 396 240 396 q 308 449 289 422 q 342 499 326 476 q 371 538 358 522 q 390 561 383 554 q 399 561 394 563 q 399 553 401 556 q 380 532 392 547 q 353 495 368 517 q 320 448 338 474 q 285 396 303 422 q 315 396 300 396 q 346 394 331 396 q 383 457 365 428 q 414 506 401 486 q 421 507 417 511 q 424 500 426 504 q 394 453 411 481 q 360 394 378 426 q 431 392 400 393 q 474 388 463 390 m 310 333 q 324 358 317 346 q 340 383 332 371 q 309 385 325 385 q 278 385 293 385 q 258 356 267 369 q 240 329 249 343 q 275 331 257 331 q 310 333 293 332 z "},":":{"ha":154,"x_min":60,"x_max":79,"o":"m 72 235 q 76 228 78 232 l 72 213 q 67 207 72 207 l 67 208 q 63 215 60 208 l 65 231 q 72 235 67 235 m 67 282 q 63 289 60 285 l 65 304 q 72 308 68 310 q 76 301 79 308 l 72 286 q 67 282 72 282 z "},";":{"ha":124,"x_min":40,"x_max":71,"o":"m 53 282 q 49 289 47 285 l 53 304 q 60 308 53 311 q 64 301 64 308 l 60 286 q 54 282 60 282 l 53 282 m 63 233 q 69 211 71 225 q 50 188 69 197 q 47 186 49 186 q 43 189 43 186 q 44 197 40 194 q 58 213 58 204 q 58 219 60 217 q 56 225 57 222 q 56 233 51 229 q 63 233 58 236 z "},"<":{"ha":240,"x_min":40,"x_max":165,"o":"m 156 306 q 151 307 153 306 q 123 328 140 318 q 88 347 106 339 q 58 359 71 354 q 46 364 46 364 q 43 368 43 367 q 44 374 40 374 q 78 401 61 383 q 108 434 94 418 q 131 463 122 450 q 140 475 140 475 q 147 476 143 481 q 149 468 154 474 q 140 456 149 467 q 119 431 132 446 q 92 399 107 415 q 60 371 76 383 q 110 349 78 364 q 160 315 142 335 q 160 307 165 310 q 156 306 158 306 z "},"=":{"ha":392,"x_min":57,"x_max":319,"o":"m 315 388 q 318 379 319 385 q 313 376 315 376 l 311 376 q 270 381 301 379 q 200 384 239 383 q 123 385 161 385 q 63 385 85 385 q 57 392 57 385 q 63 397 57 397 q 102 397 67 397 q 181 397 138 397 q 263 394 224 396 q 315 388 303 392 m 290 338 q 297 332 297 338 q 290 326 297 326 q 231 324 268 326 q 159 319 194 322 q 98 313 124 315 q 72 310 72 310 l 71 310 q 65 315 68 310 q 71 322 65 319 q 97 324 71 322 q 159 330 124 326 q 231 335 194 333 q 290 338 268 338 z "},">":{"ha":254,"x_min":64,"x_max":185,"o":"m 71 306 q 67 307 68 306 q 67 315 64 310 q 90 333 76 325 q 117 349 103 342 q 145 363 132 357 q 167 371 158 368 q 135 399 150 383 q 107 431 119 415 q 86 456 94 446 q 78 468 78 467 q 79 476 75 474 q 88 475 83 479 q 96 463 88 475 q 118 434 104 450 q 149 401 132 418 q 182 374 165 383 q 185 368 185 374 q 181 364 185 365 q 139 347 158 356 q 104 328 122 339 q 75 307 86 318 q 71 306 74 306 z "},"?":{"ha":329,"x_min":49,"x_max":276,"o":"m 129 156 q 133 149 135 153 l 129 129 q 124 125 129 125 l 122 125 q 118 132 118 126 l 122 151 q 129 156 124 156 m 264 582 q 273 498 276 546 q 254 397 269 450 q 211 289 239 343 q 147 185 183 235 q 143 183 146 183 l 139 183 q 138 192 135 188 q 200 292 174 239 q 242 398 226 346 q 261 497 258 450 q 253 578 264 543 q 186 646 236 631 q 138 644 158 656 q 107 617 118 632 q 78 559 89 593 q 63 488 67 525 q 65 417 60 451 q 85 358 71 382 q 82 350 86 354 q 75 353 78 346 q 54 415 60 378 q 52 490 49 451 q 67 563 56 528 q 99 624 79 599 q 190 657 138 674 q 264 582 246 640 z "},"@":{"ha":433,"x_min":40,"x_max":389,"o":"m 292 485 q 363 426 338 469 q 389 318 389 382 q 383 253 389 279 q 368 211 376 228 q 351 186 360 194 q 336 175 342 178 q 300 174 317 164 q 281 199 288 182 q 273 236 275 215 q 271 277 271 257 q 271 313 271 297 q 247 281 261 299 q 217 247 233 263 q 186 219 201 231 q 158 211 171 208 q 138 239 142 215 q 147 301 131 272 q 185 349 163 331 q 230 372 207 367 q 269 371 253 378 q 272 363 275 368 q 265 360 272 356 q 231 360 250 367 q 192 339 211 354 q 173 321 182 332 q 158 297 164 310 q 149 270 151 285 q 149 242 146 256 q 160 222 151 225 l 163 222 q 187 233 172 222 q 217 262 201 244 q 247 299 232 279 q 274 336 263 319 q 281 338 276 339 q 283 332 286 338 q 281 297 282 319 q 283 252 281 275 q 290 210 285 229 q 307 183 296 190 q 331 186 317 178 q 342 194 335 188 q 358 217 350 201 q 371 256 365 232 q 376 318 376 281 q 353 419 376 378 q 289 474 331 460 q 193 466 243 489 q 103 390 143 443 q 53 272 54 324 q 74 196 53 221 q 122 168 93 172 q 182 179 150 164 q 189 176 188 179 q 186 168 190 171 q 135 156 158 156 q 65 189 90 156 q 47 224 54 203 q 42 271 40 244 q 56 329 44 297 q 94 396 68 361 q 189 476 135 453 q 292 485 243 500 z "},"`":{"ha":206,"x_min":88,"x_max":136,"o":"m 129 547 q 124 549 125 547 q 116 558 121 553 q 106 569 111 564 q 95 579 100 575 q 90 583 90 583 q 90 592 88 589 q 99 592 94 596 q 114 578 100 592 q 133 556 128 564 q 132 547 136 551 l 129 547 z "},"":{"ha":165,"x_min":31,"x_max":103,"o":"m 96 601 q 99 600 96 601 q 100 593 103 599 q 93 579 96 586 q 88 565 90 572 q 82 551 85 558 q 76 547 79 546 q 71 551 71 547 q 58 571 69 558 q 36 592 46 583 q 35 599 31 594 q 43 600 39 603 q 57 588 46 597 q 75 567 68 578 q 82 583 78 574 q 90 599 86 592 q 96 601 93 601 z "},"":{"ha":139,"x_min":46,"x_max":89,"o":"m 67 542 q 52 548 58 542 q 46 563 46 554 q 52 577 46 571 q 67 583 58 583 q 83 577 76 583 q 89 563 89 571 q 83 548 89 554 q 67 542 76 542 m 67 572 q 57 563 57 572 q 67 553 57 553 q 78 563 78 553 q 67 572 78 572 z "},"!":{"ha":176,"x_min":71,"x_max":113,"o":"m 85 179 q 90 172 90 178 l 86 157 q 81 151 83 151 q 79 153 79 151 q 75 160 72 153 l 79 175 q 85 179 79 179 m 106 661 q 110 654 113 658 q 94 546 100 610 q 86 418 89 482 q 83 299 83 354 q 83 214 82 243 q 79 207 85 210 l 78 207 q 72 213 72 207 q 72 298 71 242 q 75 419 72 354 q 83 547 78 483 q 99 657 89 611 q 106 661 100 661 z "},"-":{"ha":333,"x_min":83,"x_max":242,"o":"m 238 299 l 236 299 q 212 304 231 303 q 170 307 193 306 q 124 308 147 308 q 86 308 100 308 q 83 314 83 308 q 86 319 83 319 q 110 319 88 319 q 158 319 132 319 q 208 316 185 318 q 239 310 232 314 q 242 303 242 307 q 238 299 239 299 z "},"+":{"ha":322,"x_min":83,"x_max":242,"o":"m 239 310 q 242 303 242 307 q 238 299 239 299 l 236 299 q 213 303 231 301 q 172 307 194 306 q 169 263 171 283 q 163 236 167 243 q 156 235 160 233 q 151 238 151 235 q 153 239 151 238 q 158 264 156 244 q 160 307 160 283 q 119 308 139 308 q 86 308 99 308 q 83 314 83 308 q 86 319 83 319 q 111 319 89 319 q 161 318 133 319 l 161 389 q 167 392 161 392 q 172 389 172 394 l 172 318 q 214 315 196 317 q 239 310 232 313 z "},"~":{"ha":411,"x_min":54,"x_max":310,"o":"m 228 299 q 182 311 200 299 q 120 329 154 332 q 65 311 86 326 q 57 313 61 308 q 58 321 54 318 q 119 340 82 338 q 188 321 156 343 q 257 314 215 303 q 283 324 272 317 q 297 338 294 331 q 304 340 300 343 q 307 332 310 338 q 290 315 303 324 q 260 303 278 307 q 228 299 243 299 z "},"":{"ha":165,"x_min":39,"x_max":113,"o":"m 103 414 q 97 417 100 414 q 83 449 88 436 q 64 428 75 438 q 50 415 53 418 q 43 417 44 413 q 43 425 39 421 q 65 444 53 432 q 78 464 76 457 q 83 469 79 468 q 89 465 89 469 q 94 450 92 457 q 100 436 97 443 q 107 424 103 429 q 106 415 113 418 q 104 415 104 415 q 103 414 104 414 z "},"":{"ha":194,"x_min":22,"x_max":144,"o":"m 106 406 q 83 414 92 406 q 59 423 72 425 q 38 414 46 421 q 29 415 32 411 q 29 422 22 418 q 58 435 40 433 q 90 422 75 436 q 103 417 97 417 q 114 418 110 417 q 133 431 131 422 q 140 435 135 435 q 144 426 144 432 q 117 407 138 414 q 111 406 114 407 q 106 406 108 406 z "},"":{"ha":161,"x_min":50,"x_max":111,"o":"m 56 401 q 50 407 50 401 l 50 422 q 56 428 50 428 q 61 422 61 428 l 61 407 q 56 401 61 401 m 103 401 q 97 408 97 401 l 99 422 q 106 428 101 428 q 111 421 111 425 l 108 407 q 103 401 108 401 z "},"":{"ha":126,"x_min":38,"x_max":88,"o":"m 46 411 q 43 413 43 411 q 42 419 38 415 q 61 442 47 428 q 76 456 75 456 q 85 456 79 461 q 83 447 88 451 l 69 433 q 58 422 64 428 q 50 414 53 417 q 46 411 50 411 z "},"":{"ha":764,"x_min":-1,"x_max":824,"o":"m 821 -221 q 821 -229 824 -224 q 817 -231 819 -231 q 813 -229 814 -231 q 726 -169 781 -200 q 603 -111 672 -137 q 456 -67 535 -85 q 294 -49 376 -50 q 242 -119 269 -87 q 122 -212 176 -193 q 38 -218 68 -231 q 8 -196 18 -211 q 0 -161 -1 -181 q 26 -106 1 -135 q 110 -60 51 -78 q 288 -37 194 -37 q 385 131 336 33 q 476 336 433 228 q 399 322 439 329 q 324 306 360 314 q 258 292 288 299 q 213 279 229 285 l 210 279 q 206 283 206 279 q 208 290 203 288 q 255 302 225 294 q 322 317 285 310 q 401 333 360 325 q 482 349 443 342 q 544 525 517 436 q 589 695 572 614 q 610 846 606 776 q 601 964 614 915 q 529 1033 585 1033 l 528 1033 q 460 1014 497 1033 q 383 961 422 994 q 304 885 343 928 q 232 797 265 843 q 174 705 199 751 q 140 619 150 658 q 133 615 138 615 q 129 622 128 618 q 165 710 140 663 q 222 805 189 758 q 295 895 256 851 q 376 972 335 939 q 456 1026 417 1006 q 528 1046 494 1046 l 529 1046 q 576 1031 551 1046 q 613 967 600 1015 q 621 849 625 918 q 600 698 617 779 q 556 527 583 617 q 494 350 528 438 q 572 361 539 357 q 617 363 604 365 q 621 356 621 363 q 614 351 618 351 q 568 350 603 354 q 489 339 533 346 q 398 133 446 231 q 301 -37 350 35 q 463 -58 383 -40 q 612 -102 543 -75 q 735 -160 681 -129 q 821 -221 789 -192 m 232 -111 q 256 -82 244 -97 q 281 -49 268 -67 q 114 -71 193 -49 q 35 -112 58 -86 q 11 -161 13 -139 q 18 -189 10 -176 q 42 -208 26 -201 q 120 -201 69 -219 q 232 -111 171 -182 m 510 1178 q 513 1176 510 1178 q 514 1169 517 1175 q 507 1156 510 1163 q 501 1142 504 1149 q 496 1128 499 1135 q 490 1124 493 1122 q 485 1128 485 1124 q 472 1147 483 1135 q 450 1168 460 1160 q 449 1175 444 1171 q 457 1176 453 1179 q 471 1164 460 1174 q 489 1143 482 1154 q 496 1159 492 1150 q 504 1175 500 1168 q 510 1178 507 1178 z "},"":{"ha":447,"x_min":-3,"x_max":464,"o":"m 313 132 q 215 137 265 132 q 124 149 165 142 q 54 161 82 156 q 24 169 26 167 q 21 176 18 172 q 28 181 21 181 q 50 194 33 181 q 89 232 67 208 q 136 286 111 256 q 183 349 161 317 q 209 391 200 374 q 222 419 218 408 q 226 435 226 431 q 226 443 226 440 q 214 456 222 453 q 169 450 199 463 q 93 417 139 438 q 53 399 74 408 q 8 379 32 390 q 0 382 3 376 q 3 389 -3 386 q 48 409 26 400 q 88 428 69 418 q 169 463 138 451 q 218 467 200 474 q 236 446 233 460 q 192 342 246 421 q 156 294 176 319 q 115 244 136 268 q 75 202 94 221 q 42 175 56 183 q 90 165 58 171 q 163 153 122 158 q 247 145 203 149 q 331 143 290 142 q 403 151 371 144 q 453 172 436 157 q 461 172 456 175 q 460 164 464 167 q 401 139 440 146 q 313 132 361 132 m 182 568 q 185 567 182 568 q 186 560 189 565 q 179 546 182 553 q 174 532 176 539 q 168 518 171 525 q 163 514 165 513 q 157 518 157 514 q 144 538 156 525 q 122 558 132 550 q 121 565 117 561 q 129 567 125 569 q 143 554 132 564 q 161 533 154 544 q 168 549 164 540 q 176 565 172 558 q 182 568 179 568 z "},"\"":{"ha":183,"x_min":46,"x_max":124,"o":"m 61 464 q 69 464 64 469 q 76 442 78 456 q 71 430 75 436 q 56 418 67 424 l 54 418 q 49 421 51 418 q 51 428 46 425 q 65 443 64 435 q 61 456 65 453 q 61 464 56 461 m 115 464 q 122 442 124 456 q 117 430 121 436 q 103 418 114 424 l 100 418 q 94 421 97 418 q 97 428 92 425 q 111 443 108 433 q 107 456 114 453 q 107 464 104 461 q 115 464 111 468 z "},"":{"ha":628,"x_min":-4,"x_max":508,"o":"m 204 -231 q 155 -224 174 -231 q 124 -209 136 -218 q 108 -190 113 -200 q 101 -171 103 -179 q 110 -123 99 -149 q 142 -74 121 -97 q 192 -34 164 -51 q 250 -10 219 -17 q 257 -15 257 -10 q 253 -21 257 -21 q 194 -44 221 -28 q 149 -83 168 -61 q 119 -127 129 -104 q 113 -169 110 -150 q 148 -210 117 -197 q 232 -218 179 -222 q 306 -203 264 -215 q 386 -167 347 -192 q 453 -106 425 -143 q 489 -14 482 -68 q 481 83 496 40 q 435 163 465 126 q 363 231 404 199 q 278 297 322 264 q 182 370 231 332 q 94 455 133 408 q 28 560 54 501 q 0 692 3 618 q 37 877 -4 799 q 156 990 78 956 q 296 1006 224 1019 q 421 939 368 992 q 476 856 458 901 q 497 762 493 810 q 494 668 500 714 q 478 586 488 622 q 461 528 469 550 q 453 506 453 506 q 444 503 450 501 q 442 510 439 506 q 450 532 442 510 q 467 589 458 554 q 481 668 475 624 q 484 759 488 713 q 465 851 481 806 q 413 931 449 896 q 293 994 361 982 q 161 979 225 1007 q 47 872 86 947 q 11 692 8 796 q 38 564 14 619 q 101 463 63 508 q 188 379 140 417 q 285 306 236 342 q 372 239 331 272 q 445 168 414 206 q 492 85 476 131 q 501 -15 508 40 q 469 -103 494 -65 q 406 -168 443 -142 q 324 -210 368 -194 q 233 -229 279 -225 q 218 -231 225 -231 q 204 -231 211 -231 m 279 1126 q 282 1125 279 1126 q 283 1118 286 1124 q 276 1104 279 1111 q 271 1090 274 1097 q 265 1076 268 1083 q 260 1072 263 1071 q 254 1076 254 1072 q 241 1096 253 1083 q 219 1117 229 1108 q 218 1124 214 1119 q 226 1125 222 1128 q 240 1113 229 1122 q 258 1092 251 1103 q 265 1108 261 1099 q 274 1124 269 1117 q 279 1126 276 1126 z "},"":{"ha":228,"x_min":-32,"x_max":236,"o":"m 64 -171 q 56 -169 58 -171 q 35 -154 46 -167 q 19 -110 25 -142 q 25 6 11 -58 q 65 129 39 69 q 56 151 60 140 q 46 171 51 161 q 3 274 18 231 q 6 360 -11 317 q 13 364 7 364 q 17 356 17 361 q 15 276 1 317 q 56 176 28 236 l 72 143 q 154 264 108 221 q 232 299 197 304 q 236 292 236 296 q 229 288 233 286 q 161 256 197 292 q 117 201 139 233 q 78 129 96 169 q 119 32 100 86 q 131 -77 140 -26 q 99 -154 122 -128 q 64 -171 82 -171 m 72 115 q 35 0 47 60 q 31 -108 22 -60 q 58 -160 38 -153 q 90 -146 72 -164 q 121 -74 113 -122 q 108 28 129 -26 q 90 74 99 53 q 72 115 81 96 m 33 482 q 36 481 33 482 q 38 474 40 479 q 31 460 33 467 q 25 446 28 453 q 19 432 22 439 q 14 428 17 426 q 8 432 8 428 q -5 451 7 439 q -26 472 -17 464 q -28 479 -32 475 q -19 481 -24 483 q -6 468 -17 478 q 13 447 6 458 q 19 463 15 454 q 28 479 24 472 q 33 482 31 482 z "},"":{"ha":785,"x_min":-6,"x_max":724,"o":"m 719 971 q 724 965 724 971 q 722 917 724 964 q 715 794 721 871 q 699 617 710 717 q 672 407 689 517 q 631 186 656 297 q 571 -24 606 75 q 526 -126 549 -86 q 481 -188 503 -165 q 437 -220 458 -211 q 397 -229 415 -229 q 381 -228 386 -229 q 306 -184 340 -221 q 247 -95 272 -147 q 208 19 222 -43 q 196 139 194 81 q 201 144 196 144 q 207 139 207 144 q 220 17 206 78 q 260 -93 235 -43 q 317 -177 285 -143 q 383 -217 349 -211 q 478 -176 433 -226 q 560 -19 524 -126 q 627 227 600 96 q 672 483 654 358 q 697 715 689 608 q 710 886 706 821 q 684 763 700 836 q 647 608 668 690 q 599 444 625 526 q 542 292 572 361 q 479 174 513 222 q 410 113 446 125 q 365 117 385 101 q 333 171 344 131 q 317 268 322 211 q 311 394 311 325 q 311 538 311 464 q 310 671 311 604 q 306 796 310 738 q 294 901 303 854 q 269 978 286 949 q 192 1014 240 1033 q 142 975 168 1004 q 92 901 115 946 q 49 797 68 856 q 20 670 31 738 q 11 528 10 603 q 31 378 13 454 q 26 371 31 371 q 19 375 19 371 q 1 596 -6 486 q 35 795 8 706 q 104 947 63 885 q 189 1025 146 1008 q 279 983 244 1046 q 305 906 296 954 q 317 799 314 858 q 322 672 321 739 q 322 538 322 606 q 323 400 322 468 q 328 276 324 332 q 342 179 332 219 q 372 126 353 139 q 406 124 388 115 q 467 177 438 135 q 525 280 497 219 q 577 415 553 340 q 622 565 601 489 q 660 712 643 640 q 688 840 676 783 q 706 931 700 896 q 713 967 713 965 q 719 971 713 971 m 490 1039 q 485 1044 485 1039 l 485 1060 q 490 1065 485 1065 q 496 1060 496 1065 l 496 1044 q 490 1039 496 1039 m 538 1039 q 532 1046 532 1039 l 533 1060 q 540 1065 536 1065 q 546 1058 546 1063 l 543 1044 q 538 1039 543 1039 z "},"":{"ha":1244,"x_min":-6,"x_max":1281,"o":"m 1278 -218 q 1275 -225 1281 -222 q 1206 -239 1239 -239 q 1121 -208 1158 -239 q 1057 -108 1081 -174 q 1023 44 1033 -42 q 1012 231 1013 131 q 1018 431 1011 331 q 893 441 960 438 q 756 446 826 444 q 658 303 710 376 q 549 149 607 229 q 413 -17 481 56 q 283 -138 346 -90 q 167 -207 221 -186 q 71 -218 113 -228 q 3 -133 14 -206 q 10 -26 -6 -83 q 54 84 25 32 q 121 176 83 136 q 196 231 158 217 q 300 193 263 254 q 299 185 303 188 q 290 186 296 183 q 200 219 257 240 q 129 168 165 207 q 65 78 93 129 q 22 -29 36 26 q 14 -132 7 -85 q 74 -207 25 -196 q 154 -199 106 -215 q 263 -138 203 -182 q 394 -22 324 -94 q 539 156 464 51 q 647 307 596 235 q 742 446 697 379 q 549 444 644 447 q 378 439 454 442 q 256 433 303 436 q 207 431 208 431 q 201 435 201 428 q 206 442 199 442 q 256 444 207 442 q 381 450 304 447 q 554 456 458 453 q 749 457 650 458 q 899 690 835 586 q 1007 868 964 794 q 1072 982 1050 942 q 1094 1024 1094 1022 q 1101 1026 1097 1029 q 1106 1021 1106 1026 q 1097 969 1106 1018 q 1076 838 1088 919 q 1051 653 1064 757 q 1032 440 1039 550 q 1033 438 1032 439 q 1033 435 1033 438 q 1031 432 1033 432 q 1024 233 1024 332 q 1034 49 1024 133 q 1067 -101 1044 -36 q 1128 -199 1089 -165 q 1271 -214 1185 -247 q 1278 -218 1275 -214 m 763 457 q 898 453 833 456 q 1019 443 963 450 q 1034 614 1025 531 q 1053 769 1043 697 q 1073 898 1064 842 q 1088 986 1082 954 q 978 794 1058 932 q 763 457 897 657 m 1136 1063 q 1131 1064 1132 1063 q 1123 1074 1128 1068 q 1113 1085 1118 1079 q 1102 1094 1107 1090 q 1097 1099 1097 1099 q 1097 1107 1094 1104 q 1106 1107 1101 1111 q 1121 1093 1107 1107 q 1140 1071 1135 1079 q 1139 1063 1143 1067 l 1136 1063 z "},"":{"ha":1244,"x_min":-6,"x_max":1281,"o":"m 1278 -218 q 1275 -225 1281 -222 q 1206 -239 1239 -239 q 1121 -208 1158 -239 q 1057 -108 1081 -174 q 1023 44 1033 -42 q 1012 231 1013 131 q 1018 431 1011 331 q 893 441 960 438 q 756 446 826 444 q 658 303 710 376 q 549 149 607 229 q 413 -17 481 56 q 283 -138 346 -90 q 167 -207 221 -186 q 71 -218 113 -228 q 3 -133 14 -206 q 10 -26 -6 -83 q 54 84 25 32 q 121 176 83 136 q 196 231 158 217 q 300 193 263 254 q 299 185 303 188 q 290 186 296 183 q 200 219 257 240 q 129 168 165 207 q 65 78 93 129 q 22 -29 36 26 q 14 -132 7 -85 q 74 -207 25 -196 q 154 -199 106 -215 q 263 -138 203 -182 q 394 -22 324 -94 q 539 156 464 51 q 647 307 596 235 q 742 446 697 379 q 549 444 644 447 q 378 439 454 442 q 256 433 303 436 q 207 431 208 431 q 201 435 201 428 q 206 442 199 442 q 256 444 207 442 q 381 450 304 447 q 554 456 458 453 q 749 457 650 458 q 899 690 835 586 q 1007 868 964 794 q 1072 982 1050 942 q 1094 1024 1094 1022 q 1101 1026 1097 1029 q 1106 1021 1106 1026 q 1097 969 1106 1018 q 1076 838 1088 919 q 1051 653 1064 757 q 1032 440 1039 550 q 1033 438 1032 439 q 1033 435 1033 438 q 1031 432 1033 432 q 1024 233 1024 332 q 1034 49 1024 133 q 1067 -101 1044 -36 q 1128 -199 1089 -165 q 1271 -214 1185 -247 q 1278 -218 1275 -214 m 763 457 q 898 453 833 456 q 1019 443 963 450 q 1034 614 1025 531 q 1053 769 1043 697 q 1073 898 1064 842 q 1088 986 1082 954 q 978 794 1058 932 q 763 457 897 657 m 1088 1079 q 1085 1081 1085 1079 q 1083 1088 1079 1083 q 1103 1110 1089 1096 q 1118 1124 1117 1124 q 1126 1124 1121 1129 q 1125 1115 1129 1119 l 1111 1101 q 1100 1090 1106 1096 q 1092 1082 1094 1085 q 1088 1079 1092 1079 z "},"":{"ha":1244,"x_min":-6,"x_max":1281,"o":"m 1278 -218 q 1275 -225 1281 -222 q 1206 -239 1239 -239 q 1121 -208 1158 -239 q 1057 -108 1081 -174 q 1023 44 1033 -42 q 1012 231 1013 131 q 1018 431 1011 331 q 893 441 960 438 q 756 446 826 444 q 658 303 710 376 q 549 149 607 229 q 413 -17 481 56 q 283 -138 346 -90 q 167 -207 221 -186 q 71 -218 113 -228 q 3 -133 14 -206 q 10 -26 -6 -83 q 54 84 25 32 q 121 176 83 136 q 196 231 158 217 q 300 193 263 254 q 299 185 303 188 q 290 186 296 183 q 200 219 257 240 q 129 168 165 207 q 65 78 93 129 q 22 -29 36 26 q 14 -132 7 -85 q 74 -207 25 -196 q 154 -199 106 -215 q 263 -138 203 -182 q 394 -22 324 -94 q 539 156 464 51 q 647 307 596 235 q 742 446 697 379 q 549 444 644 447 q 378 439 454 442 q 256 433 303 436 q 207 431 208 431 q 201 435 201 428 q 206 442 199 442 q 256 444 207 442 q 381 450 304 447 q 554 456 458 453 q 749 457 650 458 q 899 690 835 586 q 1007 868 964 794 q 1072 982 1050 942 q 1094 1024 1094 1022 q 1101 1026 1097 1029 q 1106 1021 1106 1026 q 1097 969 1106 1018 q 1076 838 1088 919 q 1051 653 1064 757 q 1032 440 1039 550 q 1033 438 1032 439 q 1033 435 1033 438 q 1031 432 1033 432 q 1024 233 1024 332 q 1034 49 1024 133 q 1067 -101 1044 -36 q 1128 -199 1089 -165 q 1271 -214 1185 -247 q 1278 -218 1275 -214 m 763 457 q 898 453 833 456 q 1019 443 963 450 q 1034 614 1025 531 q 1053 769 1043 697 q 1073 898 1064 842 q 1088 986 1082 954 q 978 794 1058 932 q 763 457 897 657 m 1136 1083 q 1131 1086 1133 1083 q 1117 1118 1121 1106 q 1097 1097 1108 1107 q 1083 1085 1086 1088 q 1076 1086 1078 1082 q 1076 1094 1072 1090 q 1098 1114 1086 1101 q 1111 1133 1110 1126 q 1117 1139 1113 1138 q 1122 1135 1122 1139 q 1128 1119 1125 1126 q 1133 1106 1131 1113 q 1140 1093 1136 1099 q 1139 1085 1146 1088 q 1138 1084 1138 1085 q 1136 1083 1138 1083 z "},"":{"ha":1244,"x_min":-6,"x_max":1281,"o":"m 1278 -218 q 1275 -225 1281 -222 q 1206 -239 1239 -239 q 1121 -208 1158 -239 q 1057 -108 1081 -174 q 1023 44 1033 -42 q 1012 231 1013 131 q 1018 431 1011 331 q 893 441 960 438 q 756 446 826 444 q 658 303 710 376 q 549 149 607 229 q 413 -17 481 56 q 283 -138 346 -90 q 167 -207 221 -186 q 71 -218 113 -228 q 3 -133 14 -206 q 10 -26 -6 -83 q 54 84 25 32 q 121 176 83 136 q 196 231 158 217 q 300 193 263 254 q 299 185 303 188 q 290 186 296 183 q 200 219 257 240 q 129 168 165 207 q 65 78 93 129 q 22 -29 36 26 q 14 -132 7 -85 q 74 -207 25 -196 q 154 -199 106 -215 q 263 -138 203 -182 q 394 -22 324 -94 q 539 156 464 51 q 647 307 596 235 q 742 446 697 379 q 549 444 644 447 q 378 439 454 442 q 256 433 303 436 q 207 431 208 431 q 201 435 201 428 q 206 442 199 442 q 256 444 207 442 q 381 450 304 447 q 554 456 458 453 q 749 457 650 458 q 899 690 835 586 q 1007 868 964 794 q 1072 982 1050 942 q 1094 1024 1094 1022 q 1101 1026 1097 1029 q 1106 1021 1106 1026 q 1097 969 1106 1018 q 1076 838 1088 919 q 1051 653 1064 757 q 1032 440 1039 550 q 1033 438 1032 439 q 1033 435 1033 438 q 1031 432 1033 432 q 1024 233 1024 332 q 1034 49 1024 133 q 1067 -101 1044 -36 q 1128 -199 1089 -165 q 1271 -214 1185 -247 q 1278 -218 1275 -214 m 763 457 q 898 453 833 456 q 1019 443 963 450 q 1034 614 1025 531 q 1053 769 1043 697 q 1073 898 1064 842 q 1088 986 1082 954 q 978 794 1058 932 q 763 457 897 657 m 1138 1082 q 1115 1090 1124 1082 q 1091 1099 1104 1101 q 1069 1090 1078 1097 q 1061 1092 1064 1088 q 1061 1099 1054 1094 q 1090 1111 1072 1110 q 1122 1099 1107 1113 q 1135 1093 1129 1093 q 1146 1094 1142 1093 q 1165 1107 1163 1099 q 1172 1111 1167 1111 q 1176 1103 1176 1108 q 1149 1083 1169 1090 q 1143 1083 1146 1083 q 1138 1082 1140 1082 z "},"":{"ha":1244,"x_min":-6,"x_max":1281,"o":"m 1278 -218 q 1275 -225 1281 -222 q 1206 -239 1239 -239 q 1121 -208 1158 -239 q 1057 -108 1081 -174 q 1023 44 1033 -42 q 1012 231 1013 131 q 1018 431 1011 331 q 893 441 960 438 q 756 446 826 444 q 658 303 710 376 q 549 149 607 229 q 413 -17 481 56 q 283 -138 346 -90 q 167 -207 221 -186 q 71 -218 113 -228 q 3 -133 14 -206 q 10 -26 -6 -83 q 54 84 25 32 q 121 176 83 136 q 196 231 158 217 q 300 193 263 254 q 299 185 303 188 q 290 186 296 183 q 200 219 257 240 q 129 168 165 207 q 65 78 93 129 q 22 -29 36 26 q 14 -132 7 -85 q 74 -207 25 -196 q 154 -199 106 -215 q 263 -138 203 -182 q 394 -22 324 -94 q 539 156 464 51 q 647 307 596 235 q 742 446 697 379 q 549 444 644 447 q 378 439 454 442 q 256 433 303 436 q 207 431 208 431 q 201 435 201 428 q 206 442 199 442 q 256 444 207 442 q 381 450 304 447 q 554 456 458 453 q 749 457 650 458 q 899 690 835 586 q 1007 868 964 794 q 1072 982 1050 942 q 1094 1024 1094 1022 q 1101 1026 1097 1029 q 1106 1021 1106 1026 q 1097 969 1106 1018 q 1076 838 1088 919 q 1051 653 1064 757 q 1032 440 1039 550 q 1033 438 1032 439 q 1033 435 1033 438 q 1031 432 1033 432 q 1024 233 1024 332 q 1034 49 1024 133 q 1067 -101 1044 -36 q 1128 -199 1089 -165 q 1271 -214 1185 -247 q 1278 -218 1275 -214 m 763 457 q 898 453 833 456 q 1019 443 963 450 q 1034 614 1025 531 q 1053 769 1043 697 q 1073 898 1064 842 q 1088 986 1082 954 q 978 794 1058 932 q 763 457 897 657 m 1079 1086 q 1074 1092 1074 1086 l 1074 1107 q 1079 1113 1074 1113 q 1085 1107 1085 1113 l 1085 1092 q 1079 1086 1085 1086 m 1126 1086 q 1121 1093 1121 1086 l 1122 1107 q 1129 1113 1125 1113 q 1135 1106 1135 1110 l 1132 1092 q 1126 1086 1132 1086 z "},"":{"ha":1244,"x_min":-6,"x_max":1281,"o":"m 1278 -218 q 1275 -225 1281 -222 q 1206 -239 1239 -239 q 1121 -208 1158 -239 q 1057 -108 1081 -174 q 1023 44 1033 -42 q 1012 231 1013 131 q 1018 431 1011 331 q 893 441 960 438 q 756 446 826 444 q 658 303 710 376 q 549 149 607 229 q 413 -17 481 56 q 283 -138 346 -90 q 167 -207 221 -186 q 71 -218 113 -228 q 3 -133 14 -206 q 10 -26 -6 -83 q 54 84 25 32 q 121 176 83 136 q 196 231 158 217 q 300 193 263 254 q 299 185 303 188 q 290 186 296 183 q 200 219 257 240 q 129 168 165 207 q 65 78 93 129 q 22 -29 36 26 q 14 -132 7 -85 q 74 -207 25 -196 q 154 -199 106 -215 q 263 -138 203 -182 q 394 -22 324 -94 q 539 156 464 51 q 647 307 596 235 q 742 446 697 379 q 549 444 644 447 q 378 439 454 442 q 256 433 303 436 q 207 431 208 431 q 201 435 201 428 q 206 442 199 442 q 256 444 207 442 q 381 450 304 447 q 554 456 458 453 q 749 457 650 458 q 899 690 835 586 q 1007 868 964 794 q 1072 982 1050 942 q 1094 1024 1094 1022 q 1101 1026 1097 1029 q 1106 1021 1106 1026 q 1097 969 1106 1018 q 1076 838 1088 919 q 1051 653 1064 757 q 1032 440 1039 550 q 1033 438 1032 439 q 1033 435 1033 438 q 1031 432 1033 432 q 1024 233 1024 332 q 1034 49 1024 133 q 1067 -101 1044 -36 q 1128 -199 1089 -165 q 1271 -214 1185 -247 q 1278 -218 1275 -214 m 763 457 q 898 453 833 456 q 1019 443 963 450 q 1034 614 1025 531 q 1053 769 1043 697 q 1073 898 1064 842 q 1088 986 1082 954 q 978 794 1058 932 q 763 457 897 657 m 1104 1032 q 1090 1038 1096 1032 q 1083 1053 1083 1044 q 1090 1067 1083 1061 q 1104 1074 1096 1074 q 1120 1067 1114 1074 q 1126 1053 1126 1061 q 1120 1038 1126 1044 q 1104 1032 1114 1032 m 1104 1063 q 1094 1053 1094 1063 q 1104 1043 1094 1043 q 1115 1053 1115 1043 q 1104 1063 1115 1063 z "},"":{"ha":700,"x_min":-18,"x_max":753,"o":"m 710 -107 q 732 -197 753 -164 q 622 -236 710 -236 q 600 -236 611 -236 q 576 -233 589 -236 q 419 -196 506 -225 q 251 -117 332 -167 q 104 2 169 -68 q 11 161 39 72 q 32 319 -18 263 q 113 371 63 354 q 217 392 163 388 q 322 395 271 397 q 401 389 372 393 q 339 433 378 403 q 261 509 300 463 q 190 618 222 556 q 144 763 157 681 q 155 889 133 832 q 225 982 176 946 q 333 1024 272 1018 q 449 1004 394 1031 q 494 976 469 994 q 542 924 519 957 q 582 843 565 892 q 603 726 599 794 q 597 719 603 719 q 592 725 592 719 q 572 839 588 792 q 533 917 556 886 q 487 967 511 949 q 444 994 463 985 q 334 1013 392 1018 q 232 974 276 1007 q 165 884 185 938 q 156 764 144 831 q 215 594 171 665 q 308 476 260 522 q 393 407 356 429 q 432 385 431 385 q 435 378 438 382 q 429 374 432 374 q 405 376 428 374 q 347 382 382 379 q 268 384 311 385 q 182 376 225 383 q 101 354 139 369 q 40 313 64 339 q 22 165 -7 257 q 114 9 49 78 q 260 -108 179 -60 q 425 -186 340 -157 q 578 -222 510 -215 q 673 -221 635 -229 q 722 -192 711 -212 q 700 -112 739 -164 q 606 -29 667 -69 q 482 39 546 11 q 363 77 418 67 q 286 72 307 88 q 278 74 282 69 q 279 82 275 79 q 328 93 296 94 q 401 81 361 92 q 487 49 442 69 q 574 4 532 29 q 652 -49 617 -21 q 710 -107 688 -78 m 440 1076 q 435 1078 436 1076 q 427 1088 432 1082 q 417 1099 422 1093 q 406 1108 411 1104 q 401 1113 401 1113 q 401 1121 399 1118 q 410 1121 406 1125 q 425 1107 411 1121 q 444 1085 439 1093 q 443 1076 447 1081 l 440 1076 z "},"":{"ha":700,"x_min":-18,"x_max":753,"o":"m 710 -107 q 732 -197 753 -164 q 622 -236 710 -236 q 600 -236 611 -236 q 576 -233 589 -236 q 419 -196 506 -225 q 251 -117 332 -167 q 104 2 169 -68 q 11 161 39 72 q 32 319 -18 263 q 113 371 63 354 q 217 392 163 388 q 322 395 271 397 q 401 389 372 393 q 339 433 378 403 q 261 509 300 463 q 190 618 222 556 q 144 763 157 681 q 155 889 133 832 q 225 982 176 946 q 333 1024 272 1018 q 449 1004 394 1031 q 494 976 469 994 q 542 924 519 957 q 582 843 565 892 q 603 726 599 794 q 597 719 603 719 q 592 725 592 719 q 572 839 588 792 q 533 917 556 886 q 487 967 511 949 q 444 994 463 985 q 334 1013 392 1018 q 232 974 276 1007 q 165 884 185 938 q 156 764 144 831 q 215 594 171 665 q 308 476 260 522 q 393 407 356 429 q 432 385 431 385 q 435 378 438 382 q 429 374 432 374 q 405 376 428 374 q 347 382 382 379 q 268 384 311 385 q 182 376 225 383 q 101 354 139 369 q 40 313 64 339 q 22 165 -7 257 q 114 9 49 78 q 260 -108 179 -60 q 425 -186 340 -157 q 578 -222 510 -215 q 673 -221 635 -229 q 722 -192 711 -212 q 700 -112 739 -164 q 606 -29 667 -69 q 482 39 546 11 q 363 77 418 67 q 286 72 307 88 q 278 74 282 69 q 279 82 275 79 q 328 93 296 94 q 401 81 361 92 q 487 49 442 69 q 574 4 532 29 q 652 -49 617 -21 q 710 -107 688 -78 m 368 1063 q 365 1064 365 1063 q 364 1071 360 1067 q 383 1093 369 1079 q 399 1107 397 1107 q 407 1107 401 1113 q 406 1099 410 1103 l 392 1085 q 381 1074 386 1079 q 372 1065 375 1068 q 368 1063 372 1063 z "},"":{"ha":700,"x_min":-18,"x_max":753,"o":"m 710 -107 q 732 -197 753 -164 q 622 -236 710 -236 q 600 -236 611 -236 q 576 -233 589 -236 q 419 -196 506 -225 q 251 -117 332 -167 q 104 2 169 -68 q 11 161 39 72 q 32 319 -18 263 q 113 371 63 354 q 217 392 163 388 q 322 395 271 397 q 401 389 372 393 q 339 433 378 403 q 261 509 300 463 q 190 618 222 556 q 144 763 157 681 q 155 889 133 832 q 225 982 176 946 q 333 1024 272 1018 q 449 1004 394 1031 q 494 976 469 994 q 542 924 519 957 q 582 843 565 892 q 603 726 599 794 q 597 719 603 719 q 592 725 592 719 q 572 839 588 792 q 533 917 556 886 q 487 967 511 949 q 444 994 463 985 q 334 1013 392 1018 q 232 974 276 1007 q 165 884 185 938 q 156 764 144 831 q 215 594 171 665 q 308 476 260 522 q 393 407 356 429 q 432 385 431 385 q 435 378 438 382 q 429 374 432 374 q 405 376 428 374 q 347 382 382 379 q 268 384 311 385 q 182 376 225 383 q 101 354 139 369 q 40 313 64 339 q 22 165 -7 257 q 114 9 49 78 q 260 -108 179 -60 q 425 -186 340 -157 q 578 -222 510 -215 q 673 -221 635 -229 q 722 -192 711 -212 q 700 -112 739 -164 q 606 -29 667 -69 q 482 39 546 11 q 363 77 418 67 q 286 72 307 88 q 278 74 282 69 q 279 82 275 79 q 328 93 296 94 q 401 81 361 92 q 487 49 442 69 q 574 4 532 29 q 652 -49 617 -21 q 710 -107 688 -78 m 440 1086 q 435 1089 438 1086 q 421 1121 425 1108 q 401 1100 413 1110 q 388 1088 390 1090 q 381 1089 382 1085 q 381 1097 376 1093 q 402 1117 390 1104 q 415 1136 414 1129 q 421 1142 417 1140 q 426 1138 426 1142 q 432 1122 429 1129 q 438 1108 435 1115 q 444 1096 440 1101 q 443 1088 450 1090 q 442 1087 442 1088 q 440 1086 442 1086 z "},"":{"ha":700,"x_min":-18,"x_max":753,"o":"m 710 -107 q 732 -197 753 -164 q 622 -236 710 -236 q 600 -236 611 -236 q 576 -233 589 -236 q 419 -196 506 -225 q 251 -117 332 -167 q 104 2 169 -68 q 11 161 39 72 q 32 319 -18 263 q 113 371 63 354 q 217 392 163 388 q 322 395 271 397 q 401 389 372 393 q 339 433 378 403 q 261 509 300 463 q 190 618 222 556 q 144 763 157 681 q 155 889 133 832 q 225 982 176 946 q 333 1024 272 1018 q 449 1004 394 1031 q 494 976 469 994 q 542 924 519 957 q 582 843 565 892 q 603 726 599 794 q 597 719 603 719 q 592 725 592 719 q 572 839 588 792 q 533 917 556 886 q 487 967 511 949 q 444 994 463 985 q 334 1013 392 1018 q 232 974 276 1007 q 165 884 185 938 q 156 764 144 831 q 215 594 171 665 q 308 476 260 522 q 393 407 356 429 q 432 385 431 385 q 435 378 438 382 q 429 374 432 374 q 405 376 428 374 q 347 382 382 379 q 268 384 311 385 q 182 376 225 383 q 101 354 139 369 q 40 313 64 339 q 22 165 -7 257 q 114 9 49 78 q 260 -108 179 -60 q 425 -186 340 -157 q 578 -222 510 -215 q 673 -221 635 -229 q 722 -192 711 -212 q 700 -112 739 -164 q 606 -29 667 -69 q 482 39 546 11 q 363 77 418 67 q 286 72 307 88 q 278 74 282 69 q 279 82 275 79 q 328 93 296 94 q 401 81 361 92 q 487 49 442 69 q 574 4 532 29 q 652 -49 617 -21 q 710 -107 688 -78 m 346 1088 q 340 1093 340 1088 l 340 1108 q 346 1114 340 1114 q 351 1108 351 1114 l 351 1093 q 346 1088 351 1088 m 393 1088 q 388 1094 388 1088 l 389 1108 q 396 1114 392 1114 q 401 1107 401 1111 l 399 1093 q 393 1088 399 1088 z "},"":{"ha":932,"x_min":0,"x_max":933,"o":"m 926 935 q 931 928 933 935 q 881 906 928 913 q 758 900 833 900 q 665 902 714 900 q 564 907 617 904 q 570 796 567 865 q 576 638 574 726 q 580 447 579 549 q 578 242 581 346 q 568 35 575 138 q 549 -156 561 -67 q 683 -138 619 -147 q 794 -120 746 -129 q 872 -102 843 -111 q 904 -86 901 -93 q 911 -82 907 -81 q 915 -87 918 -82 q 883 -109 914 -99 q 803 -129 853 -119 q 686 -149 753 -139 q 547 -167 619 -158 q 546 -176 546 -171 q 540 -181 543 -181 l 539 -181 q 533 -174 533 -181 q 535 -168 535 -172 q 405 -181 471 -175 q 277 -192 339 -187 q 159 -199 215 -196 q 60 -201 103 -201 q 31 -201 44 -201 q 6 -200 17 -201 q 0 -194 0 -200 q 6 -189 0 -189 q 110 -190 49 -192 q 242 -183 171 -187 q 388 -172 313 -179 q 536 -157 464 -165 q 557 34 550 -68 q 567 241 564 136 q 569 448 569 346 q 565 638 568 550 q 559 797 563 726 q 553 907 556 867 q 399 917 476 911 q 253 930 321 924 q 131 942 185 936 q 50 950 78 947 q 44 956 44 950 q 50 961 44 961 q 551 919 353 929 q 550 934 550 928 q 550 944 550 940 q 549 954 550 950 q 554 961 549 961 q 561 956 558 961 q 561 945 561 954 q 563 918 561 936 q 826 913 736 908 q 919 931 917 917 q 926 935 922 936 m 574 1025 q 568 1026 569 1025 q 560 1036 565 1031 q 550 1047 556 1042 q 540 1057 544 1053 q 535 1061 535 1061 q 535 1069 532 1067 q 543 1069 539 1074 q 558 1056 544 1069 q 578 1033 572 1042 q 576 1025 581 1029 l 574 1025 z "},"":{"ha":932,"x_min":0,"x_max":933,"o":"m 926 935 q 931 928 933 935 q 881 906 928 913 q 758 900 833 900 q 665 902 714 900 q 564 907 617 904 q 570 796 567 865 q 576 638 574 726 q 580 447 579 549 q 578 242 581 346 q 568 35 575 138 q 549 -156 561 -67 q 683 -138 619 -147 q 794 -120 746 -129 q 872 -102 843 -111 q 904 -86 901 -93 q 911 -82 907 -81 q 915 -87 918 -82 q 883 -109 914 -99 q 803 -129 853 -119 q 686 -149 753 -139 q 547 -167 619 -158 q 546 -176 546 -171 q 540 -181 543 -181 l 539 -181 q 533 -174 533 -181 q 535 -168 535 -172 q 405 -181 471 -175 q 277 -192 339 -187 q 159 -199 215 -196 q 60 -201 103 -201 q 31 -201 44 -201 q 6 -200 17 -201 q 0 -194 0 -200 q 6 -189 0 -189 q 110 -190 49 -192 q 242 -183 171 -187 q 388 -172 313 -179 q 536 -157 464 -165 q 557 34 550 -68 q 567 241 564 136 q 569 448 569 346 q 565 638 568 550 q 559 797 563 726 q 553 907 556 867 q 399 917 476 911 q 253 930 321 924 q 131 942 185 936 q 50 950 78 947 q 44 956 44 950 q 50 961 44 961 q 551 919 353 929 q 550 934 550 928 q 550 944 550 940 q 549 954 550 950 q 554 961 549 961 q 561 956 558 961 q 561 945 561 954 q 563 918 561 936 q 826 913 736 908 q 919 931 917 917 q 926 935 922 936 m 535 1021 q 532 1022 532 1021 q 531 1029 526 1025 q 550 1051 536 1038 q 565 1065 564 1065 q 574 1065 568 1071 q 572 1057 576 1061 l 558 1043 q 547 1032 553 1038 q 539 1024 542 1026 q 535 1021 539 1021 z "},"":{"ha":932,"x_min":0,"x_max":933,"o":"m 926 935 q 931 928 933 935 q 881 906 928 913 q 758 900 833 900 q 665 902 714 900 q 564 907 617 904 q 570 796 567 865 q 576 638 574 726 q 580 447 579 549 q 578 242 581 346 q 568 35 575 138 q 549 -156 561 -67 q 683 -138 619 -147 q 794 -120 746 -129 q 872 -102 843 -111 q 904 -86 901 -93 q 911 -82 907 -81 q 915 -87 918 -82 q 883 -109 914 -99 q 803 -129 853 -119 q 686 -149 753 -139 q 547 -167 619 -158 q 546 -176 546 -171 q 540 -181 543 -181 l 539 -181 q 533 -174 533 -181 q 535 -168 535 -172 q 405 -181 471 -175 q 277 -192 339 -187 q 159 -199 215 -196 q 60 -201 103 -201 q 31 -201 44 -201 q 6 -200 17 -201 q 0 -194 0 -200 q 6 -189 0 -189 q 110 -190 49 -192 q 242 -183 171 -187 q 388 -172 313 -179 q 536 -157 464 -165 q 557 34 550 -68 q 567 241 564 136 q 569 448 569 346 q 565 638 568 550 q 559 797 563 726 q 553 907 556 867 q 399 917 476 911 q 253 930 321 924 q 131 942 185 936 q 50 950 78 947 q 44 956 44 950 q 50 961 44 961 q 551 919 353 929 q 550 934 550 928 q 550 944 550 940 q 549 954 550 950 q 554 961 549 961 q 561 956 558 961 q 561 945 561 954 q 563 918 561 936 q 826 913 736 908 q 919 931 917 917 q 926 935 922 936 m 594 1031 q 589 1033 592 1031 q 575 1065 579 1053 q 556 1044 567 1054 q 542 1032 544 1035 q 535 1033 536 1029 q 535 1042 531 1038 q 556 1061 544 1049 q 569 1081 568 1074 q 575 1086 571 1085 q 581 1082 581 1086 q 586 1067 583 1074 q 592 1053 589 1060 q 599 1040 594 1046 q 597 1032 604 1035 q 596 1031 596 1032 q 594 1031 596 1031 z "},"":{"ha":932,"x_min":0,"x_max":933,"o":"m 926 935 q 931 928 933 935 q 881 906 928 913 q 758 900 833 900 q 665 902 714 900 q 564 907 617 904 q 570 796 567 865 q 576 638 574 726 q 580 447 579 549 q 578 242 581 346 q 568 35 575 138 q 549 -156 561 -67 q 683 -138 619 -147 q 794 -120 746 -129 q 872 -102 843 -111 q 904 -86 901 -93 q 911 -82 907 -81 q 915 -87 918 -82 q 883 -109 914 -99 q 803 -129 853 -119 q 686 -149 753 -139 q 547 -167 619 -158 q 546 -176 546 -171 q 540 -181 543 -181 l 539 -181 q 533 -174 533 -181 q 535 -168 535 -172 q 405 -181 471 -175 q 277 -192 339 -187 q 159 -199 215 -196 q 60 -201 103 -201 q 31 -201 44 -201 q 6 -200 17 -201 q 0 -194 0 -200 q 6 -189 0 -189 q 110 -190 49 -192 q 242 -183 171 -187 q 388 -172 313 -179 q 536 -157 464 -165 q 557 34 550 -68 q 567 241 564 136 q 569 448 569 346 q 565 638 568 550 q 559 797 563 726 q 553 907 556 867 q 399 917 476 911 q 253 930 321 924 q 131 942 185 936 q 50 950 78 947 q 44 956 44 950 q 50 961 44 961 q 551 919 353 929 q 550 934 550 928 q 550 944 550 940 q 549 954 550 950 q 554 961 549 961 q 561 956 558 961 q 561 945 561 954 q 563 918 561 936 q 826 913 736 908 q 919 931 917 917 q 926 935 922 936 m 536 1031 q 531 1036 531 1031 l 531 1051 q 536 1057 531 1057 q 542 1051 542 1057 l 542 1036 q 536 1031 542 1031 m 583 1031 q 578 1038 578 1031 l 579 1051 q 586 1057 582 1057 q 592 1050 592 1054 l 589 1036 q 583 1031 589 1031 z "},"":{"ha":951,"x_min":-1,"x_max":840,"o":"m 788 872 q 833 708 825 794 q 824 531 840 621 q 773 351 808 440 q 691 178 738 261 q 590 24 644 96 q 481 -103 535 -49 q 324 -227 400 -185 q 186 -269 249 -269 q 124 -256 150 -269 q 89 -107 56 -221 q 156 31 108 -44 q 265 168 203 106 q 261 415 265 307 q 251 597 257 522 q 240 709 244 671 q 235 749 235 747 q 239 756 235 756 q 246 751 246 756 q 251 712 246 750 q 261 601 256 674 q 272 422 267 528 q 276 179 276 317 q 394 266 335 233 q 506 292 453 299 q 510 286 510 292 q 503 281 510 281 q 393 253 453 288 q 276 164 333 219 q 268 -183 276 8 q 261 -189 265 -189 q 256 -183 256 -189 q 263 -7 261 -90 q 265 153 265 76 q 163 21 207 92 q 99 -111 118 -50 q 90 -149 93 -129 q 90 -187 88 -168 q 101 -221 92 -206 q 129 -246 110 -236 q 281 -235 190 -275 q 472 -94 372 -196 q 581 31 526 -40 q 681 183 635 101 q 763 353 728 265 q 813 531 797 442 q 822 706 829 619 q 778 868 815 792 q 677 985 739 947 q 532 1017 615 1022 q 377 972 456 1013 q 228 867 299 932 q 101 717 157 803 q 11 535 44 631 q 4 531 8 529 q 0 538 -1 533 q 91 723 33 636 q 221 876 149 810 q 374 983 293 943 q 532 1028 454 1024 q 683 994 617 1033 q 788 872 749 954 m 342 444 l 340 444 q 316 450 335 449 q 274 453 297 451 q 228 454 251 454 q 190 454 204 454 q 188 460 188 454 q 190 465 188 465 q 214 465 192 465 q 263 465 236 465 q 313 462 289 464 q 343 456 336 460 q 346 449 346 453 q 342 444 343 444 z "},"":{"ha":878,"x_min":-3,"x_max":954,"o":"m 950 -110 q 951 -118 954 -114 q 940 -133 950 -119 q 915 -163 931 -147 q 878 -192 899 -179 q 838 -206 858 -206 q 811 -200 822 -206 q 736 -105 764 -175 q 692 63 708 -35 q 668 273 675 160 q 656 497 661 386 q 647 644 651 572 q 636 773 643 715 q 619 869 629 831 q 592 921 608 908 q 571 924 583 928 q 515 867 543 915 q 459 744 486 818 q 406 578 432 669 q 358 391 381 486 q 317 206 336 296 q 285 44 299 115 q 265 -71 272 -26 q 257 -117 257 -115 q 250 -121 257 -121 q 246 -114 246 -121 q 251 -72 246 -112 q 263 35 256 -32 q 277 188 269 101 q 292 369 285 274 q 303 560 299 464 q 306 744 307 657 q 299 901 306 831 q 278 1013 293 971 q 244 1056 265 1051 q 189 1019 221 1060 q 142 945 165 992 q 96 844 118 899 q 56 733 74 790 q 26 625 38 676 q 12 533 15 574 q 17 474 8 493 q 14 465 18 468 q 6 469 7 463 q 0 532 -3 490 q 15 626 3 574 q 44 735 26 678 q 85 848 63 793 q 131 950 107 903 q 181 1026 156 997 q 246 1067 215 1071 q 289 1017 271 1063 q 311 907 304 975 q 319 755 318 839 q 315 577 319 671 q 305 390 311 483 q 291 210 299 297 q 276 56 283 124 q 309 219 290 128 q 350 404 328 310 q 399 590 372 499 q 453 756 425 682 q 510 878 481 829 q 568 935 539 926 q 599 929 585 939 q 628 877 617 917 q 647 780 640 838 q 658 650 654 722 q 667 497 663 578 q 679 282 672 393 q 702 74 686 171 q 744 -94 718 -24 q 815 -189 771 -165 q 858 -190 836 -200 q 900 -162 881 -181 q 942 -112 922 -143 q 950 -110 944 -107 m 508 1035 q 486 1043 494 1035 q 462 1052 475 1054 q 440 1043 449 1050 q 432 1044 435 1040 q 432 1051 425 1047 q 460 1064 443 1063 q 493 1051 478 1065 q 506 1046 500 1046 q 517 1047 513 1046 q 536 1060 533 1051 q 543 1064 538 1064 q 547 1056 547 1061 q 519 1036 540 1043 q 514 1035 517 1036 q 508 1035 511 1035 z "},"":{"ha":647,"x_min":-1,"x_max":558,"o":"m 517 861 q 550 711 542 794 q 550 536 558 628 q 519 349 542 444 q 461 162 496 253 q 379 -12 426 71 q 275 -158 332 -94 q 158 -231 210 -231 q 118 -218 136 -231 q 39 -74 67 -186 q 10 203 11 38 q 12 283 10 243 q 17 361 14 322 q 1 487 4 422 q 5 615 -1 551 q 26 738 11 678 q 65 847 42 797 q 176 993 111 946 q 319 1031 242 1040 q 517 861 457 1015 m 265 -150 q 368 -5 321 -86 q 450 167 415 76 q 508 351 485 257 q 538 536 531 446 q 538 709 546 626 q 506 857 531 792 q 318 1019 449 1004 q 182 983 243 1028 q 76 843 121 938 q 40 744 56 797 q 18 633 25 690 q 12 517 11 576 q 21 401 13 458 q 53 605 32 510 q 107 771 75 700 q 158 858 131 825 q 215 910 186 892 q 273 931 244 928 q 326 928 301 935 q 382 897 356 919 q 428 838 408 875 q 456 751 447 801 q 457 639 465 701 q 451 635 457 632 q 446 640 446 635 q 445 749 453 701 q 419 832 438 797 q 376 888 401 867 q 324 917 350 910 q 275 919 301 922 q 221 899 249 915 q 167 850 193 882 q 118 767 140 818 q 60 579 82 685 q 28 363 38 474 q 74 224 43 288 q 154 114 106 160 q 156 106 158 108 q 147 106 150 100 q 73 203 103 147 q 25 325 43 260 q 23 146 19 233 q 39 -14 26 58 q 72 -137 51 -86 q 124 -208 93 -189 q 265 -150 182 -246 m 382 1079 q 376 1081 378 1079 q 369 1090 374 1085 q 358 1101 364 1096 q 348 1111 353 1107 q 343 1115 343 1115 q 343 1124 340 1121 q 351 1124 347 1128 q 367 1110 353 1124 q 386 1088 381 1096 q 385 1079 389 1083 l 382 1079 z "},"":{"ha":647,"x_min":-1,"x_max":558,"o":"m 517 861 q 550 711 542 794 q 550 536 558 628 q 519 349 542 444 q 461 162 496 253 q 379 -12 426 71 q 275 -158 332 -94 q 158 -231 210 -231 q 118 -218 136 -231 q 39 -74 67 -186 q 10 203 11 38 q 12 283 10 243 q 17 361 14 322 q 1 487 4 422 q 5 615 -1 551 q 26 738 11 678 q 65 847 42 797 q 176 993 111 946 q 319 1031 242 1040 q 517 861 457 1015 m 265 -150 q 368 -5 321 -86 q 450 167 415 76 q 508 351 485 257 q 538 536 531 446 q 538 709 546 626 q 506 857 531 792 q 318 1019 449 1004 q 182 983 243 1028 q 76 843 121 938 q 40 744 56 797 q 18 633 25 690 q 12 517 11 576 q 21 401 13 458 q 53 605 32 510 q 107 771 75 700 q 158 858 131 825 q 215 910 186 892 q 273 931 244 928 q 326 928 301 935 q 382 897 356 919 q 428 838 408 875 q 456 751 447 801 q 457 639 465 701 q 451 635 457 632 q 446 640 446 635 q 445 749 453 701 q 419 832 438 797 q 376 888 401 867 q 324 917 350 910 q 275 919 301 922 q 221 899 249 915 q 167 850 193 882 q 118 767 140 818 q 60 579 82 685 q 28 363 38 474 q 74 224 43 288 q 154 114 106 160 q 156 106 158 108 q 147 106 150 100 q 73 203 103 147 q 25 325 43 260 q 23 146 19 233 q 39 -14 26 58 q 72 -137 51 -86 q 124 -208 93 -189 q 265 -150 182 -246 m 314 1090 q 311 1092 311 1090 q 310 1099 306 1094 q 329 1121 315 1107 q 344 1135 343 1135 q 353 1135 347 1140 q 351 1126 356 1131 l 338 1113 q 326 1101 332 1107 q 318 1093 321 1096 q 314 1090 318 1090 z "},"":{"ha":647,"x_min":-1,"x_max":558,"o":"m 517 861 q 550 711 542 794 q 550 536 558 628 q 519 349 542 444 q 461 162 496 253 q 379 -12 426 71 q 275 -158 332 -94 q 158 -231 210 -231 q 118 -218 136 -231 q 39 -74 67 -186 q 10 203 11 38 q 12 283 10 243 q 17 361 14 322 q 1 487 4 422 q 5 615 -1 551 q 26 738 11 678 q 65 847 42 797 q 176 993 111 946 q 319 1031 242 1040 q 517 861 457 1015 m 265 -150 q 368 -5 321 -86 q 450 167 415 76 q 508 351 485 257 q 538 536 531 446 q 538 709 546 626 q 506 857 531 792 q 318 1019 449 1004 q 182 983 243 1028 q 76 843 121 938 q 40 744 56 797 q 18 633 25 690 q 12 517 11 576 q 21 401 13 458 q 53 605 32 510 q 107 771 75 700 q 158 858 131 825 q 215 910 186 892 q 273 931 244 928 q 326 928 301 935 q 382 897 356 919 q 428 838 408 875 q 456 751 447 801 q 457 639 465 701 q 451 635 457 632 q 446 640 446 635 q 445 749 453 701 q 419 832 438 797 q 376 888 401 867 q 324 917 350 910 q 275 919 301 922 q 221 899 249 915 q 167 850 193 882 q 118 767 140 818 q 60 579 82 685 q 28 363 38 474 q 74 224 43 288 q 154 114 106 160 q 156 106 158 108 q 147 106 150 100 q 73 203 103 147 q 25 325 43 260 q 23 146 19 233 q 39 -14 26 58 q 72 -137 51 -86 q 124 -208 93 -189 q 265 -150 182 -246 m 374 1113 q 368 1115 371 1113 q 354 1147 358 1135 q 335 1126 346 1136 q 321 1114 324 1117 q 314 1115 315 1111 q 314 1124 310 1119 q 335 1143 324 1131 q 349 1163 347 1156 q 354 1168 350 1167 q 360 1164 360 1168 q 365 1149 363 1156 q 371 1135 368 1142 q 378 1122 374 1128 q 376 1114 383 1117 q 375 1113 375 1114 q 374 1113 375 1113 z "},"":{"ha":647,"x_min":-1,"x_max":558,"o":"m 517 861 q 550 711 542 794 q 550 536 558 628 q 519 349 542 444 q 461 162 496 253 q 379 -12 426 71 q 275 -158 332 -94 q 158 -231 210 -231 q 118 -218 136 -231 q 39 -74 67 -186 q 10 203 11 38 q 12 283 10 243 q 17 361 14 322 q 1 487 4 422 q 5 615 -1 551 q 26 738 11 678 q 65 847 42 797 q 176 993 111 946 q 319 1031 242 1040 q 517 861 457 1015 m 265 -150 q 368 -5 321 -86 q 450 167 415 76 q 508 351 485 257 q 538 536 531 446 q 538 709 546 626 q 506 857 531 792 q 318 1019 449 1004 q 182 983 243 1028 q 76 843 121 938 q 40 744 56 797 q 18 633 25 690 q 12 517 11 576 q 21 401 13 458 q 53 605 32 510 q 107 771 75 700 q 158 858 131 825 q 215 910 186 892 q 273 931 244 928 q 326 928 301 935 q 382 897 356 919 q 428 838 408 875 q 456 751 447 801 q 457 639 465 701 q 451 635 457 632 q 446 640 446 635 q 445 749 453 701 q 419 832 438 797 q 376 888 401 867 q 324 917 350 910 q 275 919 301 922 q 221 899 249 915 q 167 850 193 882 q 118 767 140 818 q 60 579 82 685 q 28 363 38 474 q 74 224 43 288 q 154 114 106 160 q 156 106 158 108 q 147 106 150 100 q 73 203 103 147 q 25 325 43 260 q 23 146 19 233 q 39 -14 26 58 q 72 -137 51 -86 q 124 -208 93 -189 q 265 -150 182 -246 m 356 1107 q 333 1115 342 1107 q 309 1124 322 1126 q 288 1115 296 1122 q 279 1117 282 1113 q 279 1124 272 1119 q 308 1136 290 1135 q 340 1124 325 1138 q 353 1118 347 1118 q 364 1119 360 1118 q 383 1132 381 1124 q 390 1136 385 1136 q 394 1128 394 1133 q 367 1108 388 1115 q 361 1108 364 1108 q 356 1107 358 1107 z "},"":{"ha":647,"x_min":-1,"x_max":558,"o":"m 517 861 q 550 711 542 794 q 550 536 558 628 q 519 349 542 444 q 461 162 496 253 q 379 -12 426 71 q 275 -158 332 -94 q 158 -231 210 -231 q 118 -218 136 -231 q 39 -74 67 -186 q 10 203 11 38 q 12 283 10 243 q 17 361 14 322 q 1 487 4 422 q 5 615 -1 551 q 26 738 11 678 q 65 847 42 797 q 176 993 111 946 q 319 1031 242 1040 q 517 861 457 1015 m 265 -150 q 368 -5 321 -86 q 450 167 415 76 q 508 351 485 257 q 538 536 531 446 q 538 709 546 626 q 506 857 531 792 q 318 1019 449 1004 q 182 983 243 1028 q 76 843 121 938 q 40 744 56 797 q 18 633 25 690 q 12 517 11 576 q 21 401 13 458 q 53 605 32 510 q 107 771 75 700 q 158 858 131 825 q 215 910 186 892 q 273 931 244 928 q 326 928 301 935 q 382 897 356 919 q 428 838 408 875 q 456 751 447 801 q 457 639 465 701 q 451 635 457 632 q 446 640 446 635 q 445 749 453 701 q 419 832 438 797 q 376 888 401 867 q 324 917 350 910 q 275 919 301 922 q 221 899 249 915 q 167 850 193 882 q 118 767 140 818 q 60 579 82 685 q 28 363 38 474 q 74 224 43 288 q 154 114 106 160 q 156 106 158 108 q 147 106 150 100 q 73 203 103 147 q 25 325 43 260 q 23 146 19 233 q 39 -14 26 58 q 72 -137 51 -86 q 124 -208 93 -189 q 265 -150 182 -246 m 281 1094 q 275 1100 275 1094 l 275 1115 q 281 1121 275 1121 q 286 1115 286 1121 l 286 1100 q 281 1094 286 1094 m 328 1094 q 322 1101 322 1094 l 324 1115 q 331 1121 326 1121 q 336 1114 336 1118 l 333 1100 q 328 1094 333 1094 z "},"":{"ha":408,"x_min":96,"x_max":328,"o":"m 228 365 q 287 301 260 331 q 325 257 314 271 q 325 249 326 253 q 323 248 324 249 q 321 247 322 247 q 317 250 319 247 q 279 294 306 264 q 221 357 253 324 q 153 283 185 318 q 110 232 122 247 q 104 229 107 229 q 103 230 103 229 q 101 231 103 231 q 100 239 97 235 q 146 290 114 254 q 213 365 178 326 q 172 411 192 389 q 136 451 151 433 q 110 479 121 468 q 100 490 100 490 q 101 497 96 494 q 108 497 104 504 q 119 486 108 497 q 144 458 129 475 q 180 419 160 442 q 221 375 200 397 q 256 414 239 396 q 287 447 274 432 q 308 470 300 461 q 317 479 317 479 q 325 479 319 485 q 325 472 328 475 q 317 463 325 472 q 294 440 308 454 q 263 406 281 425 q 228 365 246 386 z "},"":{"ha":647,"x_min":-49,"x_max":601,"o":"m 597 894 q 599 888 601 893 q 581 862 597 886 q 535 797 564 838 q 553 647 551 728 q 542 480 554 567 q 507 305 531 393 q 449 133 483 217 q 370 -25 414 50 q 274 -160 326 -100 q 157 -232 208 -232 q 117 -219 135 -232 q 52 -124 78 -194 q 15 54 26 -53 q -17 6 -4 26 q -37 -24 -31 -14 q -42 -26 -40 -26 q -46 -25 -44 -26 q -47 -18 -49 -22 q -25 16 -40 -7 q 14 72 -10 39 q 10 135 11 103 q 8 201 8 167 q 10 281 8 242 q 15 360 13 321 q 0 485 3 421 q 3 614 -3 550 q 26 737 10 678 q 65 847 42 796 q 175 992 110 944 q 318 1031 240 1039 q 515 860 457 1014 q 524 836 519 849 q 531 811 528 824 q 556 845 544 831 q 574 871 567 860 q 589 893 582 883 q 597 894 592 900 m 75 842 q 39 742 54 796 q 17 632 24 689 q 10 516 10 575 q 19 401 11 457 q 52 603 31 508 q 106 769 74 699 q 158 857 129 824 q 215 908 186 890 q 273 930 244 926 q 325 926 301 933 q 373 902 350 919 q 415 858 396 885 q 445 793 433 831 q 460 708 457 756 q 493 757 478 735 q 522 799 508 779 q 515 828 519 814 q 504 856 510 842 q 429 970 476 929 q 317 1018 382 1011 q 181 981 243 1026 q 75 842 119 936 m 449 693 q 409 847 447 790 q 322 915 371 903 q 274 917 300 921 q 219 897 247 914 q 165 849 192 881 q 117 765 139 817 q 58 578 81 683 q 26 361 36 472 q 93 186 49 263 q 179 308 133 243 q 272 440 225 374 q 363 572 318 507 q 449 693 408 636 m 24 324 q 20 202 19 261 q 25 88 21 143 q 54 130 39 107 q 86 176 69 153 q 24 324 44 242 m 265 -151 q 401 55 342 -64 q 495 302 460 174 q 540 556 531 431 q 526 785 549 682 q 495 740 511 764 q 460 690 479 717 q 456 638 460 664 q 450 633 456 631 q 444 639 444 633 q 447 656 446 647 q 447 672 447 665 q 364 553 408 617 q 274 424 319 489 q 183 296 228 360 q 100 176 139 232 q 125 142 111 158 q 154 113 139 126 q 154 104 157 107 q 146 104 150 100 q 93 167 115 133 q 58 115 74 139 q 26 69 42 90 q 60 -110 36 -35 q 122 -210 83 -185 q 265 -151 182 -247 z "},"":{"ha":990,"x_min":-6,"x_max":954,"o":"m 950 -219 q 954 -226 954 -222 q 949 -231 951 -231 l 947 -231 q 890 -151 913 -221 q 856 22 868 -82 q 840 251 844 126 q 836 499 836 376 q 840 726 836 621 q 846 894 843 831 q 818 772 835 846 q 779 609 801 697 q 729 424 757 521 q 671 235 701 328 q 607 57 640 142 q 539 -92 574 -28 q 468 -193 504 -156 q 396 -231 432 -231 q 346 -208 367 -231 q 303 -110 317 -178 q 285 49 289 -42 q 283 245 281 139 q 290 460 286 351 q 297 627 294 546 q 299 777 300 708 q 291 898 297 846 q 269 978 285 950 q 192 1014 240 1033 q 142 975 168 1004 q 92 901 115 946 q 49 797 68 856 q 20 670 31 738 q 11 528 10 603 q 31 378 13 454 q 26 371 31 371 q 19 375 19 371 q 1 596 -6 486 q 35 795 8 706 q 104 947 63 885 q 189 1025 146 1008 q 279 983 244 1046 q 301 903 294 956 q 310 780 308 850 q 309 628 311 710 q 303 460 307 546 q 295 252 299 357 q 295 57 292 147 q 312 -102 299 -33 q 354 -200 325 -171 q 396 -219 371 -219 q 475 -169 435 -219 q 555 -35 515 -118 q 631 153 594 47 q 701 369 668 258 q 760 585 733 479 q 808 776 788 692 q 839 912 828 860 q 850 967 850 964 q 856 971 850 971 q 861 965 861 971 q 851 742 856 867 q 847 490 847 618 q 851 238 847 361 q 867 15 856 114 q 899 -148 879 -85 q 950 -219 919 -211 m 599 1024 q 593 1025 594 1024 q 585 1035 590 1029 q 575 1046 581 1040 q 565 1056 569 1051 q 560 1060 560 1060 q 560 1068 557 1065 q 568 1068 564 1072 q 583 1054 569 1068 q 603 1032 597 1040 q 601 1024 606 1028 l 599 1024 z "},"":{"ha":990,"x_min":-6,"x_max":954,"o":"m 950 -219 q 954 -226 954 -222 q 949 -231 951 -231 l 947 -231 q 890 -151 913 -221 q 856 22 868 -82 q 840 251 844 126 q 836 499 836 376 q 840 726 836 621 q 846 894 843 831 q 818 772 835 846 q 779 609 801 697 q 729 424 757 521 q 671 235 701 328 q 607 57 640 142 q 539 -92 574 -28 q 468 -193 504 -156 q 396 -231 432 -231 q 346 -208 367 -231 q 303 -110 317 -178 q 285 49 289 -42 q 283 245 281 139 q 290 460 286 351 q 297 627 294 546 q 299 777 300 708 q 291 898 297 846 q 269 978 285 950 q 192 1014 240 1033 q 142 975 168 1004 q 92 901 115 946 q 49 797 68 856 q 20 670 31 738 q 11 528 10 603 q 31 378 13 454 q 26 371 31 371 q 19 375 19 371 q 1 596 -6 486 q 35 795 8 706 q 104 947 63 885 q 189 1025 146 1008 q 279 983 244 1046 q 301 903 294 956 q 310 780 308 850 q 309 628 311 710 q 303 460 307 546 q 295 252 299 357 q 295 57 292 147 q 312 -102 299 -33 q 354 -200 325 -171 q 396 -219 371 -219 q 475 -169 435 -219 q 555 -35 515 -118 q 631 153 594 47 q 701 369 668 258 q 760 585 733 479 q 808 776 788 692 q 839 912 828 860 q 850 967 850 964 q 856 971 850 971 q 861 965 861 971 q 851 742 856 867 q 847 490 847 618 q 851 238 847 361 q 867 15 856 114 q 899 -148 879 -85 q 950 -219 919 -211 m 581 1057 q 578 1058 578 1057 q 576 1065 572 1061 q 596 1088 582 1074 q 611 1101 610 1101 q 619 1101 614 1107 q 618 1093 622 1097 l 604 1079 q 593 1068 599 1074 q 585 1060 588 1063 q 581 1057 585 1057 z "},"":{"ha":990,"x_min":-6,"x_max":954,"o":"m 950 -219 q 954 -226 954 -222 q 949 -231 951 -231 l 947 -231 q 890 -151 913 -221 q 856 22 868 -82 q 840 251 844 126 q 836 499 836 376 q 840 726 836 621 q 846 894 843 831 q 818 772 835 846 q 779 609 801 697 q 729 424 757 521 q 671 235 701 328 q 607 57 640 142 q 539 -92 574 -28 q 468 -193 504 -156 q 396 -231 432 -231 q 346 -208 367 -231 q 303 -110 317 -178 q 285 49 289 -42 q 283 245 281 139 q 290 460 286 351 q 297 627 294 546 q 299 777 300 708 q 291 898 297 846 q 269 978 285 950 q 192 1014 240 1033 q 142 975 168 1004 q 92 901 115 946 q 49 797 68 856 q 20 670 31 738 q 11 528 10 603 q 31 378 13 454 q 26 371 31 371 q 19 375 19 371 q 1 596 -6 486 q 35 795 8 706 q 104 947 63 885 q 189 1025 146 1008 q 279 983 244 1046 q 301 903 294 956 q 310 780 308 850 q 309 628 311 710 q 303 460 307 546 q 295 252 299 357 q 295 57 292 147 q 312 -102 299 -33 q 354 -200 325 -171 q 396 -219 371 -219 q 475 -169 435 -219 q 555 -35 515 -118 q 631 153 594 47 q 701 369 668 258 q 760 585 733 479 q 808 776 788 692 q 839 912 828 860 q 850 967 850 964 q 856 971 850 971 q 861 965 861 971 q 851 742 856 867 q 847 490 847 618 q 851 238 847 361 q 867 15 856 114 q 899 -148 879 -85 q 950 -219 919 -211 m 590 1061 q 585 1064 588 1061 q 571 1096 575 1083 q 551 1075 563 1085 q 538 1063 540 1065 q 531 1064 532 1060 q 531 1072 526 1068 q 552 1092 540 1079 q 565 1111 564 1104 q 571 1117 567 1115 q 576 1113 576 1117 q 582 1097 579 1104 q 588 1083 585 1090 q 594 1071 590 1076 q 593 1063 600 1065 q 592 1062 592 1063 q 590 1061 592 1061 z "},"":{"ha":990,"x_min":-6,"x_max":954,"o":"m 950 -219 q 954 -226 954 -222 q 949 -231 951 -231 l 947 -231 q 890 -151 913 -221 q 856 22 868 -82 q 840 251 844 126 q 836 499 836 376 q 840 726 836 621 q 846 894 843 831 q 818 772 835 846 q 779 609 801 697 q 729 424 757 521 q 671 235 701 328 q 607 57 640 142 q 539 -92 574 -28 q 468 -193 504 -156 q 396 -231 432 -231 q 346 -208 367 -231 q 303 -110 317 -178 q 285 49 289 -42 q 283 245 281 139 q 290 460 286 351 q 297 627 294 546 q 299 777 300 708 q 291 898 297 846 q 269 978 285 950 q 192 1014 240 1033 q 142 975 168 1004 q 92 901 115 946 q 49 797 68 856 q 20 670 31 738 q 11 528 10 603 q 31 378 13 454 q 26 371 31 371 q 19 375 19 371 q 1 596 -6 486 q 35 795 8 706 q 104 947 63 885 q 189 1025 146 1008 q 279 983 244 1046 q 301 903 294 956 q 310 780 308 850 q 309 628 311 710 q 303 460 307 546 q 295 252 299 357 q 295 57 292 147 q 312 -102 299 -33 q 354 -200 325 -171 q 396 -219 371 -219 q 475 -169 435 -219 q 555 -35 515 -118 q 631 153 594 47 q 701 369 668 258 q 760 585 733 479 q 808 776 788 692 q 839 912 828 860 q 850 967 850 964 q 856 971 850 971 q 861 965 861 971 q 851 742 856 867 q 847 490 847 618 q 851 238 847 361 q 867 15 856 114 q 899 -148 879 -85 q 950 -219 919 -211 m 567 1069 q 561 1075 561 1069 l 561 1090 q 567 1096 561 1096 q 572 1090 572 1096 l 572 1075 q 567 1069 572 1069 m 614 1069 q 608 1076 608 1069 l 610 1090 q 617 1096 613 1096 q 622 1089 622 1093 l 619 1075 q 614 1069 619 1069 z "},"":{"ha":785,"x_min":-6,"x_max":724,"o":"m 719 971 q 724 965 724 971 q 722 917 724 964 q 715 794 721 871 q 699 617 710 717 q 672 407 689 517 q 631 186 656 297 q 571 -24 606 75 q 526 -126 549 -86 q 481 -188 503 -165 q 437 -220 458 -211 q 397 -229 415 -229 q 381 -228 386 -229 q 306 -184 340 -221 q 247 -95 272 -147 q 208 19 222 -43 q 196 139 194 81 q 201 144 196 144 q 207 139 207 144 q 220 17 206 78 q 260 -93 235 -43 q 317 -177 285 -143 q 383 -217 349 -211 q 478 -176 433 -226 q 560 -19 524 -126 q 627 227 600 96 q 672 483 654 358 q 697 715 689 608 q 710 886 706 821 q 684 763 700 836 q 647 608 668 690 q 599 444 625 526 q 542 292 572 361 q 479 174 513 222 q 410 113 446 125 q 365 117 385 101 q 333 171 344 131 q 317 268 322 211 q 311 394 311 325 q 311 538 311 464 q 310 671 311 604 q 306 796 310 738 q 294 901 303 854 q 269 978 286 949 q 192 1014 240 1033 q 142 975 168 1004 q 92 901 115 946 q 49 797 68 856 q 20 670 31 738 q 11 528 10 603 q 31 378 13 454 q 26 371 31 371 q 19 375 19 371 q 1 596 -6 486 q 35 795 8 706 q 104 947 63 885 q 189 1025 146 1008 q 279 983 244 1046 q 305 906 296 954 q 317 799 314 858 q 322 672 321 739 q 322 538 322 606 q 323 400 322 468 q 328 276 324 332 q 342 179 332 219 q 372 126 353 139 q 406 124 388 115 q 467 177 438 135 q 525 280 497 219 q 577 415 553 340 q 622 565 601 489 q 660 712 643 640 q 688 840 676 783 q 706 931 700 896 q 713 967 713 965 q 719 971 713 971 m 486 1047 q 483 1049 483 1047 q 482 1056 478 1051 q 501 1078 488 1064 q 517 1092 515 1092 q 525 1092 519 1097 q 524 1083 528 1088 l 510 1069 q 499 1058 504 1064 q 490 1050 493 1053 q 486 1047 490 1047 z "},"":{"ha":238,"x_min":-17,"x_max":174,"o":"m 167 157 l 164 157 q 147 181 151 161 q 143 225 143 200 q 147 278 143 250 q 154 326 150 306 q 131 289 144 310 q 101 249 117 268 q 69 218 86 231 q 38 206 53 206 q 1 232 15 206 q 7 301 -17 265 q 30 328 17 315 q 57 349 43 340 q 83 361 71 357 q 104 365 96 365 q 118 358 114 365 q 115 350 121 353 q 108 353 111 347 l 107 353 q 106 353 106 353 q 104 354 106 354 q 63 340 92 356 q 17 296 35 324 q 13 236 -1 265 q 38 217 24 217 q 72 234 53 217 q 108 275 90 251 q 139 324 125 299 q 161 364 153 349 q 168 367 164 369 q 172 360 172 364 q 162 300 167 332 q 156 240 157 268 q 157 191 154 211 q 168 167 160 171 q 171 160 174 167 q 167 157 171 157 m 149 432 q 143 433 144 432 q 135 443 140 438 q 125 454 131 449 q 115 464 119 460 q 110 468 110 468 q 110 476 107 474 q 118 476 114 481 q 133 463 119 476 q 153 440 147 449 q 151 432 156 436 l 149 432 z "},"":{"ha":238,"x_min":-17,"x_max":174,"o":"m 167 157 l 164 157 q 147 181 151 161 q 143 225 143 200 q 147 278 143 250 q 154 326 150 306 q 131 289 144 310 q 101 249 117 268 q 69 218 86 231 q 38 206 53 206 q 1 232 15 206 q 7 301 -17 265 q 30 328 17 315 q 57 349 43 340 q 83 361 71 357 q 104 365 96 365 q 118 358 114 365 q 115 350 121 353 q 108 353 111 347 l 107 353 q 106 353 106 353 q 104 354 106 354 q 63 340 92 356 q 17 296 35 324 q 13 236 -1 265 q 38 217 24 217 q 72 234 53 217 q 108 275 90 251 q 139 324 125 299 q 161 364 153 349 q 168 367 164 369 q 172 360 172 364 q 162 300 167 332 q 156 240 157 268 q 157 191 154 211 q 168 167 160 171 q 171 160 174 167 q 167 157 171 157 m 101 411 q 99 413 99 411 q 97 419 93 415 q 117 442 103 428 q 132 456 131 456 q 140 456 135 461 q 139 447 143 451 l 125 433 q 114 422 119 428 q 106 414 108 417 q 101 411 106 411 z "},"":{"ha":238,"x_min":-17,"x_max":174,"o":"m 167 157 l 164 157 q 147 181 151 161 q 143 225 143 200 q 147 278 143 250 q 154 326 150 306 q 131 289 144 310 q 101 249 117 268 q 69 218 86 231 q 38 206 53 206 q 1 232 15 206 q 7 301 -17 265 q 30 328 17 315 q 57 349 43 340 q 83 361 71 357 q 104 365 96 365 q 118 358 114 365 q 115 350 121 353 q 108 353 111 347 l 107 353 q 106 353 106 353 q 104 354 106 354 q 63 340 92 356 q 17 296 35 324 q 13 236 -1 265 q 38 217 24 217 q 72 234 53 217 q 108 275 90 251 q 139 324 125 299 q 161 364 153 349 q 168 367 164 369 q 172 360 172 364 q 162 300 167 332 q 156 240 157 268 q 157 191 154 211 q 168 167 160 171 q 171 160 174 167 q 167 157 171 157 m 146 414 q 140 417 143 414 q 126 449 131 436 q 107 428 118 438 q 93 415 96 418 q 86 417 88 413 q 86 425 82 421 q 108 444 96 432 q 121 464 119 457 q 126 469 122 468 q 132 465 132 469 q 138 450 135 457 q 143 436 140 443 q 150 424 146 429 q 149 415 156 418 q 147 415 147 415 q 146 414 147 414 z "},"":{"ha":238,"x_min":-17,"x_max":178,"o":"m 167 157 l 164 157 q 147 181 151 161 q 143 225 143 200 q 147 278 143 250 q 154 326 150 306 q 131 289 144 310 q 101 249 117 268 q 69 218 86 231 q 38 206 53 206 q 1 232 15 206 q 7 301 -17 265 q 30 328 17 315 q 57 349 43 340 q 83 361 71 357 q 104 365 96 365 q 118 358 114 365 q 115 350 121 353 q 108 353 111 347 l 107 353 q 106 353 106 353 q 104 354 106 354 q 63 340 92 356 q 17 296 35 324 q 13 236 -1 265 q 38 217 24 217 q 72 234 53 217 q 108 275 90 251 q 139 324 125 299 q 161 364 153 349 q 168 367 164 369 q 172 360 172 364 q 162 300 167 332 q 156 240 157 268 q 157 191 154 211 q 168 167 160 171 q 171 160 174 167 q 167 157 171 157 m 139 406 q 117 414 125 406 q 92 423 106 425 q 71 414 79 421 q 63 415 65 411 q 63 422 56 418 q 91 435 74 433 q 124 422 108 436 q 137 417 131 417 q 147 418 143 417 q 167 431 164 422 q 174 435 168 435 q 178 426 178 432 q 150 407 171 414 q 144 406 147 407 q 139 406 142 406 z "},"":{"ha":238,"x_min":-17,"x_max":174,"o":"m 167 157 l 164 157 q 147 181 151 161 q 143 225 143 200 q 147 278 143 250 q 154 326 150 306 q 131 289 144 310 q 101 249 117 268 q 69 218 86 231 q 38 206 53 206 q 1 232 15 206 q 7 301 -17 265 q 30 328 17 315 q 57 349 43 340 q 83 361 71 357 q 104 365 96 365 q 118 358 114 365 q 115 350 121 353 q 108 353 111 347 l 107 353 q 106 353 106 353 q 104 354 106 354 q 63 340 92 356 q 17 296 35 324 q 13 236 -1 265 q 38 217 24 217 q 72 234 53 217 q 108 275 90 251 q 139 324 125 299 q 161 364 153 349 q 168 367 164 369 q 172 360 172 364 q 162 300 167 332 q 156 240 157 268 q 157 191 154 211 q 168 167 160 171 q 171 160 174 167 q 167 157 171 157 m 93 401 q 88 407 88 401 l 88 422 q 93 428 88 428 q 99 422 99 428 l 99 407 q 93 401 99 401 m 140 401 q 135 408 135 401 l 136 422 q 143 428 139 428 q 149 421 149 425 l 146 407 q 140 401 146 401 z "},"":{"ha":238,"x_min":-17,"x_max":174,"o":"m 167 157 l 164 157 q 147 181 151 161 q 143 225 143 200 q 147 278 143 250 q 154 326 150 306 q 131 289 144 310 q 101 249 117 268 q 69 218 86 231 q 38 206 53 206 q 1 232 15 206 q 7 301 -17 265 q 30 328 17 315 q 57 349 43 340 q 83 361 71 357 q 104 365 96 365 q 118 358 114 365 q 115 350 121 353 q 108 353 111 347 l 107 353 q 106 353 106 353 q 104 354 106 354 q 63 340 92 356 q 17 296 35 324 q 13 236 -1 265 q 38 217 24 217 q 72 234 53 217 q 108 275 90 251 q 139 324 125 299 q 161 364 153 349 q 168 367 164 369 q 172 360 172 364 q 162 300 167 332 q 156 240 157 268 q 157 191 154 211 q 168 167 160 171 q 171 160 174 167 q 167 157 171 157 m 114 417 q 99 423 106 417 q 93 438 93 429 q 99 452 93 446 q 114 458 106 458 q 130 452 124 458 q 136 438 136 446 q 130 423 136 429 q 114 417 124 417 m 114 447 q 104 438 104 447 q 114 428 104 428 q 125 438 125 428 q 114 447 125 447 z "},"":{"ha":215,"x_min":0,"x_max":168,"o":"m 78 171 q 60 174 71 171 q 41 181 51 175 q 22 200 31 188 q 6 234 13 213 q 0 288 0 256 q 25 381 0 342 q 81 438 50 421 q 116 450 99 449 q 146 443 133 451 q 149 436 151 440 q 140 433 144 432 q 86 428 118 447 q 35 375 58 413 q 11 288 11 338 q 63 185 11 197 q 117 193 89 178 q 156 229 144 208 q 163 232 158 235 q 165 224 168 229 q 130 187 154 203 q 78 171 106 171 z "},"":{"ha":208,"x_min":0,"x_max":219,"o":"m 85 157 q 35 179 56 157 q 19 198 28 185 q 6 233 11 211 q 0 284 0 254 q 10 356 0 314 q 64 426 25 424 q 92 408 83 429 q 95 371 99 392 q 81 331 92 350 q 11 282 54 289 q 43 188 11 219 q 94 169 65 163 q 140 194 119 175 q 176 233 161 213 q 208 286 193 258 q 215 289 211 292 q 219 282 219 288 q 209 263 218 281 q 185 224 200 246 q 147 183 169 203 q 97 158 125 164 q 85 157 93 157 m 65 415 l 64 415 q 42 400 54 414 q 21 353 29 386 q 13 294 13 321 q 71 336 49 301 q 85 371 82 353 q 81 404 88 389 q 65 415 76 415 m 99 479 q 93 481 94 479 q 85 490 90 485 q 75 501 81 496 q 65 511 69 507 q 60 515 60 515 q 60 524 57 521 q 68 524 64 528 q 83 510 69 524 q 103 488 97 496 q 101 479 106 483 l 99 479 z "},"":{"ha":208,"x_min":0,"x_max":219,"o":"m 85 157 q 35 179 56 157 q 19 198 28 185 q 6 233 11 211 q 0 284 0 254 q 10 356 0 314 q 64 426 25 424 q 92 408 83 429 q 95 371 99 392 q 81 331 92 350 q 11 282 54 289 q 43 188 11 219 q 94 169 65 163 q 140 194 119 175 q 176 233 161 213 q 208 286 193 258 q 215 289 211 292 q 219 282 219 288 q 209 263 218 281 q 185 224 200 246 q 147 183 169 203 q 97 158 125 164 q 85 157 93 157 m 65 415 l 64 415 q 42 400 54 414 q 21 353 29 386 q 13 294 13 321 q 71 336 49 301 q 85 371 82 353 q 81 404 88 389 q 65 415 76 415 m 50 460 q 47 461 47 460 q 46 468 42 464 q 65 490 51 476 q 81 504 79 504 q 89 504 83 510 q 88 496 92 500 l 74 482 q 63 471 68 476 q 54 463 57 465 q 50 460 54 460 z "},"":{"ha":208,"x_min":0,"x_max":219,"o":"m 85 157 q 35 179 56 157 q 19 198 28 185 q 6 233 11 211 q 0 284 0 254 q 10 356 0 314 q 64 426 25 424 q 92 408 83 429 q 95 371 99 392 q 81 331 92 350 q 11 282 54 289 q 43 188 11 219 q 94 169 65 163 q 140 194 119 175 q 176 233 161 213 q 208 286 193 258 q 215 289 211 292 q 219 282 219 288 q 209 263 218 281 q 185 224 200 246 q 147 183 169 203 q 97 158 125 164 q 85 157 93 157 m 65 415 l 64 415 q 42 400 54 414 q 21 353 29 386 q 13 294 13 321 q 71 336 49 301 q 85 371 82 353 q 81 404 88 389 q 65 415 76 415 m 99 463 q 93 465 96 463 q 79 497 83 485 q 60 476 71 486 q 46 464 49 467 q 39 465 40 461 q 39 474 35 469 q 60 493 49 481 q 74 513 72 506 q 79 518 75 517 q 85 514 85 518 q 90 499 88 506 q 96 485 93 492 q 103 472 99 478 q 101 464 108 467 q 100 463 100 464 q 99 463 100 463 z "},"":{"ha":208,"x_min":0,"x_max":219,"o":"m 85 157 q 35 179 56 157 q 19 198 28 185 q 6 233 11 211 q 0 284 0 254 q 10 356 0 314 q 64 426 25 424 q 92 408 83 429 q 95 371 99 392 q 81 331 92 350 q 11 282 54 289 q 43 188 11 219 q 94 169 65 163 q 140 194 119 175 q 176 233 161 213 q 208 286 193 258 q 215 289 211 292 q 219 282 219 288 q 209 263 218 281 q 185 224 200 246 q 147 183 169 203 q 97 158 125 164 q 85 157 93 157 m 65 415 l 64 415 q 42 400 54 414 q 21 353 29 386 q 13 294 13 321 q 71 336 49 301 q 85 371 82 353 q 81 404 88 389 q 65 415 76 415 m 49 460 q 43 465 43 460 l 43 481 q 49 486 43 486 q 54 481 54 486 l 54 465 q 49 460 54 460 m 96 460 q 90 467 90 460 l 92 481 q 99 486 94 486 q 104 479 104 483 l 101 465 q 96 460 101 460 z "},"":{"ha":156,"x_min":-15,"x_max":167,"o":"m 69 113 q 44 124 56 113 q 19 172 28 139 q 4 246 10 206 q -3 328 -1 286 q -4 403 -4 369 q 1 408 -4 408 q 7 403 7 408 q 19 224 7 294 q 51 132 31 153 q 69 124 60 124 q 99 142 85 124 q 124 187 113 161 q 143 239 135 213 q 156 282 151 265 q 163 286 156 286 q 167 279 167 283 q 158 246 165 272 q 138 190 150 219 q 108 137 125 161 q 69 113 90 113 m 26 457 q 21 458 22 457 q 13 468 18 463 q 3 479 8 474 q -8 489 -3 485 q -12 493 -12 493 q -12 501 -15 499 q -4 501 -8 506 q 11 488 -3 501 q 31 465 25 474 q 29 457 33 461 l 26 457 z "},"":{"ha":156,"x_min":-15,"x_max":167,"o":"m 69 113 q 44 124 56 113 q 19 172 28 139 q 4 246 10 206 q -3 328 -1 286 q -4 403 -4 369 q 1 408 -4 408 q 7 403 7 408 q 19 224 7 294 q 51 132 31 153 q 69 124 60 124 q 99 142 85 124 q 124 187 113 161 q 143 239 135 213 q 156 282 151 265 q 163 286 156 286 q 167 279 167 283 q 158 246 165 272 q 138 190 150 219 q 108 137 125 161 q 69 113 90 113 m -7 450 q -10 451 -10 450 q -11 458 -15 454 q 8 481 -6 467 q 24 494 22 494 q 32 494 26 500 q 31 486 35 490 l 17 472 q 6 461 11 467 q -3 453 0 456 q -7 450 -3 450 z "},"":{"ha":156,"x_min":-40,"x_max":167,"o":"m 69 113 q 44 124 56 113 q 19 172 28 139 q 4 246 10 206 q -3 328 -1 286 q -4 403 -4 369 q 1 408 -4 408 q 7 403 7 408 q 19 224 7 294 q 51 132 31 153 q 69 124 60 124 q 99 142 85 124 q 124 187 113 161 q 143 239 135 213 q 156 282 151 265 q 163 286 156 286 q 167 279 167 283 q 158 246 165 272 q 138 190 150 219 q 108 137 125 161 q 69 113 90 113 m 24 451 q 18 454 21 451 q 4 486 8 474 q -15 465 -4 475 q -29 453 -26 456 q -36 454 -35 450 q -36 463 -40 458 q -15 482 -26 469 q -1 501 -3 494 q 4 507 0 506 q 10 503 10 507 q 15 488 13 494 q 21 474 18 481 q 28 461 24 467 q 26 453 33 456 q 25 452 25 453 q 24 451 25 451 z "},"":{"ha":156,"x_min":-26,"x_max":167,"o":"m 69 113 q 44 124 56 113 q 19 172 28 139 q 4 246 10 206 q -3 328 -1 286 q -4 403 -4 369 q 1 408 -4 408 q 7 403 7 408 q 19 224 7 294 q 51 132 31 153 q 69 124 60 124 q 99 142 85 124 q 124 187 113 161 q 143 239 135 213 q 156 282 151 265 q 163 286 156 286 q 167 279 167 283 q 158 246 165 272 q 138 190 150 219 q 108 137 125 161 q 69 113 90 113 m -21 451 q -26 457 -26 451 l -26 472 q -21 478 -26 478 q -15 472 -15 478 l -15 457 q -21 451 -15 451 m 26 451 q 21 458 21 451 l 22 472 q 29 478 25 478 q 35 471 35 475 l 32 457 q 26 451 32 451 z "},"":{"ha":343,"x_min":6,"x_max":296,"o":"m 107 156 q 103 157 104 156 q 103 165 99 161 q 190 285 156 221 q 243 410 224 350 q 271 519 263 469 q 282 594 279 568 q 256 556 272 579 q 219 506 240 532 q 176 453 199 479 q 128 407 153 426 q 81 377 104 388 q 38 371 58 367 q 10 413 6 378 q 42 480 14 440 q 109 555 69 519 q 193 615 149 590 q 276 640 238 640 q 281 640 279 640 q 285 639 282 639 q 290 633 290 639 q 283 628 288 628 q 203 608 247 631 q 119 550 158 585 q 53 477 81 515 q 21 411 25 439 q 39 382 19 386 q 88 392 61 376 q 142 434 115 408 q 195 492 169 460 q 240 552 221 524 q 272 599 260 581 q 285 619 285 618 q 292 622 286 622 q 294 617 296 618 q 293 594 294 615 q 285 537 292 572 q 267 455 279 501 q 235 357 256 408 q 185 254 215 306 q 111 157 154 203 q 109 156 110 157 q 107 156 108 156 z "},"":{"ha":293,"x_min":-10,"x_max":304,"o":"m 21 192 q 8 230 14 196 q -3 305 1 264 q -8 381 -7 346 q -10 419 -10 415 q -4 425 -10 425 q 1 419 1 425 q 2 379 0 408 q 8 316 4 350 q 15 251 11 282 q 24 207 19 219 q 28 221 26 213 q 32 239 29 229 q 43 287 36 260 q 60 336 50 314 q 85 372 71 358 q 119 382 100 386 q 151 353 138 378 q 178 296 164 328 q 205 240 190 267 q 236 213 219 213 q 256 221 247 213 q 273 241 265 229 q 285 265 281 253 q 293 285 290 278 q 300 289 294 289 q 304 282 304 286 q 299 267 304 281 q 286 240 294 254 q 265 213 278 225 q 238 200 253 200 l 236 200 q 198 228 214 200 q 167 292 182 256 q 143 344 156 319 q 117 371 131 368 q 90 360 101 374 q 69 326 78 347 q 53 281 60 306 q 43 236 47 257 q 35 203 38 213 q 28 190 32 193 q 21 192 22 190 m 125 456 q 103 464 111 456 q 78 473 92 475 q 57 464 65 471 q 49 465 51 461 q 49 472 42 468 q 77 485 60 483 q 110 472 94 486 q 123 467 117 467 q 133 468 129 467 q 153 481 150 472 q 160 485 154 485 q 164 476 164 482 q 136 457 157 464 q 131 456 133 457 q 125 456 128 456 z "},"":{"ha":240,"x_min":-11,"x_max":254,"o":"m 64 129 q 36 149 47 132 q 19 190 25 167 q 13 240 14 214 q 13 288 11 267 q 8 292 10 290 q 3 296 6 293 q -7 326 -11 310 q 17 344 0 344 q 57 324 35 344 q 93 279 79 303 q 162 283 124 276 q 244 304 200 289 q 251 301 251 307 q 249 294 254 297 q 169 273 208 279 q 99 268 131 267 q 108 237 104 254 q 111 201 111 219 q 108 167 111 183 q 96 142 104 151 q 81 131 89 133 q 64 129 72 129 m 24 282 q 25 237 24 261 q 31 192 26 213 q 45 158 36 172 q 67 140 54 143 q 86 149 78 139 q 97 172 93 157 q 100 203 100 186 q 97 236 100 219 q 88 265 93 253 q 87 267 88 267 q 86 268 86 267 q 51 273 67 269 q 24 282 36 276 m 24 294 q 79 279 46 283 q 47 318 65 301 q 15 333 28 335 q 4 324 7 333 q 6 309 1 317 q 17 299 11 301 q 19 300 17 300 q 24 294 24 297 m 76 386 q 71 388 72 386 q 63 397 68 392 q 53 408 58 403 q 42 418 47 414 q 38 422 38 422 q 38 431 35 428 q 46 431 42 435 q 61 417 47 431 q 81 394 75 403 q 79 386 83 390 l 76 386 z "},"":{"ha":240,"x_min":-11,"x_max":254,"o":"m 64 129 q 36 149 47 132 q 19 190 25 167 q 13 240 14 214 q 13 288 11 267 q 8 292 10 290 q 3 296 6 293 q -7 326 -11 310 q 17 344 0 344 q 57 324 35 344 q 93 279 79 303 q 162 283 124 276 q 244 304 200 289 q 251 301 251 307 q 249 294 254 297 q 169 273 208 279 q 99 268 131 267 q 108 237 104 254 q 111 201 111 219 q 108 167 111 183 q 96 142 104 151 q 81 131 89 133 q 64 129 72 129 m 24 282 q 25 237 24 261 q 31 192 26 213 q 45 158 36 172 q 67 140 54 143 q 86 149 78 139 q 97 172 93 157 q 100 203 100 186 q 97 236 100 219 q 88 265 93 253 q 87 267 88 267 q 86 268 86 267 q 51 273 67 269 q 24 282 36 276 m 24 294 q 79 279 46 283 q 47 318 65 301 q 15 333 28 335 q 4 324 7 333 q 6 309 1 317 q 17 299 11 301 q 19 300 17 300 q 24 294 24 297 m 21 390 q 18 392 18 390 q 17 399 13 394 q 36 421 22 407 q 51 435 50 435 q 60 435 54 440 q 58 426 63 431 l 44 413 q 33 401 39 407 q 25 393 28 396 q 21 390 25 390 z "},"":{"ha":240,"x_min":-11,"x_max":254,"o":"m 64 129 q 36 149 47 132 q 19 190 25 167 q 13 240 14 214 q 13 288 11 267 q 8 292 10 290 q 3 296 6 293 q -7 326 -11 310 q 17 344 0 344 q 57 324 35 344 q 93 279 79 303 q 162 283 124 276 q 244 304 200 289 q 251 301 251 307 q 249 294 254 297 q 169 273 208 279 q 99 268 131 267 q 108 237 104 254 q 111 201 111 219 q 108 167 111 183 q 96 142 104 151 q 81 131 89 133 q 64 129 72 129 m 24 282 q 25 237 24 261 q 31 192 26 213 q 45 158 36 172 q 67 140 54 143 q 86 149 78 139 q 97 172 93 157 q 100 203 100 186 q 97 236 100 219 q 88 265 93 253 q 87 267 88 267 q 86 268 86 267 q 51 273 67 269 q 24 282 36 276 m 24 294 q 79 279 46 283 q 47 318 65 301 q 15 333 28 335 q 4 324 7 333 q 6 309 1 317 q 17 299 11 301 q 19 300 17 300 q 24 294 24 297 m 64 385 q 58 388 61 385 q 44 419 49 407 q 25 399 36 408 q 11 386 14 389 q 4 388 6 383 q 4 396 0 392 q 26 415 14 403 q 39 435 38 428 q 44 440 40 439 q 50 436 50 440 q 56 421 53 428 q 61 407 58 414 q 68 394 64 400 q 67 386 74 389 q 65 385 65 386 q 64 385 65 385 z "},"":{"ha":240,"x_min":-36,"x_max":254,"o":"m 64 129 q 36 149 47 132 q 19 190 25 167 q 13 240 14 214 q 13 288 11 267 q 8 292 10 290 q 3 296 6 293 q -7 326 -11 310 q 17 344 0 344 q 57 324 35 344 q 93 279 79 303 q 162 283 124 276 q 244 304 200 289 q 251 301 251 307 q 249 294 254 297 q 169 273 208 279 q 99 268 131 267 q 108 237 104 254 q 111 201 111 219 q 108 167 111 183 q 96 142 104 151 q 81 131 89 133 q 64 129 72 129 m 24 282 q 25 237 24 261 q 31 192 26 213 q 45 158 36 172 q 67 140 54 143 q 86 149 78 139 q 97 172 93 157 q 100 203 100 186 q 97 236 100 219 q 88 265 93 253 q 87 267 88 267 q 86 268 86 267 q 51 273 67 269 q 24 282 36 276 m 24 294 q 79 279 46 283 q 47 318 65 301 q 15 333 28 335 q 4 324 7 333 q 6 309 1 317 q 17 299 11 301 q 19 300 17 300 q 24 294 24 297 m 47 383 q 25 392 33 383 q 1 401 14 403 q -21 392 -12 399 q -29 393 -26 389 q -29 400 -36 396 q -1 413 -18 411 q 32 400 17 414 q 45 394 39 394 q 56 396 51 394 q 75 408 72 400 q 82 413 76 413 q 86 404 86 410 q 58 385 79 392 q 53 384 56 385 q 47 383 50 383 z "},"":{"ha":240,"x_min":-11,"x_max":254,"o":"m 64 129 q 36 149 47 132 q 19 190 25 167 q 13 240 14 214 q 13 288 11 267 q 8 292 10 290 q 3 296 6 293 q -7 326 -11 310 q 17 344 0 344 q 57 324 35 344 q 93 279 79 303 q 162 283 124 276 q 244 304 200 289 q 251 301 251 307 q 249 294 254 297 q 169 273 208 279 q 99 268 131 267 q 108 237 104 254 q 111 201 111 219 q 108 167 111 183 q 96 142 104 151 q 81 131 89 133 q 64 129 72 129 m 24 282 q 25 237 24 261 q 31 192 26 213 q 45 158 36 172 q 67 140 54 143 q 86 149 78 139 q 97 172 93 157 q 100 203 100 186 q 97 236 100 219 q 88 265 93 253 q 87 267 88 267 q 86 268 86 267 q 51 273 67 269 q 24 282 36 276 m 24 294 q 79 279 46 283 q 47 318 65 301 q 15 333 28 335 q 4 324 7 333 q 6 309 1 317 q 17 299 11 301 q 19 300 17 300 q 24 294 24 297 m 3 383 q -3 389 -3 383 l -3 404 q 3 410 -3 410 q 8 404 8 410 l 8 389 q 3 383 8 383 m 50 383 q 44 390 44 383 l 46 404 q 53 410 49 410 q 58 403 58 407 l 56 389 q 50 383 56 383 z "},"":{"ha":240,"x_min":-89,"x_max":254,"o":"m 64 129 q 36 149 47 132 q 19 190 25 167 q 13 240 14 214 q 13 288 11 267 q 8 292 10 290 q 3 296 6 293 q -7 326 -11 310 q 17 344 0 344 q 57 324 35 344 q 93 279 79 303 q 162 283 124 276 q 244 304 200 289 q 251 301 251 307 q 249 294 254 297 q 169 273 208 279 q 99 268 131 267 q 108 237 104 254 q 111 201 111 219 q 108 167 111 183 q 96 142 104 151 q 81 131 89 133 q 64 129 72 129 m 24 282 q 25 237 24 261 q 31 192 26 213 q 45 158 36 172 q 67 140 54 143 q 86 149 78 139 q 97 172 93 157 q 100 203 100 186 q 97 236 100 219 q 88 265 93 253 q 87 267 88 267 q 86 268 86 267 q 51 273 67 269 q 24 282 36 276 m 24 294 q 79 279 46 283 q 47 318 65 301 q 15 333 28 335 q 4 324 7 333 q 6 309 1 317 q 17 299 11 301 q 19 300 17 300 q 24 294 24 297 m 238 481 q 239 474 244 476 q 219 444 239 472 q 168 373 199 417 q 101 276 138 329 q 29 174 64 224 q -34 83 -6 124 q -75 21 -62 42 q -79 18 -78 18 q -82 19 -82 18 q -85 26 -89 22 q -44 89 -72 47 q 19 181 -15 131 q 92 283 54 231 q 160 379 129 336 q 210 450 190 422 q 231 479 229 478 q 238 481 233 485 z "},"":{"ha":361,"x_min":0,"x_max":340,"o":"m 85 133 q 64 138 72 133 q 30 170 44 146 q 8 229 15 194 q 0 307 0 264 q 13 394 0 350 q 19 399 15 400 q 24 392 24 399 q 12 309 13 350 q 18 235 11 268 q 39 178 25 201 q 69 147 53 156 q 146 190 106 131 q 186 284 175 235 q 201 363 197 333 q 206 389 204 382 q 214 397 207 396 q 222 391 219 397 q 232 363 225 385 l 239 342 q 256 284 247 314 q 276 229 265 254 q 297 186 286 204 q 318 164 307 168 q 331 164 322 161 q 338 163 336 167 q 336 154 340 157 q 313 153 325 149 q 289 176 300 158 q 267 219 278 193 q 247 276 257 244 q 228 339 238 307 l 222 358 q 218 370 219 365 q 215 378 217 375 q 214 370 214 375 q 213 361 214 365 q 197 280 208 331 q 154 183 185 229 q 117 143 135 153 q 85 133 99 133 m 146 461 q 140 463 142 461 q 133 472 138 467 q 122 483 128 478 q 112 493 117 489 q 107 497 107 497 q 107 506 104 503 q 115 506 111 510 q 131 492 117 506 q 150 469 144 478 q 149 461 153 465 l 146 461 z "},"":{"ha":361,"x_min":0,"x_max":340,"o":"m 85 133 q 64 138 72 133 q 30 170 44 146 q 8 229 15 194 q 0 307 0 264 q 13 394 0 350 q 19 399 15 400 q 24 392 24 399 q 12 309 13 350 q 18 235 11 268 q 39 178 25 201 q 69 147 53 156 q 146 190 106 131 q 186 284 175 235 q 201 363 197 333 q 206 389 204 382 q 214 397 207 396 q 222 391 219 397 q 232 363 225 385 l 239 342 q 256 284 247 314 q 276 229 265 254 q 297 186 286 204 q 318 164 307 168 q 331 164 322 161 q 338 163 336 167 q 336 154 340 157 q 313 153 325 149 q 289 176 300 158 q 267 219 278 193 q 247 276 257 244 q 228 339 238 307 l 222 358 q 218 370 219 365 q 215 378 217 375 q 214 370 214 375 q 213 361 214 365 q 197 280 208 331 q 154 183 185 229 q 117 143 135 153 q 85 133 99 133 m 115 440 q 113 442 113 440 q 111 449 107 444 q 131 471 117 457 q 146 485 144 485 q 154 485 149 490 q 153 476 157 481 l 139 463 q 128 451 133 457 q 119 443 122 446 q 115 440 119 440 z "},"":{"ha":361,"x_min":0,"x_max":340,"o":"m 85 133 q 64 138 72 133 q 30 170 44 146 q 8 229 15 194 q 0 307 0 264 q 13 394 0 350 q 19 399 15 400 q 24 392 24 399 q 12 309 13 350 q 18 235 11 268 q 39 178 25 201 q 69 147 53 156 q 146 190 106 131 q 186 284 175 235 q 201 363 197 333 q 206 389 204 382 q 214 397 207 396 q 222 391 219 397 q 232 363 225 385 l 239 342 q 256 284 247 314 q 276 229 265 254 q 297 186 286 204 q 318 164 307 168 q 331 164 322 161 q 338 163 336 167 q 336 154 340 157 q 313 153 325 149 q 289 176 300 158 q 267 219 278 193 q 247 276 257 244 q 228 339 238 307 l 222 358 q 218 370 219 365 q 215 378 217 375 q 214 370 214 375 q 213 361 214 365 q 197 280 208 331 q 154 183 185 229 q 117 143 135 153 q 85 133 99 133 m 153 443 q 147 446 150 443 q 133 478 138 465 q 114 457 125 467 q 100 444 103 447 q 93 446 94 442 q 93 454 89 450 q 115 474 103 461 q 128 493 126 486 q 133 499 129 497 q 139 494 139 499 q 144 479 142 486 q 150 465 147 472 q 157 453 153 458 q 156 444 163 447 q 154 444 154 444 q 153 443 154 443 z "},"":{"ha":361,"x_min":0,"x_max":340,"o":"m 85 133 q 64 138 72 133 q 30 170 44 146 q 8 229 15 194 q 0 307 0 264 q 13 394 0 350 q 19 399 15 400 q 24 392 24 399 q 12 309 13 350 q 18 235 11 268 q 39 178 25 201 q 69 147 53 156 q 146 190 106 131 q 186 284 175 235 q 201 363 197 333 q 206 389 204 382 q 214 397 207 396 q 222 391 219 397 q 232 363 225 385 l 239 342 q 256 284 247 314 q 276 229 265 254 q 297 186 286 204 q 318 164 307 168 q 331 164 322 161 q 338 163 336 167 q 336 154 340 157 q 313 153 325 149 q 289 176 300 158 q 267 219 278 193 q 247 276 257 244 q 228 339 238 307 l 222 358 q 218 370 219 365 q 215 378 217 375 q 214 370 214 375 q 213 361 214 365 q 197 280 208 331 q 154 183 185 229 q 117 143 135 153 q 85 133 99 133 m 103 443 q 97 449 97 443 l 97 464 q 103 469 97 469 q 108 464 108 469 l 108 449 q 103 443 108 443 m 150 443 q 144 450 144 443 l 146 464 q 153 469 149 469 q 158 463 158 467 l 156 449 q 150 443 156 443 z "},"":{"ha":317,"x_min":-3,"x_max":326,"o":"m 133 -524 q 126 -522 128 -524 q 95 -496 107 -519 q 78 -441 83 -472 q 71 -377 72 -410 q 69 -322 69 -344 q 78 -196 71 -262 q 101 -62 86 -129 q 136 66 115 4 q 185 176 157 128 q 167 290 175 240 q 153 364 158 339 q 61 176 106 200 q 35 174 47 169 q 10 199 18 178 q 0 238 3 215 q -1 283 -3 260 q 6 329 1 307 q 19 368 11 351 q 26 371 22 374 q 29 364 32 368 q 11 279 14 328 q 19 203 8 231 q 38 185 29 186 q 56 186 44 181 q 72 202 63 190 q 94 237 82 214 q 119 297 106 260 q 147 389 132 333 q 153 393 149 393 q 158 389 158 393 q 170 333 160 388 q 193 193 181 278 q 252 265 221 238 q 319 297 283 292 q 326 292 326 297 q 321 285 326 286 q 253 251 285 281 q 196 176 222 222 q 215 15 207 101 q 224 -154 224 -71 q 208 -397 224 -310 q 163 -512 193 -485 q 133 -524 147 -524 m 188 160 q 143 51 163 111 q 110 -72 124 -8 q 90 -201 97 -136 q 82 -322 82 -265 q 92 -458 79 -407 q 128 -511 104 -508 q 154 -503 146 -514 q 213 -154 213 -456 q 205 6 213 -75 q 188 160 197 88 m 85 425 q 82 426 82 425 q 81 433 76 429 q 100 456 86 442 q 115 469 114 469 q 124 469 118 475 q 122 461 126 465 l 108 447 q 97 436 103 442 q 89 428 92 431 q 85 425 89 425 z "},"":{"ha":317,"x_min":-3,"x_max":326,"o":"m 133 -524 q 126 -522 128 -524 q 95 -496 107 -519 q 78 -441 83 -472 q 71 -377 72 -410 q 69 -322 69 -344 q 78 -196 71 -262 q 101 -62 86 -129 q 136 66 115 4 q 185 176 157 128 q 167 290 175 240 q 153 364 158 339 q 61 176 106 200 q 35 174 47 169 q 10 199 18 178 q 0 238 3 215 q -1 283 -3 260 q 6 329 1 307 q 19 368 11 351 q 26 371 22 374 q 29 364 32 368 q 11 279 14 328 q 19 203 8 231 q 38 185 29 186 q 56 186 44 181 q 72 202 63 190 q 94 237 82 214 q 119 297 106 260 q 147 389 132 333 q 153 393 149 393 q 158 389 158 393 q 170 333 160 388 q 193 193 181 278 q 252 265 221 238 q 319 297 283 292 q 326 292 326 297 q 321 285 326 286 q 253 251 285 281 q 196 176 222 222 q 215 15 207 101 q 224 -154 224 -71 q 208 -397 224 -310 q 163 -512 193 -485 q 133 -524 147 -524 m 188 160 q 143 51 163 111 q 110 -72 124 -8 q 90 -201 97 -136 q 82 -322 82 -265 q 92 -458 79 -407 q 128 -511 104 -508 q 154 -503 146 -514 q 213 -154 213 -456 q 205 6 213 -75 q 188 160 197 88 m 61 438 q 56 443 56 438 l 56 458 q 61 464 56 464 q 67 458 67 464 l 67 443 q 61 438 67 438 m 108 438 q 103 444 103 438 l 104 458 q 111 464 107 464 q 117 457 117 461 l 114 443 q 108 438 114 438 z "},"a":{"ha":238,"x_min":-17,"x_max":174,"o":"m 167 157 l 164 157 q 147 181 151 161 q 143 225 143 200 q 147 278 143 250 q 154 326 150 306 q 131 289 144 310 q 101 249 117 268 q 69 218 86 231 q 38 206 53 206 q 1 232 15 206 q 7 301 -17 265 q 30 328 17 315 q 57 349 43 340 q 83 361 71 357 q 104 365 96 365 q 118 358 114 365 q 115 350 121 353 q 108 353 111 347 l 107 353 q 106 353 106 353 q 104 354 106 354 q 63 340 92 356 q 17 296 35 324 q 13 236 -1 265 q 38 217 24 217 q 72 234 53 217 q 108 275 90 251 q 139 324 125 299 q 161 364 153 349 q 168 367 164 369 q 172 360 172 364 q 162 300 167 332 q 156 240 157 268 q 157 191 154 211 q 168 167 160 171 q 171 160 174 167 q 167 157 171 157 z "},"b":{"ha":314,"x_min":0,"x_max":324,"o":"m 83 13 q 64 18 71 13 q 40 60 43 29 q 38 27 39 32 q 33 21 38 22 q 27 24 28 21 q 25 33 26 28 q 20 99 22 49 q 15 216 18 149 q 10 360 13 283 q 5 506 7 436 q 1 629 3 575 q 0 706 0 683 q 6 711 0 711 q 11 706 11 711 q 12 647 11 688 q 14 554 13 607 q 17 440 15 501 q 22 319 19 379 q 27 203 25 258 q 32 108 29 149 q 40 206 35 158 q 53 290 44 253 q 74 349 61 326 q 107 375 88 372 q 197 322 164 379 q 214 281 207 303 q 278 297 250 296 q 318 292 306 299 q 321 285 324 289 q 313 282 318 281 q 276 285 301 288 q 217 269 250 283 q 217 181 225 229 q 178 85 210 132 q 126 28 150 44 q 83 13 103 13 m 207 264 q 131 211 169 246 q 65 117 93 176 q 52 59 49 83 q 69 28 56 35 q 110 31 83 19 q 168 92 136 43 q 206 181 199 136 q 207 264 214 226 m 115 364 l 108 364 q 76 329 89 361 q 57 252 64 297 q 47 160 50 207 q 42 81 43 113 q 54 122 43 101 q 125 221 85 185 q 204 276 165 257 q 188 317 197 299 q 115 364 160 364 z "},"c":{"ha":215,"x_min":0,"x_max":168,"o":"m 78 171 q 60 174 71 171 q 41 181 51 175 q 22 200 31 188 q 6 234 13 213 q 0 288 0 256 q 25 381 0 342 q 81 438 50 421 q 116 450 99 449 q 146 443 133 451 q 149 436 151 440 q 140 433 144 432 q 86 428 118 447 q 35 375 58 413 q 11 288 11 338 q 63 185 11 197 q 117 193 89 178 q 156 229 144 208 q 163 232 158 235 q 165 224 168 229 q 130 187 154 203 q 78 171 106 171 z "}}}
